<svg xmlns="http://www.w3.org/2000/svg"><svg xmlns="http://www.w3.org/2000/svg"  ><symbol id="mastodon-svg-logo-full" viewBox="0 0 713.35878 175.8678">

<g id="svgg"><path id="path0" d="M76.111 12.111 C 76.050 12.172,76.000 28.335,76.000 48.028 L 76.000 83.833 80.982 83.833 C 85.372 83.833,85.976 83.802,86.066 83.570 C 86.121 83.425,86.167 75.510,86.167 65.981 C 86.167 50.735,86.197 48.645,86.417 48.560 C 86.591 48.493,86.667 48.222,86.667 47.667 C 86.667 47.111,86.743 46.840,86.917 46.773 C 87.063 46.717,87.167 46.467,87.167 46.172 C 87.167 45.851,87.251 45.667,87.399 45.667 C 87.650 45.667,87.833 45.318,87.833 44.838 C 87.833 44.672,87.946 44.492,88.083 44.440 C 88.221 44.387,88.333 44.154,88.333 43.922 C 88.333 43.654,88.427 43.500,88.589 43.500 C 88.729 43.500,88.894 43.369,88.955 43.208 C 89.015 43.048,89.276 42.731,89.533 42.505 C 89.790 42.278,90.000 42.034,90.000 41.963 C 90.000 41.784,90.633 41.167,90.816 41.167 C 90.897 41.167,91.008 41.054,91.060 40.917 C 91.113 40.779,91.271 40.667,91.411 40.667 C 91.552 40.667,91.667 40.554,91.667 40.417 C 91.667 40.279,91.786 40.167,91.932 40.167 C 92.078 40.167,92.237 40.017,92.285 39.833 C 92.347 39.597,92.512 39.500,92.853 39.500 C 93.169 39.500,93.333 39.414,93.333 39.250 C 93.333 39.078,93.506 39.000,93.885 39.000 C 94.188 39.000,94.582 38.890,94.760 38.755 C 94.938 38.621,95.365 38.508,95.708 38.505 C 96.106 38.502,96.455 38.379,96.667 38.167 C 97.127 37.706,100.553 37.659,100.805 38.110 C 100.911 38.299,101.258 38.411,101.910 38.465 C 102.501 38.514,102.894 38.630,102.948 38.772 C 102.996 38.897,103.255 39.000,103.523 39.000 C 103.803 39.000,104.051 39.107,104.106 39.250 C 104.159 39.387,104.377 39.500,104.590 39.500 C 104.831 39.500,105.017 39.626,105.083 39.833 C 105.142 40.017,105.334 40.167,105.511 40.167 C 105.689 40.167,105.833 40.281,105.833 40.422 C 105.833 40.562,105.946 40.720,106.083 40.773 C 106.221 40.826,106.333 41.013,106.333 41.190 C 106.333 41.366,106.446 41.554,106.583 41.606 C 106.721 41.659,106.833 41.826,106.833 41.978 C 106.833 42.129,106.983 42.347,107.167 42.461 C 107.410 42.613,107.500 42.850,107.500 43.335 C 107.500 43.815,107.570 44.000,107.750 44.000 C 107.937 44.000,108.000 44.200,108.000 44.796 C 108.000 45.234,108.111 45.751,108.247 45.946 C 108.462 46.252,108.500 48.789,108.539 65.024 L 108.583 83.750 113.625 83.794 L 118.667 83.838 118.667 64.431 C 118.667 48.179,118.629 44.987,118.437 44.794 C 118.300 44.657,118.180 44.075,118.139 43.348 C 118.088 42.448,117.996 42.076,117.785 41.922 C 117.581 41.772,117.500 41.473,117.500 40.869 C 117.500 40.340,117.406 39.930,117.250 39.774 C 117.112 39.636,117.000 39.293,117.000 39.012 C 117.000 38.611,116.928 38.500,116.667 38.500 C 116.397 38.500,116.333 38.389,116.333 37.917 C 116.333 37.509,116.258 37.333,116.083 37.333 C 115.927 37.333,115.833 37.175,115.833 36.911 C 115.833 36.679,115.721 36.446,115.583 36.394 C 115.446 36.341,115.333 36.156,115.333 35.982 C 115.333 35.778,115.216 35.667,115.000 35.667 C 114.778 35.667,114.667 35.556,114.667 35.333 C 114.667 35.148,114.556 35.000,114.417 35.000 C 114.279 35.000,114.167 34.887,114.167 34.750 C 114.167 34.612,114.054 34.500,113.917 34.500 C 113.779 34.500,113.667 34.387,113.667 34.250 C 113.667 34.111,113.519 34.000,113.333 34.000 C 113.111 34.000,113.000 33.889,113.000 33.667 C 113.000 33.483,112.896 33.333,112.768 33.333 C 112.640 33.333,112.492 33.221,112.440 33.083 C 112.387 32.946,112.238 32.833,112.109 32.833 C 111.980 32.833,111.781 32.721,111.667 32.583 C 111.553 32.446,111.335 32.333,111.183 32.333 C 111.032 32.333,110.779 32.183,110.622 32.000 C 110.437 31.784,110.130 31.667,109.752 31.667 C 109.343 31.667,109.167 31.591,109.167 31.417 C 109.167 31.234,108.978 31.167,108.471 31.167 C 108.062 31.167,107.653 31.055,107.476 30.895 C 107.283 30.720,106.755 30.593,106.006 30.539 C 105.313 30.490,104.760 30.363,104.648 30.228 C 104.365 29.886,98.241 29.896,98.050 30.239 C 97.963 30.393,97.546 30.502,96.874 30.547 C 96.221 30.591,95.718 30.720,95.528 30.892 C 95.336 31.065,94.934 31.167,94.440 31.167 C 93.897 31.167,93.627 31.243,93.560 31.417 C 93.501 31.571,93.248 31.667,92.899 31.667 C 92.444 31.667,92.333 31.732,92.333 32.000 C 92.333 32.270,92.222 32.333,91.750 32.333 C 91.343 32.333,91.167 32.409,91.167 32.583 C 91.167 32.721,91.086 32.833,90.988 32.833 C 90.890 32.833,90.697 32.946,90.560 33.083 C 90.422 33.221,90.158 33.333,89.972 33.333 C 89.776 33.333,89.599 33.472,89.548 33.667 C 89.500 33.850,89.357 34.000,89.231 34.000 C 89.104 34.000,89.000 34.112,89.000 34.250 C 89.000 34.389,88.852 34.500,88.667 34.500 C 88.481 34.500,88.333 34.611,88.333 34.750 C 88.333 34.887,88.221 35.000,88.083 35.000 C 87.944 35.000,87.833 35.148,87.833 35.333 C 87.833 35.517,87.750 35.667,87.648 35.667 C 87.392 35.667,86.673 36.371,86.670 36.625 C 86.668 36.740,86.554 36.833,86.417 36.833 C 86.252 36.833,86.167 36.998,86.167 37.314 C 86.167 37.654,86.069 37.820,85.833 37.882 C 85.358 38.006,85.320 35.252,85.792 34.907 C 86.240 34.579,86.335 12.535,85.889 12.209 C 85.581 11.984,76.331 11.891,76.111 12.111 M34.447 17.898 C 34.384 18.063,33.961 18.148,32.997 18.192 C 31.947 18.240,31.589 18.320,31.425 18.544 C 31.285 18.736,30.987 18.833,30.544 18.833 C 30.152 18.833,29.788 18.937,29.667 19.083 C 29.553 19.221,29.236 19.333,28.964 19.333 C 28.609 19.333,28.444 19.428,28.382 19.667 C 28.316 19.917,28.154 20.000,27.731 20.000 C 27.340 20.000,27.167 20.077,27.167 20.250 C 27.167 20.417,27.000 20.500,26.667 20.500 C 26.333 20.500,26.167 20.583,26.167 20.750 C 26.167 20.887,26.022 21.000,25.845 21.000 C 25.667 21.000,25.475 21.150,25.417 21.333 C 25.349 21.548,25.164 21.667,24.900 21.667 C 24.674 21.667,24.446 21.779,24.394 21.917 C 24.341 22.054,24.208 22.167,24.098 22.167 C 23.988 22.167,23.644 22.429,23.333 22.750 C 23.022 23.071,22.699 23.333,22.616 23.333 C 22.385 23.333,21.673 24.055,21.670 24.292 C 21.668 24.406,21.554 24.500,21.417 24.500 C 21.279 24.500,21.167 24.601,21.167 24.724 C 21.167 24.847,21.017 25.084,20.833 25.250 C 20.650 25.416,20.500 25.690,20.500 25.859 C 20.500 26.028,20.387 26.167,20.250 26.167 C 20.112 26.167,20.000 26.270,20.000 26.397 C 20.000 26.524,19.850 26.667,19.667 26.715 C 19.424 26.778,19.333 26.942,19.333 27.318 C 19.333 27.665,19.252 27.833,19.083 27.833 C 18.946 27.833,18.833 27.946,18.833 28.083 C 18.833 28.221,18.729 28.333,18.602 28.333 C 18.469 28.333,18.324 28.583,18.261 28.917 C 18.195 29.266,18.054 29.500,17.909 29.500 C 17.745 29.500,17.667 29.682,17.667 30.066 C 17.667 30.414,17.571 30.668,17.417 30.727 C 17.271 30.783,17.167 31.033,17.167 31.328 C 17.167 31.666,17.084 31.833,16.917 31.833 C 16.779 31.833,16.658 31.927,16.648 32.042 C 16.562 32.976,16.480 33.269,16.257 33.432 C 16.091 33.553,16.000 33.887,16.000 34.373 C 16.000 34.839,15.905 35.205,15.750 35.333 C 15.584 35.471,15.500 35.844,15.500 36.437 C 15.500 37.111,15.417 37.416,15.167 37.667 C 14.903 37.930,14.833 38.222,14.833 39.066 C 14.833 39.859,14.769 40.156,14.583 40.227 C 14.377 40.306,14.333 40.747,14.333 42.757 C 14.333 44.572,14.276 45.247,14.109 45.414 C 13.618 45.906,13.617 56.333,14.108 56.333 C 14.287 56.333,14.333 56.843,14.333 58.813 C 14.333 60.725,14.386 61.336,14.565 61.485 C 14.707 61.603,14.821 62.119,14.861 62.826 C 14.905 63.608,15.018 64.077,15.213 64.293 C 15.405 64.505,15.500 64.889,15.500 65.454 C 15.500 66.050,15.573 66.326,15.750 66.394 C 15.926 66.461,16.000 66.736,16.000 67.328 C 16.000 67.962,16.061 68.167,16.250 68.167 C 16.425 68.167,16.500 68.343,16.500 68.750 C 16.500 69.111,16.627 69.460,16.833 69.667 C 17.017 69.850,17.167 70.190,17.167 70.422 C 17.167 70.654,17.279 70.887,17.417 70.940 C 17.559 70.994,17.667 71.243,17.667 71.518 C 17.667 71.835,17.752 72.000,17.917 72.000 C 18.054 72.000,18.175 72.094,18.186 72.208 C 18.196 72.323,18.223 72.492,18.244 72.583 C 18.265 72.675,18.294 72.844,18.308 72.958 C 18.322 73.073,18.446 73.167,18.583 73.167 C 18.748 73.167,18.833 73.331,18.833 73.649 C 18.833 73.924,18.941 74.172,19.083 74.227 C 19.221 74.280,19.333 74.438,19.333 74.578 C 19.333 74.722,19.478 74.833,19.667 74.833 C 19.927 74.833,20.000 74.944,20.000 75.339 C 20.000 75.634,20.104 75.884,20.250 75.940 C 20.387 75.992,20.500 76.140,20.500 76.268 C 20.500 76.396,20.604 76.500,20.731 76.500 C 20.857 76.500,21.000 76.650,21.048 76.833 C 21.096 77.017,21.255 77.167,21.401 77.167 C 21.547 77.167,21.667 77.250,21.667 77.351 C 21.667 77.701,22.696 78.833,23.014 78.833 C 23.190 78.833,23.333 78.946,23.333 79.083 C 23.333 79.221,23.446 79.333,23.583 79.333 C 23.721 79.333,23.833 79.418,23.833 79.523 C 23.833 79.736,24.608 80.500,24.824 80.500 C 24.901 80.500,25.008 80.612,25.060 80.750 C 25.113 80.887,25.308 81.000,25.493 81.000 C 25.679 81.000,25.924 81.150,26.039 81.333 C 26.153 81.517,26.333 81.667,26.439 81.667 C 26.545 81.667,26.674 81.779,26.727 81.917 C 26.783 82.063,27.033 82.167,27.328 82.167 C 27.666 82.167,27.833 82.249,27.833 82.417 C 27.833 82.589,28.006 82.667,28.391 82.667 C 28.737 82.667,29.063 82.793,29.250 83.000 C 29.416 83.183,29.671 83.336,29.817 83.339 C 29.964 83.342,30.229 83.454,30.407 83.589 C 30.587 83.725,31.085 83.833,31.532 83.833 C 32.106 83.833,32.333 83.899,32.333 84.066 C 32.333 84.397,32.712 84.500,33.936 84.500 C 34.737 84.500,35.035 84.564,35.106 84.750 C 35.251 85.126,45.462 85.126,45.606 84.750 C 45.675 84.571,45.954 84.500,46.588 84.500 C 47.626 84.500,48.000 84.385,48.000 84.066 C 48.000 83.898,48.232 83.833,48.833 83.833 C 49.463 83.833,49.667 83.772,49.667 83.583 C 49.667 83.415,49.835 83.333,50.182 83.333 C 50.558 83.333,50.722 83.243,50.785 83.000 C 50.846 82.768,51.012 82.667,51.332 82.667 C 51.585 82.667,51.886 82.554,52.000 82.417 C 52.114 82.279,52.386 82.167,52.604 82.167 C 52.845 82.167,53.000 82.069,53.000 81.917 C 53.000 81.779,53.098 81.667,53.219 81.667 C 53.339 81.667,53.598 81.517,53.795 81.333 C 53.992 81.150,54.268 81.000,54.410 81.000 C 54.551 81.000,54.667 80.887,54.667 80.750 C 54.667 80.612,54.782 80.500,54.922 80.500 C 55.062 80.500,55.220 80.387,55.273 80.250 C 55.326 80.112,55.468 80.000,55.590 80.000 C 55.711 80.000,55.853 79.867,55.905 79.704 C 55.957 79.541,56.168 79.297,56.374 79.162 C 56.947 78.788,58.000 77.639,58.000 77.389 C 58.000 77.267,58.150 77.167,58.333 77.167 C 58.556 77.167,58.667 77.056,58.667 76.833 C 58.667 76.648,58.778 76.500,58.917 76.500 C 59.054 76.500,59.167 76.387,59.167 76.250 C 59.167 76.112,59.279 76.000,59.417 76.000 C 59.554 76.000,59.667 75.867,59.667 75.704 C 59.667 75.541,59.817 75.279,60.000 75.122 C 60.183 74.965,60.333 74.723,60.333 74.585 C 60.333 74.447,60.446 74.333,60.583 74.333 C 60.758 74.333,60.833 74.157,60.833 73.750 C 60.833 73.278,60.897 73.167,61.167 73.167 C 61.383 73.167,61.500 73.056,61.500 72.851 C 61.500 72.678,61.612 72.492,61.750 72.440 C 61.887 72.387,62.000 72.154,62.000 71.922 C 62.000 71.658,62.094 71.500,62.250 71.500 C 62.423 71.500,62.500 71.326,62.500 70.936 C 62.500 70.512,62.583 70.351,62.833 70.285 C 63.073 70.222,63.167 70.058,63.167 69.700 C 63.167 69.411,63.272 69.162,63.417 69.106 C 63.560 69.051,63.667 68.803,63.667 68.523 C 63.667 68.244,63.773 67.995,63.917 67.940 C 64.518 67.709,64.240 66.055,63.582 65.949 C 63.260 65.896,62.880 65.737,62.736 65.594 C 62.593 65.450,62.254 65.333,61.983 65.333 C 61.698 65.333,61.449 65.228,61.394 65.083 C 61.338 64.940,61.090 64.833,60.809 64.833 C 60.540 64.833,60.158 64.683,59.962 64.500 C 59.765 64.317,59.401 64.167,59.153 64.167 C 58.905 64.167,58.659 64.054,58.606 63.917 C 58.551 63.773,58.303 63.667,58.023 63.667 C 57.744 63.667,57.495 63.560,57.440 63.417 C 57.229 62.868,55.333 63.083,55.333 63.655 C 55.333 63.998,55.234 64.176,55.000 64.250 C 54.755 64.328,54.667 64.502,54.667 64.907 C 54.667 65.211,54.554 65.553,54.417 65.667 C 54.279 65.781,54.167 66.017,54.167 66.192 C 54.167 66.367,54.054 66.554,53.917 66.606 C 53.779 66.659,53.667 66.845,53.667 67.019 C 53.667 67.194,53.517 67.465,53.333 67.622 C 53.150 67.779,53.000 68.070,53.000 68.269 C 53.000 68.468,52.887 68.674,52.750 68.727 C 52.612 68.780,52.500 68.975,52.500 69.160 C 52.500 69.345,52.350 69.591,52.167 69.705 C 51.983 69.820,51.833 70.000,51.833 70.106 C 51.833 70.211,51.721 70.341,51.583 70.394 C 51.446 70.446,51.333 70.604,51.333 70.745 C 51.333 70.885,51.221 71.000,51.083 71.000 C 50.946 71.000,50.833 71.115,50.833 71.255 C 50.833 71.396,50.721 71.554,50.583 71.606 C 50.446 71.659,50.333 71.807,50.333 71.934 C 50.333 72.062,50.218 72.167,50.078 72.167 C 49.938 72.167,49.780 72.279,49.727 72.417 C 49.674 72.554,49.527 72.667,49.399 72.667 C 49.271 72.667,49.167 72.779,49.167 72.917 C 49.167 73.054,49.047 73.167,48.901 73.167 C 48.755 73.167,48.596 73.317,48.548 73.500 C 48.500 73.683,48.357 73.833,48.231 73.833 C 48.104 73.833,48.000 73.946,48.000 74.083 C 48.000 74.251,47.833 74.333,47.495 74.333 C 47.199 74.333,46.950 74.437,46.894 74.583 C 46.841 74.721,46.693 74.833,46.566 74.833 C 46.438 74.833,46.194 74.972,46.024 75.143 C 45.854 75.313,45.517 75.502,45.274 75.562 C 45.032 75.623,44.833 75.747,44.833 75.837 C 44.833 75.926,44.421 76.000,43.917 76.000 C 43.213 76.000,43.000 76.058,43.000 76.250 C 43.000 76.461,42.604 76.500,40.434 76.500 C 38.308 76.500,37.853 76.457,37.773 76.250 C 37.703 76.067,37.414 76.000,36.690 76.000 C 35.966 76.000,35.677 75.933,35.606 75.750 C 35.554 75.612,35.321 75.500,35.089 75.500 C 34.857 75.500,34.517 75.350,34.333 75.167 C 34.150 74.983,33.858 74.833,33.684 74.833 C 33.511 74.833,33.326 74.721,33.273 74.583 C 33.220 74.446,32.995 74.333,32.773 74.333 C 32.551 74.333,32.326 74.221,32.273 74.083 C 32.220 73.946,32.062 73.833,31.922 73.833 C 31.782 73.833,31.667 73.750,31.667 73.648 C 31.667 73.392,30.962 72.673,30.708 72.670 C 30.594 72.668,30.500 72.554,30.500 72.417 C 30.500 72.279,30.387 72.167,30.250 72.167 C 30.111 72.167,30.000 72.019,30.000 71.833 C 30.000 71.648,29.889 71.500,29.750 71.500 C 29.613 71.500,29.500 71.406,29.500 71.290 C 29.500 71.175,29.350 70.987,29.167 70.872 C 28.983 70.758,28.833 70.512,28.833 70.327 C 28.833 70.141,28.721 69.946,28.583 69.894 C 28.446 69.841,28.333 69.661,28.333 69.494 C 28.333 69.327,28.230 69.087,28.104 68.961 C 27.977 68.834,27.821 68.492,27.757 68.199 C 27.693 67.905,27.534 67.667,27.403 67.667 C 27.245 67.667,27.167 67.479,27.167 67.101 C 27.167 66.752,27.071 66.499,26.917 66.440 C 26.752 66.377,26.667 66.116,26.667 65.680 C 26.667 65.294,26.571 64.961,26.438 64.883 C 26.303 64.804,26.178 64.351,26.131 63.771 C 26.077 63.093,25.968 62.745,25.776 62.638 C 25.552 62.512,25.500 62.209,25.500 61.012 C 25.500 59.908,25.438 59.489,25.250 59.333 C 25.052 59.169,25.000 58.693,25.000 57.064 C 25.000 55.183,24.971 54.985,24.667 54.795 C 24.233 54.524,24.136 47.333,24.566 47.333 C 24.932 47.333,25.000 46.941,25.000 44.840 C 25.000 43.296,25.054 42.830,25.250 42.667 C 25.436 42.512,25.500 42.098,25.500 41.040 C 25.500 39.911,25.557 39.579,25.776 39.418 C 25.959 39.285,26.079 38.885,26.132 38.233 C 26.175 37.692,26.282 37.205,26.368 37.149 C 26.455 37.093,26.568 36.731,26.620 36.343 C 26.672 35.955,26.816 35.599,26.941 35.551 C 27.065 35.503,27.167 35.247,27.167 34.982 C 27.167 34.717,27.244 34.500,27.337 34.500 C 27.431 34.500,27.585 34.294,27.679 34.042 C 28.023 33.122,28.533 32.167,28.682 32.167 C 28.765 32.167,28.833 32.092,28.833 32.000 C 28.833 31.908,28.983 31.683,29.167 31.500 C 29.350 31.317,29.500 31.017,29.500 30.833 C 29.500 30.648,29.611 30.500,29.750 30.500 C 29.887 30.500,30.000 30.387,30.000 30.250 C 30.000 30.113,30.113 30.000,30.250 30.000 C 30.387 30.000,30.500 29.887,30.500 29.750 C 30.500 29.613,30.594 29.500,30.709 29.500 C 30.825 29.500,31.160 29.238,31.454 28.917 C 31.796 28.545,32.143 28.333,32.412 28.333 C 32.675 28.333,32.833 28.240,32.833 28.083 C 32.833 27.928,32.991 27.833,33.249 27.833 C 33.483 27.833,33.754 27.688,33.872 27.500 C 33.992 27.307,34.261 27.167,34.508 27.167 C 34.744 27.167,35.082 27.057,35.260 26.922 C 35.453 26.775,35.963 26.675,36.530 26.672 C 37.143 26.669,37.564 26.579,37.726 26.417 C 37.922 26.221,38.432 26.167,40.077 26.167 C 41.790 26.167,42.195 26.213,42.273 26.417 C 42.341 26.593,42.622 26.668,43.226 26.672 C 43.714 26.675,44.223 26.783,44.407 26.922 C 44.585 27.057,44.866 27.167,45.032 27.167 C 45.198 27.167,45.333 27.242,45.333 27.334 C 45.333 27.425,45.821 27.731,46.417 28.012 C 47.012 28.294,47.500 28.594,47.500 28.679 C 47.500 28.764,47.612 28.833,47.750 28.833 C 47.887 28.833,48.000 28.946,48.000 29.083 C 48.000 29.221,48.079 29.333,48.176 29.333 C 48.392 29.333,50.333 31.291,50.333 31.509 C 50.333 31.596,50.446 31.667,50.583 31.667 C 50.721 31.667,50.833 31.782,50.833 31.922 C 50.833 32.062,50.946 32.220,51.083 32.273 C 51.221 32.326,51.333 32.506,51.333 32.673 C 51.333 32.840,51.431 33.075,51.551 33.196 C 51.671 33.318,51.818 33.548,51.879 33.708 C 51.940 33.869,52.104 34.000,52.245 34.000 C 52.417 34.000,52.500 34.162,52.500 34.500 C 52.500 34.833,52.583 35.000,52.750 35.000 C 52.930 35.000,53.000 35.184,53.000 35.655 C 53.000 36.017,53.113 36.422,53.252 36.562 C 53.391 36.700,53.550 37.043,53.606 37.324 C 53.723 37.907,55.023 38.116,55.227 37.583 C 55.282 37.439,55.531 37.333,55.814 37.333 C 56.474 37.333,56.833 37.180,56.833 36.899 C 56.833 36.745,57.029 36.667,57.417 36.667 C 57.824 36.667,58.000 36.591,58.000 36.417 C 58.000 36.231,58.195 36.167,58.755 36.167 C 59.273 36.167,59.541 36.088,59.606 35.917 C 59.664 35.766,59.916 35.667,60.242 35.667 C 60.570 35.667,60.900 35.536,61.083 35.333 C 61.270 35.127,61.597 35.000,61.942 35.000 C 62.327 35.000,62.500 34.922,62.500 34.750 C 62.500 34.612,62.604 34.500,62.731 34.500 C 63.116 34.500,63.178 33.840,62.821 33.534 C 62.608 33.352,62.500 33.045,62.500 32.624 C 62.500 32.214,62.412 31.956,62.250 31.894 C 62.112 31.841,62.000 31.661,62.000 31.494 C 62.000 31.327,61.897 31.087,61.770 30.961 C 61.644 30.834,61.487 30.487,61.421 30.188 C 61.356 29.889,61.196 29.604,61.068 29.554 C 60.939 29.505,60.833 29.332,60.833 29.169 C 60.833 29.007,60.721 28.781,60.583 28.667 C 60.446 28.553,60.333 28.318,60.333 28.146 C 60.333 27.944,60.215 27.833,60.000 27.833 C 59.784 27.833,59.667 27.722,59.667 27.518 C 59.667 27.344,59.554 27.159,59.417 27.106 C 59.279 27.054,59.167 26.821,59.167 26.589 C 59.167 26.325,59.073 26.167,58.917 26.167 C 58.779 26.167,58.667 26.047,58.667 25.901 C 58.667 25.755,58.517 25.596,58.333 25.548 C 58.150 25.500,58.000 25.357,58.000 25.231 C 58.000 25.104,57.887 25.000,57.750 25.000 C 57.612 25.000,57.500 24.869,57.500 24.708 C 57.500 24.548,57.293 24.216,57.041 23.971 C 56.085 23.040,55.647 22.667,55.510 22.667 C 55.433 22.667,55.326 22.554,55.273 22.417 C 55.220 22.279,55.062 22.167,54.922 22.167 C 54.782 22.167,54.667 22.054,54.667 21.917 C 54.667 21.742,54.491 21.667,54.083 21.667 C 53.611 21.667,53.500 21.603,53.500 21.333 C 53.500 21.148,53.389 21.000,53.250 21.000 C 53.112 21.000,53.000 20.887,53.000 20.750 C 53.000 20.598,52.845 20.500,52.604 20.500 C 52.386 20.500,52.114 20.387,52.000 20.250 C 51.886 20.112,51.617 20.000,51.402 20.000 C 51.182 20.000,50.934 19.854,50.833 19.667 C 50.719 19.453,50.484 19.333,50.179 19.333 C 49.909 19.333,49.661 19.225,49.606 19.083 C 49.541 18.912,49.273 18.833,48.755 18.833 C 48.214 18.833,48.000 18.766,48.000 18.597 C 48.000 18.331,47.484 18.207,46.250 18.175 C 45.736 18.162,45.346 18.060,45.232 17.910 C 44.962 17.556,34.582 17.545,34.447 17.898 M186.792 18.282 C 186.333 18.401,186.372 19.833,186.833 19.833 C 187.103 19.833,187.167 19.944,187.167 20.417 C 187.167 20.824,187.242 21.000,187.417 21.000 C 187.554 21.000,187.667 21.115,187.667 21.255 C 187.667 21.396,187.779 21.554,187.917 21.606 C 188.054 21.659,188.167 21.889,188.167 22.117 C 188.167 22.391,188.279 22.561,188.500 22.618 C 188.717 22.675,188.833 22.846,188.833 23.108 C 188.833 23.329,188.946 23.554,189.083 23.606 C 189.221 23.659,189.333 23.844,189.333 24.018 C 189.333 24.191,189.429 24.333,189.547 24.333 C 189.664 24.333,189.853 24.540,189.967 24.792 C 190.350 25.642,190.684 26.167,190.842 26.167 C 190.929 26.167,191.000 26.361,191.000 26.599 C 191.000 26.891,191.108 27.059,191.333 27.118 C 191.518 27.167,191.667 27.346,191.667 27.519 C 191.667 27.692,191.779 27.833,191.917 27.833 C 192.083 27.833,192.167 28.000,192.167 28.333 C 192.167 28.667,192.250 28.833,192.417 28.833 C 192.556 28.833,192.667 28.981,192.667 29.167 C 192.667 29.350,192.817 29.650,193.000 29.833 C 193.183 30.017,193.333 30.242,193.333 30.333 C 193.333 30.425,193.446 30.500,193.583 30.500 C 193.721 30.500,193.833 30.644,193.833 30.820 C 193.833 31.313,194.012 31.667,194.263 31.667 C 194.400 31.667,194.450 31.770,194.390 31.927 C 194.323 32.100,194.408 32.217,194.645 32.279 C 194.904 32.347,195.000 32.503,195.000 32.853 C 195.000 33.169,195.086 33.333,195.250 33.333 C 195.387 33.333,195.500 33.448,195.500 33.589 C 195.500 33.729,195.604 33.884,195.731 33.933 C 195.859 33.981,196.007 34.242,196.060 34.511 C 196.117 34.795,196.265 35.000,196.412 35.000 C 196.584 35.000,196.667 35.164,196.667 35.505 C 196.667 35.801,196.771 36.050,196.917 36.106 C 197.054 36.159,197.167 36.307,197.167 36.434 C 197.167 36.562,197.317 36.667,197.500 36.667 C 197.770 36.667,197.833 36.778,197.833 37.250 C 197.833 37.657,197.909 37.833,198.083 37.833 C 198.221 37.833,198.333 37.937,198.333 38.063 C 198.333 38.189,198.446 38.386,198.583 38.500 C 198.721 38.614,198.833 38.855,198.833 39.036 C 198.833 39.224,198.976 39.402,199.167 39.452 C 199.351 39.500,199.500 39.679,199.500 39.853 C 199.500 40.025,199.612 40.167,199.750 40.167 C 199.917 40.167,200.000 40.333,200.000 40.667 C 200.000 40.982,200.085 41.167,200.231 41.167 C 200.364 41.167,200.510 41.416,200.572 41.750 C 200.638 42.099,200.779 42.333,200.924 42.333 C 201.058 42.333,201.167 42.446,201.167 42.583 C 201.167 42.721,201.279 42.833,201.417 42.833 C 201.584 42.833,201.667 43.001,201.667 43.339 C 201.667 43.623,201.771 43.884,201.905 43.935 C 202.036 43.986,202.220 44.246,202.313 44.513 C 202.406 44.781,202.562 45.000,202.658 45.000 C 202.754 45.000,202.833 45.150,202.833 45.333 C 202.833 45.519,202.944 45.667,203.083 45.667 C 203.222 45.667,203.333 45.815,203.333 45.999 C 203.333 46.181,203.483 46.424,203.667 46.539 C 203.850 46.653,204.000 46.879,204.000 47.040 C 204.000 47.201,204.112 47.333,204.250 47.333 C 204.416 47.333,204.500 47.499,204.500 47.827 C 204.500 48.153,204.615 48.383,204.838 48.502 C 205.024 48.602,205.132 48.755,205.078 48.842 C 205.024 48.929,205.135 49.000,205.323 49.000 C 205.605 49.000,205.667 49.106,205.667 49.583 C 205.667 49.991,205.742 50.167,205.917 50.167 C 206.069 50.167,206.167 50.322,206.167 50.563 C 206.167 50.986,206.536 51.409,206.732 51.212 C 206.798 51.147,206.800 51.227,206.737 51.390 C 206.654 51.606,206.720 51.712,206.978 51.779 C 207.238 51.847,207.333 52.003,207.333 52.358 C 207.333 52.636,207.440 52.885,207.583 52.940 C 207.721 52.992,207.833 53.131,207.833 53.248 C 207.833 53.365,207.983 53.500,208.167 53.548 C 208.409 53.612,208.500 53.776,208.500 54.151 C 208.500 54.498,208.582 54.667,208.750 54.667 C 208.887 54.667,209.000 54.782,209.000 54.922 C 209.000 55.062,209.112 55.220,209.250 55.273 C 209.470 55.357,209.500 57.104,209.500 69.601 L 209.500 83.833 214.583 83.833 L 219.667 83.833 219.667 69.833 C 219.667 57.500,219.696 55.833,219.917 55.833 C 220.054 55.833,220.167 55.695,220.167 55.526 C 220.167 55.357,220.317 55.083,220.500 54.917 C 220.683 54.751,220.833 54.522,220.833 54.409 C 220.833 54.295,220.946 54.159,221.083 54.106 C 221.221 54.054,221.333 53.858,221.333 53.672 C 221.333 53.486,221.401 53.333,221.484 53.333 C 221.566 53.333,221.712 53.108,221.808 52.833 C 221.904 52.558,222.056 52.333,222.145 52.333 C 222.234 52.333,222.356 52.108,222.417 51.833 C 222.477 51.558,222.633 51.333,222.763 51.333 C 222.893 51.333,223.000 51.183,223.000 51.000 C 223.000 50.815,223.111 50.667,223.250 50.667 C 223.414 50.667,223.500 50.502,223.500 50.186 C 223.500 49.846,223.597 49.680,223.833 49.618 C 224.060 49.559,224.167 49.391,224.167 49.094 C 224.167 48.853,224.279 48.613,224.417 48.560 C 224.554 48.508,224.667 48.368,224.667 48.250 C 224.667 48.132,224.779 47.992,224.917 47.940 C 225.054 47.887,225.167 47.692,225.167 47.507 C 225.167 47.321,225.317 47.076,225.500 46.961 C 225.683 46.847,225.833 46.621,225.833 46.460 C 225.833 46.299,225.946 46.167,226.083 46.167 C 226.250 46.167,226.333 46.000,226.333 45.667 C 226.333 45.344,226.418 45.167,226.572 45.167 C 226.703 45.167,226.858 45.017,226.917 44.833 C 226.975 44.650,227.086 44.500,227.165 44.500 C 227.243 44.500,227.356 44.275,227.417 44.000 C 227.477 43.725,227.633 43.500,227.763 43.500 C 227.923 43.500,228.000 43.310,228.000 42.917 C 228.000 42.444,228.063 42.333,228.333 42.333 C 228.522 42.333,228.667 42.222,228.667 42.078 C 228.667 41.938,228.779 41.780,228.917 41.727 C 229.059 41.672,229.167 41.424,229.167 41.149 C 229.167 40.831,229.252 40.667,229.417 40.667 C 229.556 40.667,229.667 40.519,229.667 40.333 C 229.667 40.150,229.773 40.000,229.903 40.000 C 230.034 40.000,230.190 39.775,230.250 39.500 C 230.310 39.225,230.466 39.000,230.597 39.000 C 230.727 39.000,230.833 38.858,230.833 38.684 C 230.833 38.511,230.946 38.326,231.083 38.273 C 231.221 38.220,231.333 37.996,231.333 37.775 C 231.333 37.512,231.449 37.342,231.667 37.285 C 231.909 37.222,232.000 37.058,232.000 36.682 C 232.000 36.335,232.082 36.167,232.250 36.167 C 232.387 36.167,232.500 36.052,232.500 35.911 C 232.500 35.771,232.608 35.615,232.740 35.564 C 232.872 35.514,233.028 35.253,233.086 34.986 C 233.145 34.719,233.300 34.500,233.430 34.500 C 233.560 34.500,233.667 34.412,233.667 34.305 C 233.667 33.938,234.250 32.842,234.447 32.838 C 234.556 32.835,234.697 32.668,234.761 32.466 C 234.825 32.264,234.980 31.996,235.105 31.871 C 235.231 31.745,235.333 31.544,235.333 31.423 C 235.333 31.301,235.446 31.159,235.583 31.106 C 235.729 31.050,235.833 30.801,235.833 30.505 C 235.833 30.111,235.907 30.000,236.167 30.000 C 236.383 30.000,236.500 29.889,236.500 29.684 C 236.500 29.511,236.612 29.326,236.750 29.273 C 236.887 29.220,237.000 28.987,237.000 28.755 C 237.000 28.488,237.093 28.333,237.254 28.333 C 237.405 28.333,237.550 28.124,237.611 27.819 C 237.668 27.536,237.816 27.266,237.940 27.218 C 238.065 27.170,238.167 27.035,238.167 26.917 C 238.167 26.799,238.279 26.659,238.417 26.606 C 238.554 26.554,238.667 26.370,238.667 26.198 C 238.667 26.026,238.817 25.749,239.000 25.583 C 239.183 25.417,239.333 25.189,239.333 25.075 C 239.333 24.962,239.446 24.826,239.583 24.773 C 239.721 24.720,239.833 24.487,239.833 24.255 C 239.833 23.991,239.927 23.833,240.083 23.833 C 240.222 23.833,240.333 23.685,240.333 23.500 C 240.333 23.317,240.440 23.167,240.570 23.167 C 240.700 23.167,240.856 22.942,240.917 22.667 C 240.977 22.392,241.133 22.167,241.263 22.167 C 241.423 22.167,241.500 21.976,241.500 21.583 C 241.500 21.176,241.575 21.000,241.750 21.000 C 241.887 21.000,242.000 20.906,242.000 20.790 C 242.000 20.675,242.140 20.493,242.310 20.386 C 242.672 20.160,242.904 18.706,242.631 18.375 C 242.294 17.966,232.157 18.086,232.048 18.500 C 232.000 18.683,231.857 18.833,231.731 18.833 C 231.578 18.833,231.500 19.031,231.500 19.417 C 231.500 19.889,231.437 20.000,231.167 20.000 C 230.975 20.000,230.833 20.111,230.833 20.262 C 230.833 20.406,230.721 20.636,230.583 20.774 C 230.446 20.911,230.333 21.168,230.333 21.345 C 230.333 21.522,230.221 21.667,230.083 21.667 C 229.946 21.667,229.822 21.760,229.808 21.875 C 229.794 21.990,229.765 22.158,229.744 22.250 C 229.723 22.342,229.696 22.510,229.686 22.625 C 229.675 22.740,229.577 22.815,229.468 22.792 C 229.359 22.769,229.239 22.895,229.200 23.072 C 229.162 23.248,229.026 23.498,228.899 23.625 C 228.771 23.753,228.667 23.962,228.667 24.089 C 228.667 24.217,228.517 24.402,228.333 24.500 C 228.138 24.604,228.000 24.849,228.000 25.089 C 228.000 25.343,227.905 25.500,227.750 25.500 C 227.611 25.500,227.500 25.648,227.500 25.833 C 227.500 26.019,227.389 26.167,227.250 26.167 C 227.083 26.167,227.000 26.333,227.000 26.667 C 227.000 27.004,226.917 27.167,226.746 27.167 C 226.606 27.167,226.423 27.347,226.339 27.567 C 226.256 27.787,226.108 28.017,226.010 28.077 C 225.913 28.137,225.833 28.334,225.833 28.515 C 225.833 28.696,225.721 28.887,225.583 28.940 C 225.446 28.992,225.333 29.178,225.333 29.353 C 225.333 29.527,225.183 29.798,225.000 29.955 C 224.817 30.112,224.667 30.327,224.667 30.433 C 224.667 30.539,224.554 30.719,224.417 30.833 C 224.279 30.947,224.167 31.182,224.167 31.354 C 224.167 31.526,224.058 31.667,223.924 31.667 C 223.779 31.667,223.638 31.901,223.572 32.250 C 223.510 32.584,223.364 32.833,223.231 32.833 C 223.104 32.833,223.000 32.921,223.000 33.029 C 223.000 33.439,222.404 34.480,222.125 34.556 C 221.927 34.610,221.833 34.801,221.833 35.151 C 221.833 35.498,221.752 35.667,221.583 35.667 C 221.446 35.667,221.333 35.807,221.333 35.980 C 221.333 36.152,221.221 36.386,221.083 36.500 C 220.946 36.614,220.833 36.840,220.833 37.001 C 220.833 37.162,220.683 37.334,220.500 37.382 C 220.305 37.433,220.167 37.609,220.167 37.806 C 220.167 37.991,220.054 38.255,219.917 38.393 C 219.779 38.530,219.667 38.715,219.667 38.804 C 219.667 38.892,219.561 39.005,219.432 39.054 C 219.304 39.104,219.148 39.374,219.086 39.655 C 219.024 39.937,218.867 40.167,218.737 40.167 C 218.595 40.167,218.500 40.335,218.500 40.589 C 218.500 40.821,218.387 41.054,218.250 41.106 C 218.112 41.159,218.000 41.344,218.000 41.518 C 218.000 41.691,217.887 41.833,217.750 41.833 C 217.612 41.833,217.491 41.946,217.479 42.083 C 217.468 42.221,217.440 42.408,217.417 42.500 C 217.394 42.592,217.366 42.742,217.354 42.833 C 217.343 42.925,217.221 43.000,217.083 43.000 C 216.946 43.000,216.833 43.103,216.833 43.230 C 216.833 43.356,216.721 43.553,216.583 43.667 C 216.446 43.781,216.333 44.044,216.333 44.251 C 216.333 44.488,216.209 44.660,216.000 44.715 C 215.779 44.773,215.667 44.942,215.667 45.217 C 215.667 45.445,215.554 45.674,215.417 45.727 C 215.279 45.780,215.167 45.943,215.167 46.090 C 215.167 46.237,215.054 46.470,214.917 46.607 C 214.708 46.816,214.667 46.819,214.667 46.621 C 214.667 46.491,214.517 46.249,214.333 46.083 C 214.150 45.917,214.000 45.643,214.000 45.474 C 214.000 45.305,213.887 45.167,213.750 45.167 C 213.611 45.167,213.500 45.018,213.500 44.832 C 213.500 44.647,213.350 44.368,213.167 44.211 C 212.983 44.054,212.833 43.830,212.833 43.713 C 212.833 43.596,212.721 43.500,212.583 43.500 C 212.409 43.500,212.333 43.324,212.333 42.917 C 212.333 42.524,212.256 42.333,212.097 42.333 C 211.966 42.333,211.810 42.108,211.750 41.833 C 211.690 41.558,211.534 41.333,211.403 41.333 C 211.273 41.333,211.167 41.183,211.167 41.000 C 211.167 40.815,211.056 40.667,210.917 40.667 C 210.751 40.667,210.667 40.501,210.667 40.175 C 210.667 39.905,210.571 39.623,210.455 39.550 C 210.338 39.477,210.152 39.210,210.042 38.958 C 209.931 38.706,209.764 38.500,209.670 38.500 C 209.577 38.500,209.500 38.350,209.500 38.167 C 209.500 37.981,209.389 37.833,209.250 37.833 C 209.092 37.833,209.000 37.674,209.000 37.401 C 209.000 37.109,208.892 36.941,208.667 36.882 C 208.457 36.827,208.333 36.654,208.333 36.418 C 208.333 36.210,208.221 35.947,208.083 35.833 C 207.946 35.719,207.833 35.520,207.833 35.391 C 207.833 35.262,207.725 35.115,207.594 35.064 C 207.462 35.014,207.306 34.753,207.247 34.486 C 207.188 34.219,207.034 34.000,206.903 34.000 C 206.773 34.000,206.667 33.850,206.667 33.667 C 206.667 33.481,206.556 33.333,206.417 33.333 C 206.250 33.333,206.167 33.167,206.167 32.833 C 206.167 32.500,206.083 32.333,205.917 32.333 C 205.777 32.333,205.667 32.185,205.667 31.998 C 205.667 31.814,205.517 31.535,205.333 31.378 C 205.150 31.221,205.000 30.994,205.000 30.874 C 205.000 30.754,204.887 30.613,204.750 30.560 C 204.607 30.506,204.500 30.257,204.500 29.982 C 204.500 29.677,204.413 29.500,204.263 29.500 C 204.133 29.500,203.978 29.281,203.920 29.014 C 203.861 28.747,203.705 28.486,203.573 28.436 C 203.441 28.385,203.333 28.229,203.333 28.089 C 203.333 27.948,203.221 27.833,203.083 27.833 C 202.915 27.833,202.833 27.665,202.833 27.318 C 202.833 26.942,202.743 26.778,202.500 26.715 C 202.283 26.658,202.167 26.488,202.167 26.225 C 202.167 26.004,202.054 25.780,201.917 25.727 C 201.779 25.674,201.667 25.489,201.667 25.316 C 201.667 25.142,201.554 25.000,201.417 25.000 C 201.279 25.000,201.167 24.856,201.167 24.680 C 201.167 24.184,200.987 23.833,200.732 23.833 C 200.604 23.833,200.500 23.730,200.500 23.604 C 200.500 23.477,200.387 23.281,200.250 23.167 C 200.112 23.053,200.000 22.781,200.000 22.563 C 200.000 22.322,199.902 22.167,199.750 22.167 C 199.612 22.167,199.500 22.066,199.500 21.942 C 199.500 21.819,199.350 21.583,199.167 21.417 C 198.983 21.251,198.833 20.977,198.833 20.808 C 198.833 20.638,198.721 20.500,198.583 20.500 C 198.416 20.500,198.333 20.333,198.333 19.995 C 198.333 19.699,198.229 19.450,198.083 19.394 C 197.946 19.341,197.833 19.227,197.833 19.141 C 197.833 19.055,197.627 18.802,197.375 18.581 L 196.917 18.177 192.000 18.191 C 189.296 18.199,186.952 18.240,186.792 18.282 M250.611 18.278 C 250.349 18.540,250.487 67.839,250.750 67.940 C 250.943 68.014,251.000 68.335,251.000 69.350 C 251.000 70.483,251.046 70.692,251.333 70.872 C 251.589 71.032,251.667 71.261,251.667 71.856 C 251.667 72.391,251.744 72.661,251.917 72.727 C 252.088 72.793,252.167 73.061,252.167 73.578 C 252.167 74.138,252.231 74.333,252.417 74.333 C 252.580 74.333,252.667 74.497,252.667 74.802 C 252.667 75.060,252.817 75.431,253.000 75.628 C 253.183 75.825,253.333 76.070,253.333 76.172 C 253.333 76.274,253.446 76.470,253.583 76.607 C 253.721 76.745,253.833 77.009,253.833 77.194 C 253.833 77.391,253.972 77.567,254.167 77.618 C 254.350 77.666,254.500 77.812,254.500 77.941 C 254.500 78.071,254.612 78.220,254.750 78.273 C 254.887 78.326,255.000 78.467,255.000 78.587 C 255.000 78.707,255.262 79.075,255.583 79.405 C 255.904 79.736,256.167 80.072,256.167 80.153 C 256.167 80.234,256.392 80.379,256.667 80.475 C 256.942 80.571,257.167 80.728,257.167 80.825 C 257.167 80.921,257.317 81.000,257.500 81.000 C 257.722 81.000,257.833 81.111,257.833 81.333 C 257.833 81.522,257.944 81.667,258.089 81.667 C 258.229 81.667,258.387 81.779,258.440 81.917 C 258.494 82.059,258.743 82.167,259.018 82.167 C 259.335 82.167,259.500 82.252,259.500 82.417 C 259.500 82.591,259.676 82.667,260.083 82.667 C 260.476 82.667,260.667 82.744,260.667 82.903 C 260.667 83.034,260.905 83.193,261.199 83.257 C 261.492 83.321,261.834 83.477,261.961 83.604 C 262.100 83.742,262.549 83.833,263.095 83.833 C 263.757 83.833,264.000 83.896,264.000 84.066 C 264.000 84.401,264.380 84.500,265.662 84.500 C 266.518 84.500,266.821 84.562,266.894 84.750 C 267.031 85.108,278.744 85.127,279.255 84.770 C 279.440 84.640,280.154 84.511,280.891 84.474 C 281.885 84.424,282.250 84.339,282.410 84.121 C 282.555 83.922,282.852 83.833,283.376 83.833 C 283.893 83.833,284.161 83.755,284.227 83.583 C 284.280 83.446,284.507 83.333,284.731 83.333 C 285.311 83.333,285.667 83.168,285.667 82.899 C 285.667 82.746,285.860 82.667,286.232 82.667 C 286.581 82.667,286.834 82.571,286.894 82.417 C 286.946 82.279,287.182 82.167,287.417 82.167 C 287.652 82.167,287.884 82.062,287.933 81.933 C 287.983 81.805,288.168 81.662,288.345 81.615 C 288.522 81.569,288.668 81.430,288.670 81.307 C 288.672 81.184,289.047 80.913,289.503 80.705 C 289.960 80.497,290.333 80.216,290.333 80.080 C 290.333 79.944,290.446 79.833,290.583 79.833 C 290.721 79.833,290.833 79.721,290.833 79.583 C 290.833 79.446,290.946 79.333,291.083 79.333 C 291.221 79.333,291.333 79.223,291.333 79.089 C 291.333 78.955,291.483 78.765,291.667 78.667 C 291.862 78.562,292.000 78.318,292.000 78.077 C 292.000 77.823,292.095 77.667,292.250 77.667 C 292.387 77.667,292.500 77.572,292.500 77.457 C 292.500 77.341,292.650 77.153,292.833 77.039 C 293.022 76.921,293.167 76.650,293.167 76.415 C 293.167 76.157,293.261 76.000,293.417 76.000 C 293.591 76.000,293.667 75.824,293.667 75.417 C 293.667 75.009,293.742 74.833,293.917 74.833 C 294.088 74.833,294.167 74.662,294.167 74.287 C 294.167 73.947,294.293 73.633,294.500 73.455 C 294.716 73.271,294.833 72.964,294.833 72.585 C 294.833 72.176,294.909 72.000,295.083 72.000 C 295.280 72.000,295.333 71.769,295.333 70.917 C 295.333 70.102,295.391 69.833,295.566 69.833 C 295.916 69.833,296.000 69.447,296.000 67.838 C 296.000 66.686,296.054 66.348,296.250 66.273 C 296.642 66.123,296.629 18.418,296.236 18.268 C 295.705 18.064,286.745 18.155,286.533 18.367 C 286.380 18.520,286.333 23.721,286.333 40.763 C 286.333 60.290,286.303 62.984,286.083 63.167 C 285.888 63.329,285.833 63.786,285.833 65.253 C 285.833 66.769,285.785 67.150,285.583 67.227 C 285.399 67.298,285.333 67.588,285.333 68.328 C 285.333 69.097,285.276 69.333,285.091 69.333 C 284.947 69.333,284.805 69.565,284.741 69.905 C 284.682 70.220,284.529 70.517,284.400 70.567 C 284.272 70.616,284.167 70.876,284.167 71.144 C 284.167 71.423,284.060 71.672,283.917 71.727 C 283.779 71.780,283.667 72.013,283.667 72.245 C 283.667 72.556,283.579 72.667,283.333 72.667 C 283.150 72.667,283.000 72.771,283.000 72.899 C 283.000 73.027,282.887 73.174,282.750 73.227 C 282.612 73.280,282.500 73.438,282.500 73.578 C 282.500 73.718,282.396 73.833,282.268 73.833 C 282.140 73.833,281.992 73.946,281.940 74.083 C 281.887 74.221,281.738 74.333,281.609 74.333 C 281.480 74.333,281.281 74.446,281.167 74.583 C 281.053 74.721,280.818 74.833,280.646 74.833 C 280.474 74.833,280.333 74.913,280.333 75.010 C 280.333 75.107,280.258 75.140,280.165 75.083 C 280.073 75.026,279.953 75.096,279.898 75.239 C 279.839 75.394,279.599 75.500,279.310 75.500 C 279.031 75.500,278.782 75.607,278.727 75.750 C 278.655 75.936,278.358 76.000,277.560 76.000 C 276.762 76.000,276.465 76.064,276.394 76.250 C 276.313 76.460,275.802 76.500,273.220 76.500 C 270.707 76.500,270.097 76.454,269.893 76.250 C 269.719 76.076,269.292 76.000,268.488 76.000 C 267.573 76.000,267.333 75.948,267.333 75.750 C 267.333 75.599,267.179 75.500,266.942 75.500 C 266.728 75.500,266.414 75.347,266.245 75.161 C 266.076 74.974,265.847 74.856,265.737 74.899 C 265.627 74.941,265.381 74.831,265.192 74.654 C 265.002 74.478,264.769 74.333,264.674 74.333 C 264.578 74.333,264.500 74.221,264.500 74.083 C 264.500 73.946,264.396 73.833,264.269 73.833 C 264.143 73.833,264.000 73.683,263.952 73.500 C 263.904 73.317,263.745 73.167,263.599 73.167 C 263.453 73.167,263.333 73.086,263.333 72.988 C 263.333 72.890,263.221 72.697,263.083 72.560 C 262.946 72.422,262.833 72.135,262.833 71.923 C 262.833 71.710,262.730 71.496,262.604 71.448 C 262.478 71.399,262.324 71.016,262.261 70.597 C 262.186 70.097,262.063 69.833,261.906 69.833 C 261.733 69.833,261.667 69.624,261.667 69.078 C 261.667 68.561,261.588 68.293,261.417 68.227 C 261.218 68.151,261.167 67.798,261.167 66.514 C 261.167 65.350,261.098 64.806,260.922 64.574 C 260.710 64.293,260.677 61.236,260.672 41.470 C 260.667 20.988,260.640 18.664,260.405 18.429 C 260.132 18.156,250.876 18.013,250.611 18.278 M150.955 30.236 C 150.805 30.385,150.220 30.499,149.355 30.547 C 148.412 30.599,147.899 30.706,147.691 30.895 C 147.495 31.072,147.092 31.167,146.529 31.167 C 145.874 31.167,145.667 31.227,145.667 31.417 C 145.667 31.605,145.464 31.667,144.845 31.667 C 144.169 31.667,144.004 31.726,143.917 32.000 C 143.834 32.259,143.664 32.333,143.150 32.333 C 142.717 32.333,142.457 32.419,142.394 32.583 C 142.341 32.721,142.156 32.833,141.982 32.833 C 141.809 32.833,141.667 32.946,141.667 33.083 C 141.667 33.221,141.523 33.333,141.347 33.333 C 140.850 33.333,140.500 33.513,140.500 33.768 C 140.500 33.896,140.387 34.000,140.250 34.000 C 140.112 34.000,140.000 34.112,140.000 34.250 C 140.000 34.387,139.885 34.500,139.745 34.500 C 139.604 34.500,139.449 34.605,139.400 34.734 C 139.351 34.862,139.161 35.006,138.979 35.054 C 138.797 35.101,138.562 35.366,138.458 35.643 C 138.354 35.919,138.133 36.180,137.968 36.223 C 137.802 36.267,137.667 36.422,137.667 36.568 C 137.667 36.714,137.554 36.833,137.417 36.833 C 137.279 36.833,137.167 36.946,137.167 37.083 C 137.167 37.221,137.054 37.333,136.917 37.333 C 136.742 37.333,136.667 37.509,136.667 37.917 C 136.667 38.389,136.603 38.500,136.333 38.500 C 136.077 38.500,136.000 38.611,136.000 38.982 C 136.000 39.257,135.893 39.506,135.750 39.560 C 135.607 39.615,135.500 39.864,135.500 40.144 C 135.500 40.423,135.393 40.672,135.250 40.727 C 135.064 40.798,135.000 41.095,135.000 41.892 C 135.000 42.821,134.956 42.973,134.667 43.048 C 134.379 43.123,134.333 43.276,134.333 44.151 L 134.333 45.167 135.480 45.167 C 136.295 45.167,136.686 45.239,136.833 45.417 C 137.006 45.625,137.659 45.667,140.770 45.667 L 144.500 45.667 144.500 45.161 C 144.500 44.866,144.604 44.616,144.750 44.560 C 144.925 44.493,145.000 44.220,145.000 43.649 C 145.000 43.035,145.062 42.833,145.250 42.833 C 145.414 42.833,145.500 42.669,145.500 42.353 C 145.500 42.012,145.597 41.847,145.833 41.785 C 146.033 41.733,146.167 41.558,146.167 41.349 C 146.167 41.157,146.240 41.000,146.330 41.000 C 146.420 41.000,146.541 40.813,146.598 40.583 C 146.656 40.354,146.793 40.167,146.903 40.167 C 147.014 40.167,147.265 40.017,147.462 39.833 C 147.658 39.650,147.935 39.500,148.076 39.500 C 148.218 39.500,148.333 39.387,148.333 39.250 C 148.333 39.077,148.507 39.000,148.896 39.000 C 149.206 39.000,149.553 38.887,149.667 38.750 C 149.781 38.612,150.109 38.499,150.395 38.498 C 151.168 38.494,151.667 38.324,151.667 38.064 C 151.667 37.876,152.248 37.833,154.833 37.833 C 157.429 37.833,158.000 37.875,158.000 38.066 C 158.000 38.354,158.362 38.500,159.079 38.500 C 159.416 38.500,159.668 38.597,159.727 38.750 C 159.783 38.896,160.033 39.000,160.328 39.000 C 160.666 39.000,160.833 39.083,160.833 39.250 C 160.833 39.417,161.000 39.500,161.333 39.500 C 161.680 39.500,161.833 39.582,161.833 39.766 C 161.833 39.912,161.983 40.070,162.167 40.118 C 162.350 40.166,162.500 40.309,162.500 40.436 C 162.500 40.563,162.612 40.667,162.750 40.667 C 162.887 40.667,163.000 40.779,163.000 40.917 C 163.000 41.054,163.112 41.167,163.250 41.167 C 163.425 41.167,163.500 41.343,163.500 41.750 C 163.500 42.222,163.563 42.333,163.833 42.333 C 164.118 42.333,164.167 42.444,164.167 43.089 C 164.167 43.606,164.245 43.874,164.417 43.940 C 164.602 44.011,164.667 44.306,164.667 45.083 C 164.667 45.861,164.731 46.156,164.917 46.227 C 165.124 46.306,165.167 46.755,165.167 48.828 L 165.167 51.333 157.758 51.333 C 151.624 51.333,150.327 51.373,150.217 51.564 C 150.121 51.730,149.595 51.814,148.357 51.862 C 146.973 51.917,146.589 51.986,146.422 52.215 C 146.264 52.431,145.963 52.500,145.185 52.500 C 144.424 52.500,144.131 52.565,144.060 52.750 C 143.993 52.924,143.722 53.000,143.167 53.000 C 142.611 53.000,142.340 53.076,142.273 53.250 C 142.220 53.387,142.035 53.500,141.861 53.500 C 141.687 53.500,141.354 53.650,141.121 53.833 C 140.888 54.017,140.541 54.167,140.349 54.167 C 140.150 54.167,140.000 54.274,140.000 54.417 C 140.000 54.585,139.832 54.667,139.484 54.667 C 139.109 54.667,138.945 54.757,138.882 55.000 C 138.830 55.196,138.654 55.333,138.454 55.333 C 138.266 55.333,137.919 55.546,137.682 55.805 C 137.444 56.065,137.119 56.325,136.958 56.383 C 136.798 56.442,136.667 56.604,136.667 56.745 C 136.667 56.889,136.522 57.000,136.333 57.000 C 136.150 57.000,136.000 57.104,136.000 57.232 C 136.000 57.360,135.887 57.508,135.750 57.560 C 135.612 57.613,135.500 57.763,135.500 57.894 C 135.500 58.024,135.387 58.174,135.250 58.227 C 135.112 58.280,135.000 58.513,135.000 58.745 C 135.000 59.056,134.912 59.167,134.667 59.167 C 134.407 59.167,134.333 59.278,134.333 59.672 C 134.333 59.967,134.229 60.217,134.083 60.273 C 133.946 60.326,133.833 60.537,133.833 60.742 C 133.833 60.947,133.683 61.251,133.500 61.417 C 133.317 61.583,133.167 61.897,133.167 62.114 C 133.167 62.332,133.054 62.554,132.917 62.606 C 132.731 62.678,132.667 62.972,132.667 63.747 C 132.667 64.473,132.590 64.856,132.417 65.000 C 132.207 65.174,132.167 65.853,132.167 69.187 C 132.167 72.613,132.201 73.167,132.417 73.167 C 132.615 73.167,132.667 73.406,132.667 74.321 C 132.667 75.080,132.745 75.555,132.896 75.706 C 133.023 75.832,133.180 76.180,133.245 76.479 C 133.311 76.778,133.470 77.063,133.599 77.112 C 133.728 77.162,133.833 77.422,133.833 77.690 C 133.833 77.969,133.940 78.218,134.083 78.273 C 134.221 78.326,134.333 78.555,134.333 78.783 C 134.333 79.058,134.446 79.227,134.667 79.285 C 134.851 79.333,135.000 79.512,135.000 79.686 C 135.000 79.859,135.112 80.000,135.250 80.000 C 135.387 80.000,135.500 80.112,135.500 80.250 C 135.500 80.387,135.612 80.500,135.750 80.500 C 135.887 80.500,136.000 80.604,136.000 80.732 C 136.000 80.860,136.113 81.008,136.251 81.061 C 136.390 81.114,136.590 81.349,136.697 81.583 C 136.803 81.817,137.065 82.052,137.279 82.105 C 137.492 82.159,137.667 82.307,137.667 82.435 C 137.667 82.562,137.800 82.667,137.963 82.667 C 138.126 82.667,138.388 82.817,138.545 83.000 C 138.702 83.183,138.981 83.333,139.165 83.333 C 139.352 83.333,139.500 83.444,139.500 83.583 C 139.500 83.762,139.682 83.833,140.141 83.833 C 140.570 83.833,140.881 83.943,141.083 84.167 C 141.314 84.421,141.597 84.500,142.281 84.500 C 142.924 84.500,143.204 84.571,143.273 84.750 C 143.412 85.111,152.833 85.129,152.833 84.768 C 152.833 84.596,153.160 84.520,154.097 84.473 C 155.077 84.423,155.397 84.344,155.522 84.121 C 155.625 83.938,155.886 83.833,156.240 83.833 C 156.582 83.833,156.835 83.737,156.894 83.583 C 156.946 83.446,157.186 83.333,157.427 83.333 C 157.724 83.333,157.892 83.227,157.952 83.000 C 158.013 82.764,158.179 82.667,158.519 82.667 C 158.835 82.667,159.000 82.581,159.000 82.417 C 159.000 82.270,159.155 82.164,159.375 82.161 C 159.771 82.156,160.667 81.471,160.667 81.175 C 160.667 81.079,160.817 81.000,161.000 81.000 C 161.185 81.000,161.333 80.889,161.333 80.750 C 161.333 80.612,161.446 80.500,161.583 80.500 C 161.721 80.500,161.833 80.387,161.833 80.250 C 161.833 80.112,161.946 80.000,162.083 80.000 C 162.222 80.000,162.333 79.852,162.333 79.667 C 162.333 79.444,162.444 79.333,162.667 79.333 C 162.852 79.333,163.000 79.222,163.000 79.083 C 163.000 78.946,163.112 78.833,163.250 78.833 C 163.389 78.833,163.500 78.685,163.500 78.500 C 163.500 78.317,163.607 78.167,163.737 78.167 C 163.867 78.167,164.023 77.942,164.083 77.667 C 164.144 77.392,164.300 77.167,164.430 77.167 C 164.560 77.167,164.667 77.017,164.667 76.833 C 164.667 76.648,164.778 76.500,164.917 76.500 C 165.085 76.500,165.167 76.332,165.167 75.988 C 165.167 75.590,165.232 75.488,165.458 75.531 C 165.706 75.579,165.757 75.814,165.799 77.083 C 165.835 78.181,165.912 78.614,166.090 78.714 C 166.224 78.789,166.333 79.074,166.333 79.347 C 166.333 79.635,166.438 79.884,166.583 79.940 C 166.721 79.992,166.833 80.222,166.833 80.450 C 166.833 80.724,166.946 80.894,167.167 80.952 C 167.388 81.009,167.500 81.179,167.500 81.454 C 167.500 81.939,168.120 82.660,168.540 82.664 C 168.700 82.665,168.924 82.817,169.039 83.000 C 169.153 83.183,169.333 83.333,169.439 83.333 C 169.545 83.333,169.674 83.446,169.727 83.583 C 169.783 83.729,170.033 83.833,170.328 83.833 C 170.646 83.833,170.833 83.918,170.833 84.063 C 170.833 84.651,180.917 84.750,181.500 84.167 C 181.683 83.983,182.021 83.833,182.250 83.833 L 182.667 83.833 182.667 80.750 C 182.667 78.403,182.617 77.663,182.458 77.651 C 182.344 77.642,181.181 77.649,179.875 77.665 C 177.807 77.691,177.500 77.660,177.500 77.430 C 177.500 77.285,177.385 77.167,177.245 77.167 C 177.104 77.167,176.946 77.054,176.894 76.917 C 176.841 76.779,176.710 76.667,176.603 76.667 C 176.262 76.667,175.833 76.015,175.833 75.498 C 175.833 75.166,175.750 75.000,175.583 75.000 C 175.378 75.000,175.333 74.708,175.333 73.370 C 175.333 72.208,175.263 71.641,175.089 71.392 C 174.879 71.093,174.837 69.002,174.797 56.843 C 174.753 43.521,174.732 42.633,174.458 42.480 C 174.248 42.362,174.167 42.108,174.167 41.570 C 174.167 41.060,174.087 40.792,173.917 40.727 C 173.762 40.668,173.667 40.414,173.667 40.064 C 173.667 39.703,173.545 39.393,173.333 39.211 C 173.148 39.053,173.000 38.720,173.000 38.463 C 173.000 38.163,172.912 38.000,172.750 38.000 C 172.611 38.000,172.500 37.852,172.500 37.667 C 172.500 37.483,172.393 37.333,172.263 37.333 C 172.133 37.333,171.977 37.108,171.917 36.833 C 171.856 36.558,171.700 36.333,171.570 36.333 C 171.440 36.333,171.333 36.183,171.333 36.000 C 171.333 35.815,171.222 35.667,171.083 35.667 C 170.946 35.667,170.833 35.582,170.833 35.477 C 170.833 35.255,170.054 34.500,169.825 34.500 C 169.738 34.500,169.667 34.387,169.667 34.250 C 169.667 34.111,169.519 34.000,169.333 34.000 C 169.150 34.000,169.000 33.893,169.000 33.763 C 169.000 33.633,168.775 33.477,168.500 33.417 C 168.225 33.356,168.000 33.200,168.000 33.070 C 168.000 32.940,167.859 32.833,167.687 32.833 C 167.515 32.833,167.281 32.721,167.167 32.583 C 167.053 32.446,166.715 32.333,166.416 32.333 C 166.012 32.333,165.850 32.247,165.785 32.000 C 165.719 31.747,165.558 31.667,165.119 31.667 C 164.801 31.667,164.447 31.554,164.333 31.417 C 164.199 31.255,163.830 31.167,163.290 31.167 C 162.712 31.167,162.392 31.083,162.257 30.898 C 162.115 30.703,161.698 30.607,160.755 30.552 C 159.939 30.504,159.362 30.386,159.214 30.237 C 158.865 29.889,151.303 29.888,150.955 30.236 M165.167 61.422 C 165.167 63.717,165.125 64.193,164.917 64.273 C 164.745 64.339,164.665 64.612,164.661 65.143 C 164.658 65.568,164.546 66.062,164.411 66.240 C 164.277 66.418,164.167 66.774,164.167 67.032 C 164.167 67.289,164.017 67.650,163.833 67.833 C 163.627 68.040,163.500 68.389,163.500 68.750 C 163.500 69.157,163.425 69.333,163.250 69.333 C 163.076 69.333,163.000 69.509,163.000 69.911 C 163.000 70.332,162.938 70.466,162.772 70.402 C 162.637 70.350,162.507 70.454,162.454 70.657 C 162.405 70.846,162.245 71.000,162.099 71.000 C 161.949 71.000,161.833 71.138,161.833 71.316 C 161.833 71.489,161.721 71.674,161.583 71.727 C 161.446 71.780,161.333 72.013,161.333 72.245 C 161.333 72.514,161.240 72.667,161.076 72.667 C 160.935 72.667,160.474 73.042,160.051 73.500 C 159.629 73.958,159.138 74.333,158.960 74.333 C 158.776 74.333,158.598 74.477,158.549 74.665 C 158.501 74.847,158.390 74.951,158.301 74.897 C 158.212 74.842,158.029 74.955,157.894 75.149 C 157.758 75.343,157.466 75.500,157.241 75.500 C 156.990 75.500,156.833 75.596,156.833 75.750 C 156.833 75.916,156.668 76.000,156.342 76.000 C 156.071 76.000,155.790 76.101,155.717 76.226 C 155.643 76.350,155.259 76.493,154.862 76.545 C 154.465 76.596,154.015 76.747,153.862 76.880 C 153.293 77.375,147.167 77.397,147.167 76.905 C 147.167 76.789,146.947 76.645,146.678 76.586 C 146.410 76.527,146.100 76.371,145.991 76.239 C 145.882 76.108,145.614 76.000,145.396 76.000 C 145.155 76.000,145.000 75.902,145.000 75.750 C 145.000 75.612,144.896 75.500,144.769 75.500 C 144.643 75.500,144.499 75.348,144.450 75.162 C 144.402 74.976,144.262 74.845,144.139 74.870 C 143.997 74.900,143.898 74.721,143.864 74.375 C 143.832 74.039,143.721 73.833,143.573 73.833 C 143.441 73.833,143.333 73.693,143.333 73.520 C 143.333 73.348,143.221 73.114,143.083 73.000 C 142.922 72.866,142.833 72.497,142.833 71.964 C 142.833 71.276,142.777 71.121,142.500 71.048 C 142.195 70.968,142.167 70.821,142.167 69.299 C 142.167 67.888,142.217 67.572,142.500 67.212 C 142.747 66.898,142.833 66.536,142.833 65.811 C 142.833 65.053,142.890 64.833,143.083 64.833 C 143.221 64.833,143.333 64.691,143.333 64.518 C 143.333 64.344,143.446 64.159,143.583 64.106 C 143.721 64.054,143.833 63.821,143.833 63.589 C 143.833 63.314,143.926 63.167,144.099 63.167 C 144.245 63.167,144.404 63.017,144.452 62.833 C 144.500 62.650,144.643 62.500,144.769 62.500 C 144.896 62.500,145.000 62.425,145.000 62.333 C 145.000 62.116,145.532 61.587,145.888 61.451 C 146.041 61.392,146.167 61.229,146.167 61.089 C 146.167 60.916,146.329 60.833,146.667 60.833 C 146.982 60.833,147.167 60.748,147.167 60.602 C 147.167 60.469,147.416 60.324,147.750 60.261 C 148.099 60.195,148.333 60.054,148.333 59.909 C 148.333 59.739,148.525 59.667,148.980 59.667 C 149.351 59.667,149.714 59.560,149.833 59.417 C 149.989 59.229,150.408 59.167,151.514 59.167 C 152.597 59.167,153.044 59.102,153.202 58.923 C 153.382 58.718,154.352 58.678,159.292 58.673 L 165.167 58.667 165.167 61.422 " stroke="none" fill="#3cabfc" fill-rule="evenodd"></path><path id="path1" d="M340.273 15.751 C 339.957 15.915,339.307 16.000,338.356 16.001 C 337.468 16.002,336.750 16.089,336.482 16.229 C 336.243 16.354,335.629 16.508,335.119 16.572 C 334.608 16.636,334.101 16.795,333.991 16.927 C 333.882 17.059,333.511 17.167,333.167 17.167 C 332.814 17.167,332.450 17.276,332.333 17.417 C 332.219 17.554,331.854 17.667,331.521 17.668 C 331.189 17.668,330.692 17.818,330.417 18.000 C 330.142 18.182,329.748 18.332,329.542 18.332 C 329.320 18.333,329.167 18.436,329.167 18.583 C 329.167 18.756,328.993 18.833,328.604 18.833 C 328.294 18.833,327.947 18.946,327.833 19.083 C 327.719 19.221,327.497 19.333,327.339 19.333 C 327.181 19.333,326.916 19.483,326.750 19.667 C 326.582 19.853,326.237 20.000,325.969 20.000 C 325.697 20.000,325.448 20.108,325.394 20.250 C 325.341 20.387,325.186 20.500,325.050 20.500 C 324.914 20.500,324.612 20.650,324.379 20.833 C 324.146 21.017,323.853 21.167,323.728 21.167 C 323.602 21.167,323.500 21.279,323.500 21.417 C 323.500 22.028,322.593 21.584,321.540 20.458 C 321.304 20.206,321.011 20.000,320.889 20.000 C 320.767 20.000,320.517 19.850,320.333 19.667 C 320.150 19.483,319.859 19.333,319.687 19.333 C 319.515 19.333,319.281 19.221,319.167 19.083 C 319.053 18.946,318.750 18.833,318.493 18.833 C 318.237 18.833,318.000 18.751,317.967 18.651 C 317.907 18.471,317.224 18.285,315.583 18.002 C 314.281 17.777,312.660 17.810,311.610 18.083 C 311.082 18.221,310.476 18.333,310.262 18.333 C 310.049 18.333,309.781 18.446,309.667 18.583 C 309.553 18.721,309.241 18.833,308.974 18.833 C 308.697 18.833,308.448 18.940,308.394 19.083 C 308.341 19.221,308.156 19.333,307.982 19.333 C 307.809 19.333,307.517 19.483,307.333 19.667 C 307.150 19.850,306.897 20.000,306.770 20.000 C 306.644 20.000,306.447 20.112,306.333 20.250 C 306.219 20.387,306.050 20.500,305.957 20.500 C 305.750 20.500,305.000 21.290,305.000 21.509 C 305.000 21.596,304.906 21.668,304.792 21.670 C 304.538 21.673,303.833 22.392,303.833 22.648 C 303.833 22.750,303.737 22.833,303.620 22.833 C 303.502 22.833,303.317 23.040,303.207 23.292 C 303.097 23.544,302.822 24.050,302.594 24.417 C 302.367 24.783,302.178 25.243,302.174 25.438 C 302.170 25.633,302.056 25.884,301.921 25.996 C 301.786 26.108,301.628 26.474,301.569 26.808 C 301.510 27.143,301.359 27.583,301.231 27.786 C 300.897 28.319,300.904 33.157,301.240 33.891 C 301.372 34.180,301.563 34.735,301.663 35.125 C 301.764 35.515,301.918 35.833,302.006 35.833 C 302.095 35.833,302.167 36.012,302.167 36.230 C 302.167 36.448,302.279 36.719,302.417 36.833 C 302.554 36.947,302.667 37.149,302.667 37.282 C 302.667 37.538,303.287 38.426,304.041 39.250 C 304.293 39.525,304.499 39.806,304.499 39.875 C 304.500 39.944,304.612 40.000,304.750 40.000 C 304.887 40.000,305.000 40.079,305.000 40.175 C 305.000 40.366,305.836 41.153,306.048 41.161 C 306.895 41.195,307.542 42.814,306.917 43.333 C 306.746 43.475,306.667 43.853,306.667 44.520 C 306.667 45.059,306.601 45.500,306.520 45.500 C 305.784 45.500,305.681 58.650,306.409 59.762 C 306.553 59.982,306.667 60.516,306.667 60.974 C 306.667 61.498,306.757 61.867,306.917 62.000 C 307.068 62.126,307.167 62.491,307.167 62.925 C 307.167 63.320,307.270 63.746,307.397 63.873 C 307.523 63.999,307.679 64.413,307.743 64.792 C 307.807 65.171,307.966 65.569,308.096 65.677 C 308.227 65.786,308.333 66.043,308.333 66.250 C 308.333 66.457,308.446 66.719,308.583 66.833 C 308.721 66.947,308.833 67.209,308.833 67.415 C 308.833 67.620,308.983 67.979,309.167 68.212 C 309.350 68.445,309.500 68.714,309.500 68.810 C 309.500 68.905,309.594 69.043,309.708 69.117 C 309.966 69.281,310.280 69.770,310.519 70.375 C 310.618 70.627,310.769 70.833,310.854 70.833 C 310.939 70.833,311.085 71.002,311.178 71.208 C 311.510 71.942,311.812 72.392,312.071 72.536 C 312.215 72.617,312.333 72.792,312.333 72.925 C 312.333 73.058,312.446 73.167,312.583 73.167 C 312.721 73.167,312.833 73.247,312.833 73.346 C 312.833 73.570,314.199 75.333,314.373 75.333 C 314.443 75.333,314.500 75.405,314.500 75.492 C 314.500 75.699,315.301 76.500,315.508 76.500 C 315.595 76.500,315.667 76.612,315.667 76.750 C 315.667 76.887,315.775 77.000,315.908 77.000 C 316.041 77.000,316.210 77.095,316.283 77.211 C 316.493 77.543,318.109 78.833,318.315 78.833 C 318.417 78.833,318.500 78.946,318.500 79.083 C 318.500 79.221,318.604 79.333,318.732 79.333 C 318.860 79.333,319.008 79.446,319.060 79.583 C 319.113 79.721,319.259 79.833,319.386 79.833 C 319.512 79.833,319.751 79.983,319.917 80.167 C 320.083 80.350,320.325 80.500,320.454 80.500 C 320.584 80.500,320.803 80.613,320.940 80.750 C 321.078 80.888,321.335 81.000,321.512 81.000 C 321.689 81.000,321.833 81.062,321.833 81.137 C 321.833 81.317,323.135 82.167,323.411 82.167 C 323.529 82.167,323.719 82.279,323.833 82.417 C 323.947 82.554,324.174 82.667,324.336 82.667 C 324.498 82.667,324.671 82.772,324.721 82.901 C 324.770 83.030,325.060 83.189,325.364 83.256 C 325.668 83.322,326.065 83.479,326.245 83.605 C 326.426 83.730,326.774 83.833,327.019 83.833 C 327.264 83.833,327.508 83.946,327.560 84.083 C 327.614 84.223,327.862 84.333,328.122 84.333 C 328.379 84.333,328.868 84.483,329.210 84.667 C 329.552 84.850,329.936 85.000,330.062 85.000 C 330.189 85.000,330.386 85.112,330.500 85.250 C 330.620 85.394,330.983 85.500,331.360 85.500 C 331.718 85.500,332.178 85.604,332.381 85.730 C 332.584 85.857,333.197 86.010,333.744 86.069 C 334.290 86.129,334.793 86.267,334.860 86.377 C 334.933 86.495,335.513 86.599,336.283 86.633 C 336.998 86.664,337.820 86.797,338.109 86.928 C 338.876 87.277,349.454 87.278,350.225 86.929 C 350.514 86.799,351.437 86.664,352.277 86.629 C 353.170 86.592,353.909 86.478,354.057 86.355 C 354.196 86.240,354.735 86.101,355.253 86.048 C 355.816 85.990,356.231 85.860,356.283 85.725 C 356.337 85.584,356.638 85.500,357.088 85.500 C 357.483 85.500,358.019 85.395,358.278 85.266 C 359.598 84.611,360.329 84.333,360.732 84.333 C 360.977 84.333,361.220 84.221,361.273 84.083 C 361.326 83.946,361.543 83.833,361.756 83.833 C 361.969 83.833,362.244 83.732,362.367 83.609 C 362.491 83.485,362.864 83.333,363.196 83.271 C 363.528 83.209,363.892 83.047,364.004 82.912 C 364.116 82.777,364.313 82.667,364.442 82.667 C 364.571 82.667,364.720 82.554,364.773 82.417 C 364.826 82.279,365.004 82.167,365.170 82.167 C 365.509 82.167,366.833 81.347,366.833 81.137 C 366.833 81.062,366.986 81.000,367.172 81.000 C 367.358 81.000,367.554 80.887,367.606 80.750 C 367.659 80.612,367.833 80.500,367.992 80.500 C 368.151 80.500,368.417 80.350,368.583 80.167 C 368.749 79.983,368.986 79.833,369.109 79.833 C 369.232 79.833,369.333 79.721,369.333 79.583 C 369.333 79.446,369.446 79.333,369.583 79.333 C 369.721 79.333,370.002 79.180,370.208 78.992 C 370.415 78.805,370.702 78.542,370.847 78.409 C 370.993 78.276,371.160 78.167,371.220 78.167 C 371.340 78.167,373.833 75.705,373.833 75.586 C 373.833 75.544,374.054 75.264,374.324 74.964 C 375.755 73.370,376.167 72.862,376.167 72.690 C 376.167 72.585,376.238 72.500,376.324 72.500 C 376.475 72.500,376.784 72.018,377.154 71.208 C 377.248 71.002,377.395 70.833,377.480 70.833 C 377.565 70.833,377.712 70.608,377.808 70.333 C 377.904 70.058,378.062 69.833,378.158 69.833 C 378.254 69.833,378.333 69.690,378.333 69.515 C 378.333 69.339,378.596 68.797,378.917 68.310 C 379.284 67.752,379.500 67.222,379.500 66.879 C 379.500 66.524,379.581 66.333,379.731 66.333 C 379.863 66.333,380.009 66.087,380.070 65.762 C 380.129 65.448,380.259 65.164,380.360 65.130 C 380.460 65.097,380.580 64.680,380.625 64.204 C 380.671 63.729,380.812 63.254,380.938 63.149 C 381.064 63.045,381.167 62.703,381.167 62.390 C 381.167 62.078,381.271 61.655,381.399 61.452 C 381.773 60.856,382.231 54.705,382.114 51.833 C 381.959 48.038,381.638 44.783,381.389 44.487 C 381.266 44.342,381.167 43.963,381.167 43.644 C 381.167 43.325,381.057 42.918,380.922 42.740 C 380.537 42.231,380.618 41.883,381.167 41.692 C 381.442 41.596,381.667 41.438,381.667 41.342 C 381.667 41.246,381.748 41.167,381.848 41.167 C 382.025 41.167,384.500 38.734,384.500 38.560 C 384.500 38.512,384.762 38.152,385.083 37.761 C 385.404 37.369,385.667 36.935,385.667 36.795 C 385.667 36.655,385.779 36.447,385.917 36.333 C 386.054 36.219,386.167 36.002,386.167 35.850 C 386.167 35.698,386.293 35.393,386.448 35.172 C 386.641 34.897,386.752 34.321,386.800 33.343 C 386.838 32.559,386.936 31.845,387.018 31.758 C 387.220 31.543,387.207 30.544,387.000 30.417 C 386.908 30.360,386.833 29.623,386.833 28.779 C 386.833 27.563,386.764 27.116,386.500 26.623 C 386.317 26.281,386.167 25.896,386.167 25.768 C 386.167 25.640,386.054 25.492,385.917 25.440 C 385.779 25.387,385.667 25.177,385.667 24.973 C 385.667 24.580,384.889 23.333,384.644 23.333 C 384.565 23.333,384.500 23.235,384.500 23.115 C 384.500 22.810,382.215 20.500,381.913 20.500 C 381.778 20.500,381.667 20.429,381.667 20.342 C 381.667 20.196,381.376 20.005,380.333 19.468 C 380.104 19.350,379.818 19.159,379.696 19.044 C 379.575 18.928,379.227 18.833,378.923 18.833 C 378.584 18.833,378.332 18.736,378.273 18.583 C 378.220 18.446,377.969 18.331,377.714 18.327 C 377.459 18.324,376.800 18.213,376.250 18.080 C 374.956 17.768,373.318 17.769,372.110 18.083 C 371.582 18.221,370.964 18.333,370.737 18.333 C 370.509 18.333,370.280 18.446,370.227 18.583 C 370.169 18.735,369.917 18.833,369.586 18.833 C 369.286 18.833,368.947 18.946,368.833 19.083 C 368.719 19.221,368.499 19.333,368.344 19.333 C 368.190 19.333,367.902 19.483,367.705 19.667 C 367.508 19.850,367.229 20.000,367.085 20.000 C 366.941 20.000,366.780 20.112,366.727 20.250 C 366.674 20.387,366.527 20.500,366.399 20.500 C 366.271 20.500,366.167 20.612,366.167 20.750 C 366.167 20.887,366.078 21.000,365.969 21.000 C 365.860 21.000,365.602 21.159,365.396 21.353 L 365.020 21.706 364.571 21.353 C 364.324 21.159,364.051 21.000,363.966 21.000 C 363.880 21.000,363.697 20.887,363.560 20.750 C 363.422 20.612,363.173 20.500,363.006 20.500 C 362.839 20.500,362.659 20.387,362.606 20.250 C 362.554 20.112,362.321 20.000,362.089 20.000 C 361.857 20.000,361.517 19.850,361.333 19.667 C 361.150 19.483,360.882 19.333,360.738 19.333 C 360.594 19.333,360.364 19.221,360.226 19.083 C 360.089 18.946,359.761 18.833,359.498 18.833 C 359.235 18.833,358.976 18.763,358.923 18.677 C 358.769 18.427,357.057 17.667,356.635 17.661 C 356.423 17.658,356.104 17.546,355.926 17.411 C 355.749 17.277,355.390 17.167,355.129 17.167 C 354.868 17.167,354.489 17.062,354.286 16.935 C 354.083 16.807,353.542 16.650,353.083 16.586 C 352.625 16.521,352.160 16.395,352.051 16.305 C 351.941 16.215,351.116 16.102,350.217 16.055 C 349.319 16.008,348.347 15.864,348.058 15.735 C 347.280 15.387,340.945 15.400,340.273 15.751 M349.417 20.740 C 366.447 23.480,377.525 36.173,377.572 53.000 C 377.615 68.352,368.451 78.765,351.892 82.178 C 339.220 84.791,324.255 80.128,316.853 71.259 C 316.175 70.446,314.167 67.577,314.167 67.421 C 314.167 67.358,313.920 66.881,313.618 66.361 C 312.887 65.101,311.813 62.320,311.227 60.167 L 310.750 58.417 310.755 52.750 L 310.759 47.083 311.383 44.750 C 312.864 39.209,315.494 34.421,319.029 30.833 C 324.364 25.419,329.326 22.731,337.167 21.009 C 337.954 20.836,340.060 20.545,341.333 20.433 C 342.781 20.305,347.932 20.501,349.417 20.740 M326.417 36.422 C 323.334 37.105,320.445 39.705,319.089 43.016 C 318.848 43.603,318.584 44.233,318.501 44.417 C 317.649 46.297,317.909 50.771,319.008 53.131 C 323.024 61.757,335.147 58.765,337.092 48.667 C 338.589 40.899,333.347 34.886,326.417 36.422 M357.305 36.433 C 353.554 37.342,350.922 41.033,350.721 45.667 C 350.640 47.525,350.681 47.859,351.233 49.833 C 353.356 57.423,362.022 60.762,367.019 55.914 C 374.609 48.552,367.352 33.998,357.305 36.433 M331.167 40.094 C 334.461 41.813,333.830 47.652,330.222 48.843 C 325.351 50.450,322.888 43.622,327.190 40.438 C 328.195 39.694,330.086 39.530,331.167 40.094 M360.522 40.180 C 362.072 40.966,363.169 42.858,363.163 44.735 C 363.146 50.364,355.994 50.555,354.841 44.958 C 354.104 41.386,357.412 38.603,360.522 40.180 M340.392 58.349 C 339.113 58.719,338.385 60.309,338.977 61.437 C 339.305 62.060,339.708 62.387,341.943 63.840 C 343.193 64.653,343.334 64.989,343.331 67.150 C 343.327 69.385,343.202 69.586,341.825 69.572 C 340.515 69.559,339.121 68.945,337.055 67.471 C 335.651 66.470,335.292 66.352,334.792 66.732 C 333.205 67.936,337.463 71.202,341.521 71.893 C 344.012 72.318,347.131 72.082,348.750 71.347 C 349.117 71.180,349.717 70.910,350.083 70.745 C 351.487 70.116,353.833 68.104,353.833 67.529 C 353.833 67.206,353.269 66.615,352.804 66.451 C 352.623 66.388,352.137 66.646,351.436 67.176 C 348.542 69.367,345.787 70.288,345.093 69.296 C 344.740 68.793,344.724 65.528,345.071 64.857 C 345.211 64.587,346.024 63.934,347.040 63.274 C 347.992 62.657,348.897 61.937,349.052 61.675 C 349.768 60.463,349.060 58.718,347.701 58.340 C 346.947 58.131,341.121 58.138,340.392 58.349 " stroke="none" fill="#080808" fill-rule="evenodd"></path><path id="path2" d="M340.417 21.343 C 340.050 21.419,339.412 21.485,339.000 21.490 C 336.487 21.523,330.203 23.714,326.724 25.771 C 326.046 26.172,325.452 26.500,325.405 26.500 C 325.257 26.500,323.466 27.858,322.250 28.893 C 319.689 31.072,316.666 34.630,315.363 37.000 C 312.935 41.414,311.833 44.951,311.495 49.417 C 310.555 61.835,315.441 71.529,325.417 77.040 C 327.946 78.437,333.625 80.667,334.656 80.667 C 334.863 80.667,335.269 80.774,335.558 80.906 C 336.079 81.143,337.334 81.381,339.583 81.669 C 341.145 81.869,348.161 81.868,349.417 81.667 C 352.149 81.229,353.294 81.017,353.750 80.861 C 354.025 80.767,354.887 80.524,355.667 80.320 C 356.446 80.116,357.158 79.898,357.250 79.836 C 357.342 79.774,357.903 79.550,358.498 79.338 C 363.897 77.416,369.799 72.797,372.452 68.416 C 373.866 66.080,374.793 64.151,375.332 62.417 C 376.195 59.645,376.235 59.454,376.682 56.031 C 377.002 53.577,376.720 48.309,376.139 45.917 C 376.050 45.550,375.872 44.783,375.742 44.211 C 373.662 35.045,365.379 26.436,355.333 23.000 C 350.824 21.458,343.692 20.665,340.417 21.343 M331.083 35.653 C 336.267 37.288,339.026 42.564,337.930 48.750 C 337.504 51.158,336.120 53.861,334.446 55.555 C 327.508 62.579,317.159 58.245,317.168 48.320 C 317.169 46.654,317.404 45.004,317.770 44.083 C 318.864 41.333,319.491 40.303,321.167 38.500 C 323.487 36.004,328.046 34.695,331.083 35.653 M361.968 35.647 C 365.684 36.676,368.994 39.946,370.173 43.750 C 370.372 44.392,370.620 45.097,370.726 45.317 C 370.984 45.858,370.985 50.697,370.728 51.016 C 370.624 51.145,370.485 51.502,370.419 51.809 C 369.217 57.425,362.698 60.565,357.250 58.151 C 354.471 56.920,351.186 53.106,350.578 50.405 C 350.518 50.136,350.344 49.579,350.193 49.167 C 349.799 48.098,349.817 44.028,350.219 43.105 C 350.374 42.750,350.501 42.337,350.502 42.188 C 350.503 42.039,350.718 41.495,350.980 40.979 C 353.235 36.534,357.572 34.429,361.968 35.647 M328.036 40.844 C 324.821 42.478,325.096 47.731,328.424 48.258 C 331.965 48.819,334.115 43.258,331.213 41.044 C 330.403 40.426,329.029 40.340,328.036 40.844 M357.404 40.727 C 356.223 41.262,355.350 43.084,355.570 44.551 C 356.306 49.461,362.403 49.531,362.372 44.629 C 362.355 41.881,359.611 39.727,357.404 40.727 M347.893 57.584 C 350.472 58.334,350.994 61.329,348.857 63.119 C 348.615 63.322,348.363 63.491,348.297 63.494 C 348.019 63.508,345.864 65.013,345.770 65.259 C 345.637 65.605,345.635 68.225,345.768 68.570 C 346.041 69.282,348.976 68.211,350.559 66.822 C 352.355 65.246,354.195 65.440,354.539 67.240 C 354.763 68.414,352.142 70.866,349.699 71.768 C 349.269 71.927,348.836 72.118,348.738 72.192 C 347.455 73.152,341.395 73.110,339.167 72.125 C 334.405 70.021,332.600 67.866,334.233 66.233 C 335.148 65.319,335.786 65.427,337.530 66.790 C 338.913 67.872,340.661 68.785,341.449 68.837 C 342.550 68.911,342.500 68.994,342.500 67.077 C 342.500 65.018,342.595 65.161,340.231 63.667 C 337.575 61.990,337.095 59.596,339.114 58.103 C 340.150 57.336,345.877 56.998,347.893 57.584 " stroke="none" fill="#f5f5f5" fill-rule="evenodd"></path><path id="path3" d="M341.333 20.433 C 340.060 20.545,337.954 20.836,337.167 21.009 C 329.326 22.731,324.364 25.419,319.029 30.833 C 315.494 34.421,312.864 39.209,311.383 44.750 L 310.759 47.083 310.755 52.750 L 310.750 58.417 311.227 60.167 C 311.813 62.320,312.887 65.101,313.618 66.361 C 313.920 66.881,314.167 67.358,314.167 67.421 C 314.167 67.577,316.175 70.446,316.853 71.259 C 324.255 80.128,339.220 84.791,351.892 82.178 C 362.480 79.996,369.266 75.544,373.888 67.750 C 378.944 59.222,378.988 47.205,373.998 37.719 C 367.986 26.292,354.693 19.257,341.333 20.433 M348.671 21.006 C 350.255 21.200,353.566 21.972,355.083 22.501 C 355.633 22.693,356.346 22.930,356.667 23.027 C 362.076 24.672,369.553 30.777,372.656 36.083 C 374.797 39.745,375.794 42.307,376.612 46.250 C 377.188 49.025,377.299 56.869,376.790 58.833 C 376.636 59.429,376.394 60.434,376.252 61.067 C 375.103 66.179,371.005 72.193,366.284 75.693 C 363.630 77.661,361.641 78.702,357.917 80.074 C 355.379 81.009,353.854 81.403,350.083 82.095 C 343.206 83.357,333.709 81.755,326.333 78.089 C 320.493 75.186,315.898 70.511,313.305 64.833 C 312.480 63.028,311.591 60.195,311.317 58.500 C 310.974 56.384,310.933 49.781,311.248 47.628 C 313.753 30.550,330.329 18.759,348.671 21.006 M325.833 36.142 C 315.518 39.598,314.604 55.812,324.583 58.326 C 333.363 60.537,340.916 49.295,336.467 40.638 C 334.504 36.818,329.778 34.820,325.833 36.142 M356.665 36.223 C 349.505 38.751,348.025 49.324,353.997 55.284 C 363.057 64.325,375.055 53.536,368.921 41.864 C 366.440 37.142,361.067 34.669,356.665 36.223 M330.667 36.412 C 339.144 38.647,339.715 51.795,331.553 56.817 C 325.175 60.741,318.000 56.206,318.000 48.250 C 318.000 47.007,318.273 44.920,318.501 44.417 C 318.584 44.233,318.848 43.603,319.089 43.016 C 319.781 41.325,321.296 39.244,322.485 38.350 C 324.979 36.475,328.101 35.736,330.667 36.412 M361.688 36.433 C 370.617 38.464,373.227 52.474,365.542 57.119 C 360.439 60.203,353.086 56.459,351.233 49.833 C 350.681 47.859,350.640 47.525,350.721 45.667 C 351.004 39.142,355.810 35.096,361.688 36.433 M328.523 39.844 C 324.933 40.559,323.677 46.128,326.609 48.329 C 329.367 50.400,333.337 47.904,333.332 44.103 C 333.328 41.137,331.254 39.301,328.523 39.844 M357.723 39.821 C 355.187 40.449,353.957 43.787,355.292 46.417 C 357.477 50.720,363.148 49.509,363.163 44.735 C 363.173 41.649,360.412 39.156,357.723 39.821 M331.500 40.808 C 332.811 41.839,333.326 43.965,332.681 45.680 C 331.107 49.861,325.791 49.587,325.391 45.305 C 325.037 41.511,328.837 38.713,331.500 40.808 M360.556 40.650 C 363.237 42.307,363.608 46.379,361.230 48.050 C 357.535 50.647,353.102 44.861,356.103 41.356 C 357.284 39.975,359.020 39.700,360.556 40.650 M340.537 57.905 C 337.452 58.897,337.537 61.390,340.728 63.508 C 341.633 64.109,342.476 64.742,342.603 64.915 C 342.954 65.395,342.927 68.881,342.571 69.177 C 341.915 69.721,339.008 68.537,336.970 66.896 C 334.513 64.918,332.750 67.238,335.167 69.270 C 340.446 73.709,348.295 73.606,353.198 69.035 C 355.452 66.934,353.423 65.069,350.982 66.999 C 349.663 68.041,348.262 68.800,347.072 69.117 C 345.475 69.543,345.427 69.487,345.370 67.098 L 345.323 65.149 345.870 64.635 C 346.171 64.353,347.017 63.738,347.750 63.269 C 350.321 61.625,350.548 59.315,348.250 58.167 C 347.224 57.654,341.883 57.473,340.537 57.905 M347.701 58.340 C 349.060 58.718,349.768 60.463,349.052 61.675 C 348.897 61.937,347.992 62.657,347.040 63.274 C 346.024 63.934,345.211 64.587,345.071 64.857 C 344.724 65.528,344.740 68.793,345.093 69.296 C 345.787 70.288,348.542 69.367,351.436 67.176 C 352.137 66.646,352.623 66.388,352.804 66.451 C 353.269 66.615,353.833 67.206,353.833 67.529 C 353.833 68.104,351.487 70.116,350.083 70.745 C 349.717 70.910,349.117 71.180,348.750 71.347 C 347.131 72.082,344.012 72.318,341.521 71.893 C 337.463 71.202,333.205 67.936,334.792 66.732 C 335.292 66.352,335.651 66.470,337.055 67.471 C 339.121 68.945,340.515 69.559,341.825 69.572 C 343.202 69.586,343.327 69.385,343.331 67.150 C 343.334 64.989,343.193 64.653,341.943 63.840 C 339.708 62.387,339.305 62.060,338.977 61.437 C 338.385 60.309,339.113 58.719,340.392 58.349 C 341.121 58.138,346.947 58.131,347.701 58.340 " stroke="none" fill="#676767" fill-rule="evenodd"></path><path id="path4" d="M339.250 21.022 C 327.549 22.494,317.067 30.482,313.036 41.000 C 311.357 45.381,310.950 47.909,311.046 53.362 C 311.133 58.290,311.242 59.001,312.507 62.833 C 313.953 67.213,317.877 72.507,321.742 75.294 C 329.435 80.840,341.345 83.698,350.083 82.095 C 353.854 81.403,355.379 81.009,357.917 80.074 C 361.641 78.702,363.630 77.661,366.284 75.693 C 371.005 72.193,375.103 66.179,376.252 61.067 C 376.394 60.434,376.636 59.429,376.790 58.833 C 377.299 56.869,377.188 49.025,376.612 46.250 C 375.794 42.307,374.797 39.745,372.656 36.083 C 369.553 30.777,362.076 24.672,356.667 23.027 C 356.346 22.930,355.633 22.693,355.083 22.501 C 350.866 21.031,344.161 20.405,339.250 21.022 M347.991 21.342 C 360.672 22.906,370.815 30.589,374.993 41.794 C 375.275 42.552,375.612 43.640,375.742 44.211 C 375.872 44.783,376.050 45.550,376.139 45.917 C 376.720 48.309,377.002 53.577,376.682 56.031 C 376.235 59.454,376.195 59.645,375.332 62.417 C 374.793 64.151,373.866 66.080,372.452 68.416 C 369.799 72.797,363.897 77.416,358.498 79.338 C 357.903 79.550,357.342 79.774,357.250 79.836 C 357.158 79.898,356.446 80.116,355.667 80.320 C 354.887 80.524,354.025 80.767,353.750 80.861 C 353.294 81.017,352.149 81.229,349.417 81.667 C 348.161 81.868,341.145 81.869,339.583 81.669 C 337.334 81.381,336.079 81.143,335.558 80.906 C 335.269 80.774,334.863 80.667,334.656 80.667 C 333.933 80.667,329.501 79.045,327.083 77.896 C 320.088 74.572,314.995 68.870,312.686 61.777 C 310.727 55.761,310.959 47.254,313.243 41.417 C 313.641 40.399,314.654 38.288,315.363 37.000 C 316.666 34.630,319.689 31.072,322.250 28.893 C 323.466 27.858,325.257 26.500,325.405 26.500 C 325.452 26.500,326.046 26.172,326.724 25.771 C 330.203 23.714,336.487 21.523,339.000 21.490 C 339.412 21.485,340.050 21.419,340.417 21.343 C 341.399 21.140,346.345 21.139,347.991 21.342 M326.250 35.598 C 324.555 36.054,322.182 37.408,321.167 38.500 C 319.491 40.303,318.864 41.333,317.770 44.083 C 316.316 47.739,317.319 53.120,319.998 56.042 C 324.705 61.176,333.466 59.269,336.656 52.417 C 337.514 50.574,337.704 50.028,337.930 48.750 C 339.400 40.448,333.391 33.681,326.250 35.598 M356.833 35.719 C 354.244 36.590,352.337 38.304,350.980 40.979 C 350.718 41.495,350.503 42.039,350.502 42.188 C 350.501 42.337,350.374 42.750,350.219 43.105 C 349.817 44.028,349.799 48.098,350.193 49.167 C 350.344 49.579,350.518 50.136,350.578 50.405 C 351.186 53.106,354.471 56.920,357.250 58.151 C 362.698 60.565,369.217 57.425,370.419 51.809 C 370.485 51.502,370.624 51.145,370.728 51.016 C 370.985 50.697,370.984 45.858,370.726 45.317 C 370.620 45.097,370.372 44.392,370.173 43.750 C 368.348 37.860,361.939 34.001,356.833 35.719 M332.355 36.621 C 339.917 40.313,339.432 52.867,331.557 57.271 C 323.146 61.975,314.948 53.680,318.319 43.878 C 320.543 37.416,327.070 34.041,332.355 36.621 M362.374 36.180 C 370.464 38.906,373.312 50.160,367.414 56.095 C 362.305 61.235,353.587 58.187,351.007 50.358 C 348.147 41.679,354.643 33.576,362.374 36.180 M328.917 40.170 C 325.704 40.654,324.178 45.181,326.397 47.641 C 327.753 49.144,330.315 48.965,331.770 47.265 C 334.331 44.272,332.466 39.635,328.917 40.170 M358.083 40.170 C 354.693 40.669,354.087 45.882,357.175 47.989 C 361.121 50.682,364.797 45.335,361.602 41.551 C 360.686 40.466,359.428 39.972,358.083 40.170 M331.213 41.044 C 334.115 43.258,331.965 48.819,328.424 48.258 C 325.096 47.731,324.821 42.478,328.036 40.844 C 329.029 40.340,330.403 40.426,331.213 41.044 M360.520 41.094 C 363.359 43.124,362.817 47.865,359.698 48.284 C 356.523 48.710,354.273 44.135,356.394 41.563 C 357.388 40.357,359.200 40.151,360.520 41.094 M340.311 57.576 C 337.100 58.461,337.057 61.663,340.231 63.667 C 342.595 65.161,342.500 65.018,342.500 67.077 C 342.500 68.994,342.550 68.911,341.449 68.837 C 340.661 68.785,338.913 67.872,337.530 66.790 C 335.786 65.427,335.148 65.319,334.233 66.233 C 332.600 67.866,334.405 70.021,339.167 72.125 C 341.395 73.110,347.455 73.152,348.738 72.192 C 348.836 72.118,349.269 71.927,349.699 71.768 C 352.142 70.866,354.763 68.414,354.539 67.240 C 354.195 65.440,352.355 65.246,350.559 66.822 C 348.976 68.211,346.041 69.282,345.768 68.570 C 345.635 68.225,345.637 65.605,345.770 65.259 C 345.864 65.013,348.019 63.508,348.297 63.494 C 348.363 63.491,348.615 63.322,348.857 63.119 C 350.994 61.329,350.472 58.334,347.893 57.584 C 346.788 57.263,341.467 57.257,340.311 57.576 M348.250 58.167 C 350.548 59.315,350.321 61.625,347.750 63.269 C 347.017 63.738,346.171 64.353,345.870 64.635 L 345.323 65.149 345.370 67.098 C 345.427 69.487,345.475 69.543,347.072 69.117 C 348.262 68.800,349.663 68.041,350.982 66.999 C 353.423 65.069,355.452 66.934,353.198 69.035 C 348.790 73.145,341.070 73.688,336.372 70.220 C 334.007 68.474,333.554 67.643,334.395 66.591 C 334.999 65.837,335.768 65.928,336.970 66.896 C 339.008 68.537,341.915 69.721,342.571 69.177 C 342.927 68.881,342.954 65.395,342.603 64.915 C 342.476 64.742,341.633 64.109,340.728 63.508 C 337.537 61.390,337.452 58.897,340.537 57.905 C 341.883 57.473,347.224 57.654,348.250 58.167 " stroke="none" fill="#a4a4a4" fill-rule="evenodd"></path></g>

</symbol>
</svg>
