<svg xmlns="http://www.w3.org/2000/svg"><svg xmlns="http://www.w3.org/2000/svg"><symbol id="mastodon-svg-logo-full" viewBox="100 120 100">
<path id="path0" d="M348.455 62.680 C 348.394 62.778,347.445 62.906,346.346 62.964 C 345.247 63.021,344.242 63.175,344.112 63.305 C 343.981 63.435,343.613 63.542,343.292 63.542 C 342.971 63.542,342.708 63.635,342.708 63.750 C 342.708 63.865,342.333 63.958,341.875 63.958 C 341.417 63.958,341.041 64.029,341.040 64.115 C 341.039 64.201,340.456 64.452,339.745 64.674 C 339.034 64.896,337.856 65.388,337.128 65.768 C 336.399 66.148,335.669 66.458,335.506 66.458 C 335.342 66.458,335.208 66.536,335.208 66.630 C 335.208 66.725,334.644 67.062,333.954 67.381 C 332.604 68.004,332.198 67.928,331.250 66.875 C 331.078 66.684,330.539 66.353,330.052 66.140 C 329.565 65.927,329.167 65.677,329.167 65.585 C 329.167 65.492,328.985 65.417,328.762 65.417 C 328.540 65.417,328.300 65.323,328.229 65.208 C 328.158 65.094,327.830 65.000,327.500 65.000 C 327.170 65.000,326.842 64.906,326.771 64.792 C 326.696 64.670,325.523 64.583,323.958 64.583 C 322.394 64.583,321.221 64.670,321.146 64.792 C 321.075 64.906,320.747 65.000,320.417 65.000 C 320.086 65.000,319.758 65.094,319.688 65.208 C 319.617 65.323,319.377 65.417,319.154 65.417 C 318.932 65.417,318.750 65.500,318.750 65.602 C 318.750 65.705,318.516 65.847,318.229 65.919 C 317.943 65.991,317.708 66.142,317.708 66.254 C 317.708 66.366,317.562 66.458,317.383 66.458 C 317.093 66.458,316.636 66.811,315.458 67.944 C 314.752 68.623,313.958 69.679,313.958 69.941 C 313.958 70.088,313.866 70.208,313.754 70.208 C 313.642 70.208,313.491 70.443,313.419 70.729 C 313.347 71.016,313.205 71.250,313.102 71.250 C 313.000 71.250,312.917 71.578,312.917 71.979 C 312.917 72.380,312.834 72.708,312.732 72.708 C 312.276 72.708,311.854 78.187,312.278 78.611 C 312.400 78.733,312.500 79.043,312.500 79.300 C 312.500 79.557,312.594 79.825,312.708 79.896 C 312.823 79.967,312.917 80.347,312.917 80.741 C 312.917 81.136,313.010 81.458,313.125 81.458 C 313.240 81.458,313.334 81.576,313.334 81.719 C 313.337 82.474,316.082 85.670,317.244 86.269 C 318.154 86.738,318.410 87.052,318.146 87.371 C 318.020 87.522,317.857 88.085,317.784 88.620 C 317.710 89.156,317.569 89.645,317.471 89.705 C 317.372 89.766,317.292 90.743,317.292 91.875 C 317.292 93.023,317.199 93.991,317.083 94.063 C 316.958 94.140,316.875 95.588,316.875 97.708 C 316.875 99.828,316.958 101.277,317.083 101.354 C 317.198 101.425,317.292 102.222,317.292 103.125 C 317.292 104.028,317.373 104.817,317.473 104.879 C 317.572 104.940,317.715 105.458,317.791 106.028 C 317.867 106.599,318.020 107.122,318.131 107.191 C 318.242 107.260,318.333 107.540,318.333 107.813 C 318.333 108.085,318.427 108.367,318.542 108.438 C 318.656 108.508,318.750 108.723,318.750 108.916 C 318.750 109.223,319.417 110.780,320.063 111.979 C 320.186 112.208,320.511 112.813,320.785 113.323 C 321.059 113.833,321.463 114.407,321.683 114.598 C 321.903 114.788,322.083 115.091,322.083 115.270 C 322.083 115.448,322.318 115.779,322.604 116.004 C 322.891 116.230,323.125 116.509,323.125 116.625 C 323.125 117.189,327.731 121.754,328.612 122.064 C 328.745 122.111,328.977 122.322,329.126 122.533 C 329.276 122.744,329.494 122.917,329.610 122.917 C 329.726 122.917,329.952 123.034,330.112 123.177 C 330.725 123.727,330.959 123.878,331.608 124.145 C 331.976 124.296,332.386 124.550,332.519 124.710 C 332.651 124.869,332.982 125.000,333.255 125.000 C 333.527 125.000,333.750 125.094,333.750 125.208 C 333.750 125.323,333.891 125.417,334.063 125.417 C 334.234 125.417,334.375 125.498,334.375 125.597 C 334.375 125.696,334.820 125.938,335.365 126.134 C 335.909 126.331,336.729 126.666,337.188 126.878 C 337.646 127.091,338.255 127.323,338.542 127.395 C 338.828 127.467,339.273 127.614,339.531 127.721 C 341.166 128.402,342.324 128.750,342.957 128.750 C 343.250 128.750,343.888 128.891,344.375 129.063 C 344.862 129.234,345.618 129.375,346.056 129.375 C 346.493 129.375,346.908 129.469,346.979 129.583 C 347.060 129.714,349.338 129.792,353.125 129.792 C 356.912 129.792,359.190 129.714,359.271 129.583 C 359.342 129.469,359.746 129.374,360.169 129.373 C 360.591 129.372,361.398 129.231,361.960 129.060 C 362.523 128.890,363.291 128.750,363.667 128.750 C 364.043 128.750,364.408 128.656,364.479 128.542 C 364.550 128.427,364.818 128.333,365.075 128.333 C 365.332 128.333,365.631 128.253,365.740 128.156 C 365.848 128.058,366.406 127.856,366.979 127.706 C 368.298 127.362,369.583 126.825,369.583 126.618 C 369.583 126.530,369.771 126.458,370.001 126.458 C 370.367 126.458,371.489 125.984,372.813 125.271 C 373.042 125.147,373.581 124.874,374.010 124.663 C 374.440 124.453,374.792 124.208,374.792 124.119 C 374.792 124.031,374.932 123.958,375.104 123.958 C 375.276 123.958,375.417 123.865,375.417 123.750 C 375.417 123.635,375.560 123.542,375.736 123.542 C 375.911 123.542,376.109 123.401,376.175 123.229 C 376.241 123.057,376.424 122.917,376.583 122.917 C 376.742 122.917,376.989 122.729,377.132 122.500 C 377.275 122.271,377.508 122.083,377.650 122.083 C 377.874 122.083,381.823 118.249,382.399 117.473 C 383.538 115.937,384.167 115.025,384.167 114.911 C 384.167 114.835,384.401 114.521,384.688 114.212 C 384.974 113.903,385.208 113.504,385.208 113.325 C 385.208 113.146,385.293 112.911,385.397 112.802 C 385.766 112.415,386.411 111.107,386.554 110.455 C 386.634 110.090,386.786 109.792,386.892 109.792 C 386.997 109.792,387.083 109.610,387.083 109.387 C 387.083 109.165,387.166 108.932,387.268 108.869 C 387.369 108.806,387.500 108.496,387.558 108.180 C 387.616 107.863,387.824 106.948,388.019 106.146 C 388.726 103.239,388.811 102.317,388.809 97.604 C 388.807 92.851,388.692 91.568,388.033 88.958 C 387.554 87.061,387.552 86.856,388.009 86.590 C 388.662 86.211,388.798 86.104,389.948 85.079 C 390.549 84.543,391.042 84.024,391.042 83.925 C 391.042 83.827,391.313 83.462,391.645 83.115 C 391.977 82.768,392.309 82.159,392.384 81.763 C 392.458 81.366,392.608 81.042,392.718 81.042 C 392.827 81.042,392.917 80.854,392.917 80.625 C 392.917 80.396,393.002 80.208,393.107 80.208 C 393.648 80.208,393.649 73.174,393.108 72.615 C 393.003 72.506,392.917 72.248,392.917 72.042 C 392.917 71.835,392.830 71.667,392.725 71.667 C 392.619 71.667,392.474 71.398,392.402 71.070 C 392.330 70.742,392.088 70.277,391.865 70.037 C 391.641 69.797,391.458 69.516,391.458 69.412 C 391.458 69.019,388.954 66.694,388.039 66.237 C 387.513 65.974,387.083 65.682,387.083 65.588 C 387.083 65.494,386.901 65.417,386.679 65.417 C 386.457 65.417,386.217 65.323,386.146 65.208 C 386.075 65.094,385.747 65.000,385.417 65.000 C 385.086 65.000,384.758 64.906,384.688 64.792 C 384.613 64.671,383.492 64.583,382.034 64.583 C 379.718 64.583,378.625 64.746,377.659 65.234 C 377.460 65.334,377.155 65.417,376.982 65.417 C 376.809 65.417,376.667 65.510,376.667 65.625 C 376.667 65.740,376.491 65.833,376.276 65.833 C 376.060 65.833,375.768 65.974,375.625 66.146 C 375.482 66.318,375.253 66.458,375.116 66.458 C 374.979 66.458,374.663 66.669,374.413 66.927 C 373.251 68.128,373.346 68.109,371.979 67.410 C 371.292 67.058,370.698 66.701,370.660 66.615 C 370.622 66.529,370.473 66.458,370.330 66.458 C 370.186 66.458,369.395 66.130,368.571 65.729 C 367.747 65.328,366.992 65.000,366.893 65.000 C 366.795 65.000,366.446 64.860,366.118 64.689 C 365.789 64.518,365.357 64.377,365.156 64.376 C 364.956 64.376,364.792 64.281,364.792 64.167 C 364.792 64.052,364.417 63.958,363.958 63.958 C 363.500 63.958,363.125 63.865,363.125 63.750 C 363.125 63.635,362.863 63.542,362.542 63.542 C 362.221 63.542,361.851 63.434,361.719 63.302 C 361.586 63.169,360.548 63.018,359.385 62.962 C 358.234 62.906,357.292 62.780,357.292 62.680 C 357.292 62.445,348.601 62.444,348.455 62.680 M357.813 66.848 C 358.500 66.955,359.906 67.242,360.938 67.484 C 362.679 67.892,363.284 68.092,364.216 68.566 C 364.415 68.667,364.725 68.750,364.906 68.750 C 365.777 68.750,371.092 71.632,372.876 73.073 C 376.749 76.199,379.047 78.835,381.004 82.396 C 383.342 86.649,384.029 88.896,384.606 94.167 C 384.848 96.380,384.712 102.474,384.399 103.438 C 384.287 103.781,384.090 104.578,383.960 105.208 C 383.830 105.839,383.577 106.729,383.399 107.188 C 383.221 107.646,383.003 108.208,382.915 108.438 C 379.985 116.050,372.005 122.642,363.229 124.701 C 362.427 124.889,361.443 125.121,361.042 125.217 C 356.489 126.309,347.647 126.295,345.576 125.192 C 345.377 125.087,345.008 125.000,344.757 125.000 C 344.506 125.000,344.013 124.910,343.661 124.800 C 341.400 124.091,339.568 123.453,338.804 123.108 C 338.319 122.888,337.863 122.708,337.792 122.708 C 337.508 122.708,334.841 121.359,334.025 120.802 C 333.546 120.476,333.097 120.208,333.026 120.208 C 332.387 120.208,328.251 116.515,326.844 114.688 C 326.580 114.344,326.253 113.948,326.119 113.808 C 325.984 113.667,325.659 113.199,325.396 112.766 C 325.133 112.333,324.857 111.932,324.782 111.875 C 324.464 111.631,322.499 107.307,322.273 106.354 C 322.137 105.781,321.977 105.172,321.915 105.000 C 321.342 103.386,321.217 102.425,321.114 98.854 C 320.990 94.577,321.404 89.792,321.898 89.792 C 322.000 89.792,322.083 89.527,322.083 89.204 C 322.083 88.564,322.654 86.683,322.944 86.365 C 323.044 86.256,323.125 86.036,323.125 85.875 C 323.125 83.768,328.157 76.993,332.249 73.593 C 334.266 71.916,339.913 68.750,340.888 68.750 C 341.090 68.750,341.418 68.667,341.617 68.566 C 342.551 68.091,343.155 67.892,344.896 67.486 C 345.927 67.245,347.467 66.961,348.319 66.855 C 349.170 66.748,349.920 66.607,349.985 66.540 C 350.153 66.369,356.307 66.611,357.813 66.848 M335.833 81.563 C 328.212 83.684,325.042 94.742,330.472 100.264 C 332.295 102.118,336.237 103.462,337.785 102.759 C 338.030 102.648,338.745 102.389,339.375 102.184 C 340.420 101.845,341.835 100.973,343.090 99.896 C 346.611 96.875,347.725 89.656,345.306 85.529 C 343.338 82.171,339.469 80.551,335.833 81.563 M365.517 81.538 C 365.056 81.666,364.324 81.982,363.890 82.240 C 363.456 82.497,363.040 82.708,362.965 82.708 C 362.602 82.708,360.866 84.838,360.330 85.941 C 359.997 86.627,359.641 87.357,359.540 87.565 C 358.868 88.940,358.886 93.320,359.569 94.773 C 361.754 99.422,363.455 101.186,366.896 102.374 C 368.508 102.930,369.821 103.056,370.667 102.735 C 370.930 102.636,371.708 102.382,372.396 102.171 C 373.710 101.769,376.266 99.540,376.797 98.333 C 377.570 96.574,377.708 96.196,377.708 95.839 C 377.708 95.620,377.802 95.383,377.917 95.313 C 378.033 95.241,378.122 94.293,378.119 93.165 C 378.098 85.820,371.616 79.839,365.517 81.538 M340.274 85.235 C 343.461 86.883,343.272 91.465,339.942 93.313 C 337.559 94.635,334.792 92.704,334.792 89.720 C 334.792 86.620,337.952 84.035,340.274 85.235 M368.868 85.677 C 371.629 87.549,371.815 91.490,369.220 93.136 C 367.475 94.243,365.599 93.728,364.167 91.750 C 361.529 88.107,365.289 83.251,368.868 85.677 M349.530 102.473 C 348.730 102.656,347.789 103.606,347.633 104.389 C 347.506 105.021,347.982 106.458,348.318 106.458 C 348.398 106.458,348.663 106.645,348.908 106.873 C 349.153 107.101,349.804 107.532,350.354 107.831 C 351.953 108.698,352.083 108.941,352.083 111.050 C 352.083 113.250,351.854 113.631,350.657 113.416 C 349.484 113.205,347.521 112.222,346.159 111.165 C 344.602 109.956,344.125 109.928,343.552 111.016 C 342.925 112.205,346.694 115.109,349.688 115.742 C 351.422 116.109,356.030 115.911,357.188 115.420 C 360.531 114.000,362.659 112.184,362.250 111.101 C 361.797 109.900,360.804 110.047,359.063 111.573 C 358.303 112.239,356.216 113.229,355.177 113.416 C 352.888 113.828,353.141 108.963,355.466 107.849 C 358.178 106.550,358.988 104.643,357.462 103.151 C 356.638 102.346,351.866 101.938,349.530 102.473 " stroke="none" fill="#080808" fill-rule="evenodd"></path><path id="path1" d="M71.458 92.500 L 71.458 129.167 76.032 129.167 L 80.605 129.167 80.678 111.823 C 80.764 91.211,80.780 91.094,84.026 86.727 C 89.076 79.930,100.474 79.812,103.738 86.522 C 105.162 89.449,105.090 88.268,105.159 109.740 L 105.221 129.167 109.798 129.167 L 114.375 129.167 114.374 109.635 C 114.373 89.262,114.334 88.216,113.461 85.417 C 111.208 78.194,106.528 74.907,98.125 74.643 C 90.266 74.397,85.309 76.756,81.411 82.599 C 80.721 83.633,80.227 84.245,80.313 83.958 C 80.400 83.672,80.515 77.227,80.569 69.635 L 80.667 55.833 76.062 55.833 L 71.458 55.833 71.458 92.500 M28.646 61.691 C 15.345 63.623,8.395 73.255,7.275 91.309 C 5.890 113.639,14.090 127.767,29.738 130.010 C 41.757 131.732,51.230 126.463,56.848 114.931 C 58.502 111.536,58.679 111.883,54.375 110.086 C 50.708 108.554,50.000 108.343,50.000 108.778 C 50.000 109.314,48.019 113.141,46.770 115.017 C 39.556 125.853,25.063 124.704,20.085 112.900 C 16.452 104.285,16.339 87.299,19.857 78.669 C 25.168 65.642,42.326 66.231,47.725 79.626 C 48.514 81.582,48.015 81.575,52.813 79.703 C 57.412 77.908,57.165 78.287,55.724 75.245 C 50.736 64.715,41.084 59.884,28.646 61.691 M185.965 62.757 C 186.053 62.902,191.450 71.411,197.957 81.667 L 209.789 100.313 209.790 114.740 L 209.792 129.167 214.583 129.167 L 219.375 129.167 219.379 114.635 L 219.384 100.104 231.254 81.402 C 237.783 71.116,243.125 62.655,243.125 62.600 C 243.125 62.545,240.805 62.500,237.969 62.500 L 232.812 62.500 223.768 77.300 C 218.794 85.440,214.669 92.132,214.602 92.170 C 214.534 92.208,210.389 85.571,205.390 77.422 L 196.301 62.604 191.052 62.548 C 186.859 62.504,185.837 62.546,185.965 62.757 M251.877 85.052 C 251.880 111.730,251.978 113.476,253.760 118.401 C 256.642 126.364,262.596 129.873,273.699 130.149 C 288.706 130.523,295.728 125.549,298.173 112.815 C 298.603 110.578,298.616 109.923,298.692 86.510 L 298.769 62.500 293.978 62.500 L 289.187 62.500 289.105 85.885 C 289.018 110.412,289.036 109.912,288.119 113.646 C 286.759 119.179,283.107 121.897,276.354 122.403 C 269.617 122.907,264.983 120.670,263.150 116.029 C 261.749 112.483,261.797 113.471,261.721 86.719 L 261.652 62.500 256.763 62.500 L 251.875 62.500 251.877 85.052 M347.917 67.394 C 334.950 69.332,325.018 78.374,322.054 90.938 C 321.719 92.360,321.586 99.904,321.861 101.964 C 323.670 115.542,336.806 125.285,353.333 125.307 C 355.878 125.311,357.941 125.209,358.854 125.034 C 361.147 124.597,364.626 123.734,365.313 123.432 C 365.656 123.281,366.548 122.929,367.294 122.649 C 378.142 118.577,384.167 109.411,384.167 96.980 C 384.167 93.365,384.082 92.628,383.303 89.446 C 379.726 74.827,363.952 64.997,347.917 67.394 M146.979 74.900 C 138.686 76.225,132.669 81.637,132.047 88.331 L 131.979 89.058 135.729 89.410 C 137.792 89.603,139.912 89.768,140.442 89.776 L 141.404 89.792 141.642 88.594 C 142.545 84.040,145.552 81.848,151.347 81.520 C 159.885 81.036,163.262 84.296,163.677 93.420 L 163.815 96.458 158.314 96.463 C 137.040 96.479,129.583 101.101,129.583 114.271 C 129.583 124.893,134.891 130.127,145.625 130.089 C 154.144 130.059,159.246 127.193,163.199 120.219 L 163.854 119.063 164.024 120.208 C 164.805 125.468,166.291 127.985,169.333 129.203 C 170.784 129.784,176.937 129.906,179.427 129.403 L 180.833 129.119 180.833 126.204 L 180.833 123.288 180.365 123.402 C 177.788 124.029,175.418 123.627,174.436 122.396 C 173.013 120.612,173.054 121.099,172.907 104.271 C 172.792 91.189,172.726 88.860,172.430 87.613 C 170.833 80.867,167.103 77.073,160.313 75.285 C 157.690 74.595,150.234 74.379,146.979 74.900 M341.899 81.611 C 346.921 84.086,348.712 91.009,345.833 96.819 C 340.728 107.121,327.292 104.448,327.292 93.131 C 327.292 84.643,335.276 78.347,341.899 81.611 M371.751 81.726 C 380.939 86.098,380.782 100.605,371.520 103.005 C 363.728 105.024,356.249 95.480,359.148 87.219 C 361.090 81.684,366.608 79.279,371.751 81.726 M337.387 86.013 C 334.300 87.896,334.921 93.125,338.231 93.125 C 340.379 93.125,341.935 91.432,341.963 89.063 C 341.996 86.343,339.535 84.703,337.387 86.013 M365.384 85.943 C 364.086 86.647,363.477 88.654,364.044 90.360 C 365.203 93.852,369.479 94.079,370.425 90.700 C 371.281 87.642,367.984 84.530,365.384 85.943 M357.069 102.240 C 359.473 103.466,359.260 106.038,356.615 107.704 C 354.159 109.252,354.351 108.963,354.419 111.005 L 354.479 112.813 355.282 112.764 C 356.297 112.703,357.508 112.100,359.196 110.815 C 361.590 108.993,364.203 110.392,362.484 112.577 C 358.662 117.436,349.136 117.854,344.171 113.381 C 341.535 111.006,343.660 108.434,346.401 110.682 C 347.749 111.788,349.410 112.643,350.573 112.828 L 351.458 112.970 351.458 111.078 C 351.458 108.948,351.651 109.237,349.218 107.704 C 346.842 106.207,346.386 104.178,348.081 102.644 C 349.019 101.795,355.614 101.498,357.069 102.240 M163.688 106.094 C 163.309 116.489,157.064 123.221,147.813 123.207 C 141.242 123.198,137.808 118.187,139.488 111.060 C 140.888 105.119,144.969 103.233,157.083 102.928 C 160.349 102.846,163.199 102.763,163.416 102.743 C 163.794 102.710,163.806 102.856,163.688 106.094 " stroke="none" fill="#e9efe9" fill-rule="evenodd"></path>
	
</symbol>
</svg>
