<svg xmlns="http://www.w3.org/2000/svg"><svg xmlns="http://www.w3.org/2000/svg"><symbol id="mastodon-svg-logo-full" viewBox="100 130 100">

<g id="svgg"><path id="path0" d="M328.429 100.559 C 328.114 100.701,327.125 100.826,326.231 100.837 C 325.337 100.848,324.526 100.986,324.429 101.143 C 324.331 101.300,323.881 101.429,323.429 101.429 C 322.976 101.429,322.526 101.557,322.429 101.714 C 322.331 101.871,321.936 102.000,321.551 102.000 C 321.165 102.000,320.626 102.114,320.353 102.252 C 320.080 102.391,319.536 102.630,319.143 102.783 C 318.750 102.936,317.870 103.337,317.187 103.674 C 316.505 104.010,315.753 104.286,315.517 104.286 C 315.281 104.286,314.747 104.522,314.330 104.811 C 313.210 105.586,312.650 105.725,312.307 105.312 C 311.950 104.881,308.883 103.370,307.408 102.898 C 305.198 102.191,302.198 102.540,299.742 103.790 C 299.207 104.063,298.619 104.286,298.436 104.286 C 297.644 104.286,295.776 106.338,294.883 108.189 C 294.364 109.264,293.825 110.366,293.684 110.639 C 293.333 111.320,293.359 116.780,293.714 117.000 C 293.871 117.097,294.000 117.401,294.000 117.674 C 294.000 118.299,294.642 119.709,294.929 119.712 C 295.046 119.713,295.143 119.907,295.143 120.143 C 295.143 120.659,297.925 123.555,298.675 123.819 C 299.052 123.952,299.125 124.110,298.925 124.361 C 297.697 125.902,297.183 139.747,298.328 140.454 C 298.462 140.537,298.571 140.985,298.571 141.449 C 298.571 141.914,298.685 142.517,298.824 142.790 C 299.084 143.301,299.579 144.461,300.072 145.714 C 300.226 146.107,300.466 146.652,300.605 146.925 C 300.744 147.198,300.857 147.558,300.857 147.726 C 300.857 149.178,307.165 156.191,309.596 157.441 C 310.276 157.791,311.063 158.286,311.345 158.541 C 311.809 158.962,316.172 161.184,317.571 161.713 C 317.886 161.832,318.502 162.073,318.942 162.250 C 319.382 162.427,320.242 162.571,320.854 162.571 C 321.466 162.571,322.046 162.700,322.143 162.857 C 322.240 163.014,322.672 163.143,323.103 163.143 C 323.533 163.143,324.008 163.261,324.157 163.405 C 325.040 164.260,338.381 164.258,339.271 163.403 C 339.421 163.260,340.024 163.143,340.612 163.143 C 341.200 163.143,341.760 163.014,341.857 162.857 C 341.954 162.700,342.542 162.571,343.163 162.571 C 344.143 162.571,345.801 162.016,347.496 161.120 C 347.769 160.975,348.187 160.857,348.425 160.857 C 348.663 160.857,348.857 160.729,348.857 160.571 C 348.857 160.414,349.082 160.283,349.357 160.279 C 349.632 160.276,350.179 160.022,350.571 159.714 C 350.964 159.407,351.427 159.153,351.600 159.149 C 351.774 159.146,352.290 158.789,352.748 158.357 C 353.206 157.925,353.957 157.379,354.417 157.143 C 355.540 156.567,358.571 153.747,358.571 153.279 C 358.571 153.073,358.673 152.862,358.796 152.810 C 358.920 152.757,359.466 152.136,360.011 151.429 C 360.555 150.721,361.064 150.079,361.143 150.000 C 362.169 148.974,364.286 144.044,364.286 142.680 C 364.286 142.212,364.402 141.706,364.544 141.557 C 364.994 141.083,365.207 138.568,365.207 133.714 C 365.207 128.860,364.994 126.346,364.544 125.871 C 363.885 125.178,364.510 123.143,365.382 123.143 C 365.783 123.143,368.071 120.532,368.533 119.547 C 368.748 119.089,369.046 118.477,369.196 118.187 C 369.562 117.476,369.563 110.513,369.197 109.829 C 369.036 109.530,368.690 108.791,368.426 108.187 C 367.903 106.986,365.320 104.286,364.694 104.286 C 364.479 104.286,363.845 104.029,363.286 103.714 C 362.726 103.400,362.023 103.143,361.722 103.143 C 361.422 103.143,361.097 103.014,361.000 102.857 C 360.903 102.700,359.746 102.571,358.429 102.571 C 357.111 102.571,355.954 102.700,355.857 102.857 C 355.760 103.014,355.399 103.146,355.055 103.149 C 354.710 103.153,354.107 103.407,353.714 103.714 C 353.321 104.022,352.819 104.276,352.598 104.279 C 352.378 104.283,351.788 104.598,351.288 104.979 L 350.378 105.673 348.832 104.947 C 346.694 103.944,344.822 103.110,344.143 102.859 C 343.829 102.743,343.250 102.513,342.857 102.348 C 341.680 101.853,339.077 101.205,336.714 100.819 C 334.259 100.417,329.101 100.255,328.429 100.559 M338.143 105.293 C 361.947 110.201,369.867 140.530,351.040 154.685 C 349.580 155.783,348.800 156.174,344.857 157.791 C 330.926 163.503,312.537 158.788,305.837 147.786 C 303.749 144.357,303.561 143.983,302.924 142.000 C 298.441 128.060,304.805 114.327,319.062 107.174 C 323.713 104.841,331.990 104.025,338.143 105.293 M314.143 119.549 C 307.282 122.715,306.311 134.255,312.640 137.418 C 321.240 141.715,329.673 129.583,323.665 121.557 C 321.696 118.929,317.436 118.030,314.143 119.549 M342.150 119.447 C 333.762 123.630,337.486 138.286,346.937 138.286 C 354.930 138.286,357.754 127.434,351.374 121.231 C 348.977 118.900,344.847 118.101,342.150 119.447 M319.997 122.141 C 321.328 122.830,321.714 123.632,321.713 125.706 C 321.711 129.357,319.035 131.350,316.340 129.707 C 312.451 127.336,315.969 120.058,319.997 122.141 M345.943 122.116 C 347.940 123.155,348.979 125.613,348.296 127.682 C 347.152 131.151,343.043 131.019,341.548 127.465 C 340.178 124.207,343.108 120.641,345.943 122.116 M327.595 138.890 C 326.166 140.014,326.606 141.315,328.929 142.830 L 330.857 144.088 330.857 146.196 C 330.857 149.198,329.786 149.364,326.008 146.947 C 324.392 145.913,323.828 145.683,323.466 145.911 C 321.331 147.255,327.234 150.857,331.571 150.857 C 335.729 150.857,341.409 147.573,339.886 146.050 C 339.407 145.570,338.044 145.971,337.367 146.790 C 336.838 147.430,334.278 148.565,333.357 148.569 L 332.571 148.571 332.571 146.299 L 332.571 144.027 333.929 143.114 C 336.850 141.147,337.134 140.519,335.736 139.121 C 334.605 137.989,328.944 137.829,327.595 138.890 " stroke="none" fill="#070707" fill-rule="evenodd"></path><path id="path1" d="M326.109 105.831 C 309.910 108.917,299.837 123.311,302.986 138.875 C 306.661 157.046,331.196 165.501,349.250 154.818 C 363.468 146.405,364.672 123.976,351.511 112.711 C 344.701 106.883,334.744 104.186,326.109 105.831 M320.630 118.444 C 326.878 120.573,328.223 130.387,323.027 135.941 C 319.129 140.109,312.851 140.081,309.677 135.881 C 303.726 128.008,311.655 115.386,320.630 118.444 M349.286 118.923 C 358.741 123.759,357.007 138.977,347.000 138.985 C 336.236 138.993,332.773 122.382,342.701 118.362 C 344.154 117.773,347.615 118.068,349.286 118.923 M316.972 123.113 C 315.878 123.781,315.029 125.733,315.272 127.026 C 315.693 129.271,318.213 130.174,319.959 128.705 C 323.081 126.078,320.385 121.032,316.972 123.113 M342.850 123.392 C 341.326 124.916,341.467 127.260,343.170 128.693 C 345.812 130.917,348.940 128.065,347.480 124.764 C 346.503 122.555,344.331 121.911,342.850 123.392 M336.315 138.536 C 337.696 140.243,337.226 141.837,334.885 143.386 L 333.286 144.444 333.286 146.151 C 333.286 148.382,334.504 148.315,337.485 145.920 C 339.587 144.231,342.087 145.766,340.500 147.770 C 336.869 152.357,327.957 152.643,323.357 148.320 C 320.974 146.080,323.099 143.864,325.658 145.920 C 328.337 148.073,330.099 148.389,330.234 146.742 C 330.379 144.969,330.118 144.492,328.417 143.429 C 325.652 141.700,325.291 139.403,327.571 138.048 C 328.742 137.352,335.671 137.739,336.315 138.536 " stroke="none" fill="#f6f6f6" fill-rule="evenodd"></path><path id="path2" d="M327.286 104.873 C 323.217 105.423,317.482 107.537,315.253 109.309 C 314.957 109.544,315.811 109.157,317.151 108.448 C 323.980 104.836,334.109 103.986,341.241 106.425 C 342.003 106.685,342.686 106.838,342.760 106.764 C 342.949 106.575,340.499 105.791,338.137 105.285 C 335.595 104.740,329.877 104.523,327.286 104.873 M343.167 106.951 C 343.232 107.003,344.443 107.653,345.857 108.395 C 347.271 109.137,348.113 109.491,347.726 109.183 C 347.005 108.607,343.647 106.857,343.263 106.857 C 343.144 106.857,343.101 106.900,343.167 106.951 M313.254 110.455 C 303.075 117.237,298.357 134.714,304.005 144.714 C 306.786 149.638,309.269 152.458,313.033 154.971 C 315.135 156.373,321.818 159.135,322.196 158.757 C 322.282 158.670,321.984 158.509,321.534 158.400 C 317.617 157.445,312.149 154.324,309.035 151.267 C 297.864 140.301,300.386 119.456,314.000 110.228 C 314.393 109.962,314.636 109.738,314.540 109.729 C 314.444 109.721,313.865 110.047,313.254 110.455 M349.128 110.208 C 353.688 113.507,357.488 118.381,359.304 123.260 C 359.592 124.031,359.879 124.506,359.943 124.315 C 360.588 122.379,352.587 111.607,349.429 110.160 C 348.452 109.712,348.445 109.714,349.128 110.208 M314.096 119.264 C 311.732 120.365,308.553 124.281,308.576 126.063 C 308.579 126.264,309.020 125.527,309.556 124.425 C 313.202 116.934,322.261 116.803,325.151 124.199 C 325.446 124.954,325.692 125.379,325.698 125.143 C 325.811 120.586,318.841 117.055,314.096 119.264 M341.777 119.308 C 340.044 120.172,337.228 123.609,337.791 124.172 C 337.857 124.238,338.144 123.773,338.430 123.140 C 340.593 118.342,347.375 117.342,351.374 121.231 C 354.867 124.627,355.719 129.083,353.842 134.143 C 353.695 134.539,353.723 134.627,353.932 134.429 C 354.457 133.932,355.143 131.101,355.139 129.448 C 355.123 121.788,347.860 116.276,341.777 119.308 M317.251 122.125 C 316.307 122.536,314.856 124.209,314.858 124.884 C 314.859 125.105,315.128 124.836,315.456 124.286 C 317.087 121.554,319.912 121.486,321.381 124.143 C 321.609 124.555,321.699 124.592,321.706 124.278 C 321.740 122.538,319.163 121.292,317.251 122.125 M343.202 122.191 C 342.685 122.446,342.122 122.925,341.951 123.256 C 341.699 123.744,341.798 123.709,342.479 123.071 C 344.919 120.784,348.766 123.477,348.189 127.069 C 348.070 127.805,348.102 128.008,348.289 127.714 C 350.006 125.022,346.088 120.768,343.202 122.191 M341.316 124.452 C 341.078 125.072,341.106 126.642,341.362 127.044 C 341.477 127.226,341.571 126.615,341.571 125.687 C 341.571 123.830,341.566 123.802,341.316 124.452 M337.316 125.023 C 337.085 125.627,337.132 129.728,337.377 130.346 C 337.484 130.616,337.571 129.426,337.571 127.704 C 337.571 125.981,337.553 124.571,337.531 124.571 C 337.508 124.571,337.412 124.775,337.316 125.023 M360.040 125.143 C 360.040 125.379,360.151 125.829,360.286 126.143 C 360.440 126.503,360.531 126.556,360.531 126.286 C 360.531 126.050,360.421 125.600,360.286 125.286 C 360.131 124.926,360.040 124.873,360.040 125.143 M314.643 126.429 C 314.647 127.057,314.705 127.281,314.774 126.925 C 314.842 126.570,314.839 126.056,314.768 125.782 C 314.696 125.509,314.640 125.800,314.643 126.429 M325.808 127.571 C 325.809 128.671,325.861 129.086,325.923 128.494 C 325.985 127.901,325.984 127.001,325.920 126.494 C 325.857 125.986,325.807 126.471,325.808 127.571 M308.123 127.887 C 307.249 133.720,310.683 138.333,316.000 138.466 L 318.143 138.520 316.000 138.320 C 310.998 137.852,308.413 134.737,308.443 129.214 C 308.459 126.230,308.405 126.007,308.123 127.887 M321.451 127.192 C 321.329 129.789,316.663 130.736,315.422 128.416 C 315.216 128.031,314.987 127.775,314.913 127.849 C 314.202 128.560,317.060 130.420,318.503 130.186 C 320.222 129.907,322.031 128.083,321.611 127.052 C 321.535 126.865,321.464 126.928,321.451 127.192 M360.634 127.429 C 360.637 127.821,360.737 128.529,360.857 129.000 L 361.075 129.857 361.081 129.000 C 361.084 128.529,360.983 127.821,360.857 127.429 L 360.628 126.714 360.634 127.429 M341.717 127.873 C 341.708 128.782,343.756 130.143,345.136 130.143 C 346.519 130.143,348.010 129.260,347.994 128.450 C 347.990 128.281,347.765 128.429,347.494 128.778 C 346.275 130.346,343.792 130.200,342.436 128.479 C 342.043 127.980,341.719 127.707,341.717 127.873 M325.036 131.193 C 323.948 134.288,322.435 136.102,319.846 137.415 C 318.909 137.890,318.308 138.280,318.509 138.282 C 320.823 138.305,326.106 132.271,325.662 130.112 C 325.612 129.869,325.331 130.356,325.036 131.193 M361.251 134.000 C 361.251 135.807,361.297 136.546,361.354 135.643 C 361.411 134.739,361.411 133.261,361.354 132.357 C 361.297 131.454,361.251 132.193,361.251 134.000 M337.722 131.224 C 337.656 133.166,342.652 138.307,344.571 138.273 C 344.807 138.268,344.298 137.926,343.441 137.511 C 341.520 136.583,339.841 134.892,338.641 132.680 C 338.140 131.756,337.726 131.101,337.722 131.224 M352.953 135.646 C 351.947 137.006,349.564 138.095,347.143 138.302 L 345.000 138.485 346.735 138.528 C 349.485 138.597,352.479 137.203,353.441 135.406 C 353.864 134.616,353.629 134.731,352.953 135.646 M360.747 138.819 C 360.635 139.662,360.604 140.413,360.679 140.488 C 360.869 140.679,361.230 138.117,361.077 137.661 C 361.008 137.454,360.859 137.976,360.747 138.819 M330.082 138.211 C 330.991 138.268,332.405 138.268,333.225 138.210 C 334.044 138.153,333.300 138.106,331.571 138.107 C 329.843 138.108,329.173 138.155,330.082 138.211 M327.143 138.857 C 325.816 140.184,326.423 141.674,328.929 143.247 L 330.571 144.279 330.571 146.282 C 330.571 148.964,329.225 149.006,325.717 146.430 C 324.022 145.186,322.571 145.276,322.571 146.623 C 322.571 146.787,322.822 146.617,323.128 146.246 C 323.754 145.486,323.640 145.449,326.793 147.432 C 327.848 148.095,328.663 148.388,329.507 148.404 L 330.714 148.429 330.797 146.265 L 330.879 144.102 328.940 142.837 C 326.606 141.314,326.163 140.016,327.595 138.890 C 328.017 138.558,328.217 138.286,328.039 138.286 C 327.860 138.286,327.457 138.543,327.143 138.857 M335.204 138.589 C 335.473 138.746,335.891 139.156,336.133 139.501 C 336.374 139.845,336.571 139.970,336.571 139.778 C 336.571 139.317,335.526 138.283,335.071 138.294 C 334.869 138.299,334.926 138.426,335.204 138.589 M360.143 141.429 C 360.036 141.767,360.012 142.107,360.091 142.186 C 360.169 142.264,360.321 142.052,360.429 141.714 C 360.536 141.376,360.559 141.036,360.481 140.957 C 360.402 140.878,360.250 141.091,360.143 141.429 M336.142 141.430 C 336.044 141.588,335.201 142.236,334.268 142.869 C 333.335 143.503,332.573 144.177,332.576 144.368 C 332.579 144.604,332.647 144.616,332.790 144.407 C 332.906 144.238,333.804 143.558,334.786 142.896 C 335.768 142.235,336.571 141.569,336.571 141.418 C 336.571 141.061,336.367 141.067,336.142 141.430 M358.453 145.552 C 356.591 149.364,352.056 154.076,348.518 155.873 C 346.008 157.148,345.719 157.525,348.080 156.445 C 351.954 154.673,356.363 150.291,358.532 146.058 C 359.361 144.440,359.998 143.017,359.948 142.896 C 359.898 142.775,359.225 143.971,358.453 145.552 M337.571 146.327 C 336.024 147.522,334.084 148.368,333.254 148.210 C 332.879 148.138,332.571 148.190,332.571 148.325 C 332.571 149.100,336.495 147.844,337.367 146.790 C 338.057 145.956,339.407 145.571,339.904 146.067 C 340.496 146.659,340.115 147.312,338.456 148.553 C 337.047 149.607,336.779 149.929,337.740 149.415 C 338.702 148.900,340.571 147.109,340.571 146.701 C 340.571 145.332,339.098 145.148,337.571 146.327 M323.566 147.969 C 324.444 148.911,328.004 150.862,328.824 150.850 C 329.078 150.847,328.543 150.538,327.636 150.165 C 326.728 149.792,325.250 148.939,324.350 148.271 C 322.904 147.195,322.813 147.161,323.566 147.969 M335.143 150.300 C 334.436 150.589,334.050 150.830,334.286 150.834 C 334.521 150.839,335.229 150.599,335.857 150.301 C 337.317 149.611,336.829 149.610,335.143 150.300 M330.791 151.064 C 331.304 151.128,332.076 151.126,332.505 151.061 C 332.934 150.996,332.514 150.944,331.571 150.946 C 330.629 150.947,330.277 151.001,330.791 151.064 M342.857 158.300 C 342.150 158.589,341.764 158.830,342.000 158.834 C 342.236 158.839,342.943 158.599,343.571 158.301 C 345.031 157.611,344.543 157.610,342.857 158.300 M323.714 159.297 C 327.304 160.500,338.073 160.657,339.135 159.522 C 339.218 159.433,338.771 159.444,338.143 159.548 C 335.252 160.022,328.987 160.050,326.571 159.598 C 322.660 158.867,322.322 158.831,323.714 159.297 M340.000 159.143 C 339.426 159.327,339.398 159.373,339.857 159.380 C 340.171 159.385,340.686 159.278,341.000 159.143 C 341.728 158.830,340.977 158.830,340.000 159.143 " stroke="none" fill="#636363" fill-rule="evenodd"></path><path id="path3" d="M316.779 118.492 C 317.287 118.555,318.187 118.556,318.779 118.494 C 319.372 118.432,318.957 118.381,317.857 118.379 C 316.757 118.378,316.272 118.429,316.779 118.492 M344.208 118.492 C 344.715 118.555,345.615 118.556,346.208 118.494 C 346.801 118.432,346.386 118.381,345.286 118.379 C 344.186 118.378,343.701 118.429,344.208 118.492 M348.072 126.429 C 348.075 127.057,348.134 127.281,348.202 126.925 C 348.270 126.570,348.268 126.056,348.196 125.782 C 348.125 125.509,348.069 125.800,348.072 126.429 M336.923 127.714 C 336.923 128.264,336.982 128.489,337.054 128.214 C 337.126 127.939,337.126 127.489,337.054 127.214 C 336.982 126.939,336.923 127.164,336.923 127.714 M355.209 129.429 C 355.209 129.979,355.268 130.204,355.340 129.929 C 355.412 129.654,355.412 129.204,355.340 128.929 C 355.268 128.654,355.209 128.879,355.209 129.429 M360.949 131.429 C 360.949 132.450,361.000 132.868,361.064 132.357 C 361.127 131.846,361.127 131.011,361.064 130.500 C 361.000 129.989,360.949 130.407,360.949 131.429 M302.110 133.714 C 302.110 135.679,302.156 136.482,302.212 135.500 C 302.267 134.518,302.267 132.911,302.212 131.929 C 302.156 130.946,302.110 131.750,302.110 133.714 M322.411 136.071 L 321.571 137.000 322.500 136.161 C 323.366 135.379,323.560 135.143,323.339 135.143 C 323.290 135.143,322.872 135.561,322.411 136.071 M360.929 136.429 C 360.932 137.057,360.991 137.281,361.059 136.925 C 361.128 136.570,361.125 136.056,361.053 135.782 C 360.982 135.509,360.926 135.800,360.929 136.429 M315.500 138.776 C 315.932 138.842,316.639 138.842,317.071 138.776 C 317.504 138.711,317.150 138.657,316.286 138.657 C 315.421 138.657,315.068 138.711,315.500 138.776 M346.361 138.776 C 346.795 138.842,347.438 138.840,347.790 138.773 C 348.141 138.705,347.786 138.651,347.000 138.653 C 346.214 138.655,345.927 138.711,346.361 138.776 M332.610 146.197 C 332.589 147.170,332.668 148.026,332.786 148.099 C 332.904 148.172,332.962 147.633,332.916 146.901 C 332.774 144.634,332.651 144.351,332.610 146.197 M322.571 147.042 C 322.571 147.196,322.989 147.699,323.500 148.161 L 324.429 149.000 323.571 148.001 C 323.100 147.452,322.682 146.949,322.643 146.882 C 322.604 146.816,322.571 146.888,322.571 147.042 M339.553 148.071 L 338.714 149.000 339.643 148.161 C 340.508 147.379,340.703 147.143,340.482 147.143 C 340.433 147.143,340.015 147.561,339.553 148.071 M351.429 153.763 C 350.680 154.443,350.501 154.689,351.000 154.353 C 351.789 153.822,353.099 152.555,352.830 152.584 C 352.766 152.590,352.136 153.121,351.429 153.763 M313.714 154.985 C 313.714 155.064,314.100 155.328,314.571 155.571 C 315.043 155.815,315.429 155.950,315.429 155.872 C 315.429 155.793,315.043 155.529,314.571 155.286 C 314.100 155.042,313.714 154.907,313.714 154.985 M349.071 155.306 C 348.003 155.886,348.068 156.127,349.143 155.571 C 349.614 155.328,350.000 155.067,350.000 154.993 C 350.000 154.809,349.969 154.819,349.071 155.306 M328.647 159.919 C 329.081 159.985,329.724 159.983,330.075 159.915 C 330.427 159.848,330.071 159.794,329.286 159.796 C 328.500 159.798,328.212 159.854,328.647 159.919 M334.214 159.916 C 334.568 159.984,335.146 159.984,335.500 159.916 C 335.854 159.848,335.564 159.792,334.857 159.792 C 334.150 159.792,333.861 159.848,334.214 159.916 " stroke="none" fill="#888888" fill-rule="evenodd"></path><path id="path4" d="M326.067 105.552 C 323.159 106.105,320.165 107.052,318.224 108.031 C 316.012 109.148,316.111 109.328,318.358 108.277 C 332.869 101.486,350.511 107.020,357.734 120.627 C 358.343 121.775,358.845 122.605,358.850 122.472 C 358.905 120.696,353.639 113.898,350.143 111.232 C 343.763 106.367,333.955 104.053,326.067 105.552 M314.322 110.285 C 311.370 112.192,305.709 118.338,305.716 119.627 C 305.716 119.754,306.070 119.330,306.501 118.687 C 308.778 115.291,311.373 112.642,314.571 110.453 C 316.272 109.289,316.457 109.143,316.235 109.143 C 316.154 109.143,315.294 109.657,314.322 110.285 M315.429 118.267 C 304.675 121.550,305.379 139.000,316.266 139.000 C 320.597 139.000,326.103 134.142,325.981 130.429 C 325.970 130.114,325.799 130.371,325.599 131.000 C 322.063 142.154,308.040 140.967,308.007 129.511 C 307.976 118.875,320.397 114.017,325.016 122.857 C 325.385 123.564,325.692 124.014,325.698 123.857 C 325.722 123.221,323.955 120.576,322.956 119.753 C 321.103 118.225,317.740 117.561,315.429 118.267 M342.701 118.362 C 340.076 119.425,337.142 122.735,337.143 124.631 C 337.143 124.834,337.510 124.229,337.957 123.286 C 343.421 111.777,358.796 121.631,354.452 133.857 C 354.341 134.171,354.459 134.067,354.715 133.624 C 358.750 126.654,349.922 115.438,342.701 118.362 M304.547 121.820 C 302.522 126.147,301.696 133.084,302.561 138.505 C 306.788 164.995,352.147 167.429,359.986 141.586 C 361.131 137.809,361.308 129.174,360.288 126.839 L 359.984 126.143 360.166 126.857 C 360.642 128.726,360.635 137.400,360.156 139.555 C 354.180 166.413,308.446 165.869,302.986 138.875 C 301.914 133.576,302.823 125.725,305.008 121.412 C 305.402 120.635,305.651 120.000,305.561 120.000 C 305.472 120.000,305.015 120.819,304.547 121.820 M316.912 122.864 C 315.948 123.452,314.859 125.366,314.883 126.429 C 314.890 126.743,315.057 126.486,315.255 125.857 C 316.237 122.735,318.321 121.677,320.265 123.312 C 320.848 123.803,321.085 123.896,320.967 123.587 C 320.493 122.353,318.371 121.975,316.912 122.864 M343.174 122.684 C 342.799 122.893,342.321 123.370,342.113 123.746 C 341.520 124.816,341.653 125.105,342.271 124.090 C 343.629 121.863,346.309 122.160,347.445 124.662 C 347.743 125.319,347.990 125.651,347.994 125.399 C 348.021 123.385,344.991 121.678,343.174 122.684 M336.738 126.595 C 336.631 127.405,336.600 128.124,336.671 128.195 C 336.741 128.265,336.889 127.663,337.000 126.857 C 337.111 126.051,337.141 125.332,337.067 125.258 C 336.994 125.184,336.845 125.786,336.738 126.595 M326.098 127.571 C 326.099 128.829,326.149 129.307,326.210 128.635 C 326.270 127.963,326.269 126.935,326.208 126.350 C 326.146 125.764,326.097 126.314,326.098 127.571 M321.165 126.957 C 321.054 129.559,316.826 130.220,315.579 127.830 C 315.271 127.240,315.146 127.151,315.145 127.522 C 315.139 129.109,317.751 130.206,319.565 129.380 C 320.404 128.997,321.547 127.319,321.332 126.785 C 321.250 126.583,321.178 126.657,321.165 126.957 M341.725 126.962 C 341.703 128.022,343.798 129.714,345.131 129.714 C 346.450 129.714,348.002 128.528,347.998 127.522 C 347.997 127.151,347.871 127.240,347.564 127.830 C 346.331 130.194,343.248 129.899,342.120 127.310 C 341.862 126.716,341.733 126.602,341.725 126.962 M336.923 129.429 C 336.923 129.979,336.982 130.204,337.054 129.929 C 337.126 129.654,337.126 129.204,337.054 128.929 C 336.982 128.654,336.923 128.879,336.923 129.429 M337.442 131.531 C 337.435 131.667,337.836 132.542,338.335 133.478 C 341.930 140.223,350.567 141.006,354.123 134.910 C 354.244 134.703,353.591 135.303,352.671 136.243 C 348.340 140.673,341.490 139.103,338.316 132.953 C 337.843 132.036,337.450 131.396,337.442 131.531 M327.571 138.048 C 326.976 138.402,326.310 139.147,326.295 139.478 C 326.290 139.584,326.662 139.295,327.121 138.835 C 328.421 137.536,334.722 137.536,336.022 138.835 C 337.497 140.311,337.013 141.645,334.395 143.320 L 332.857 144.303 332.857 146.135 C 332.857 147.142,332.966 148.033,333.098 148.115 C 333.448 148.331,335.218 147.794,335.870 147.275 C 336.382 146.867,336.356 146.864,335.571 147.242 C 333.589 148.196,333.286 148.052,333.286 146.151 L 333.286 144.444 334.885 143.386 C 337.226 141.837,337.696 140.243,336.315 138.536 C 335.671 137.739,328.742 137.352,327.571 138.048 M326.025 140.371 C 325.978 141.351,326.825 142.433,328.417 143.429 C 330.118 144.492,330.379 144.969,330.234 146.742 C 330.131 147.997,329.420 148.135,327.592 147.253 C 326.788 146.865,326.761 146.867,327.277 147.278 C 328.182 147.998,330.033 148.407,330.322 147.951 C 331.216 146.541,330.457 144.292,328.751 143.292 C 327.237 142.405,326.614 141.741,326.294 140.674 C 326.150 140.194,326.039 140.069,326.025 140.371 M323.429 145.079 C 321.198 145.752,322.511 148.433,325.899 150.124 C 328.064 151.204,328.153 151.004,326.019 149.854 C 322.803 148.121,321.777 146.589,323.176 145.609 C 323.859 145.130,324.290 145.234,325.714 146.224 L 326.714 146.918 325.756 146.056 C 324.728 145.132,324.112 144.873,323.429 145.079 M338.353 145.338 C 337.868 145.573,337.237 146.040,336.950 146.375 C 336.512 146.888,336.588 146.869,337.429 146.257 C 338.829 145.238,339.275 145.124,339.967 145.609 C 341.362 146.586,340.356 148.096,337.124 149.876 C 336.113 150.433,335.607 150.804,336.000 150.700 C 337.020 150.431,338.846 149.326,339.929 148.322 C 341.818 146.570,340.594 144.252,338.353 145.338 M328.571 151.138 C 329.277 151.369,331.635 151.525,331.405 151.325 C 331.339 151.269,330.514 151.150,329.571 151.063 C 328.506 150.964,328.128 150.992,328.571 151.138 M332.857 151.143 L 331.571 151.343 332.714 151.357 C 333.343 151.365,334.179 151.269,334.571 151.143 C 335.474 150.854,334.716 150.854,332.857 151.143 " stroke="none" fill="#a4a4a4" fill-rule="evenodd"></path><path id="path5" d="M74.000 130.571 L 74.000 164.857 78.857 164.857 L 83.714 164.857 83.714 148.286 C 83.714 137.429,83.813 131.714,84.000 131.714 C 84.157 131.714,84.286 131.336,84.286 130.874 C 84.286 130.412,84.414 129.954,84.571 129.857 C 84.729 129.760,84.857 129.367,84.857 128.983 C 84.857 128.600,84.986 128.286,85.143 128.286 C 85.300 128.286,85.429 128.057,85.429 127.777 C 85.429 127.498,85.686 127.084,86.000 126.857 C 86.314 126.631,86.571 126.306,86.571 126.136 C 86.571 125.680,88.306 123.917,89.214 123.450 C 89.646 123.228,90.000 122.939,90.000 122.809 C 90.000 122.678,90.257 122.571,90.571 122.571 C 90.886 122.571,91.143 122.443,91.143 122.286 C 91.143 122.129,91.457 122.000,91.840 122.000 C 92.224 122.000,92.617 121.871,92.714 121.714 C 92.815 121.552,94.241 121.429,96.017 121.429 C 97.910 121.429,99.143 121.541,99.143 121.714 C 99.143 121.871,99.529 122.000,100.000 122.000 C 100.471 122.000,100.857 122.107,100.857 122.237 C 100.857 122.368,101.211 122.657,101.643 122.880 C 102.673 123.412,103.143 123.871,103.143 124.345 C 103.143 124.557,103.400 124.916,103.714 125.143 C 104.050 125.385,104.286 125.882,104.286 126.349 C 104.286 126.786,104.414 127.143,104.571 127.143 C 104.729 127.143,104.857 127.521,104.857 127.983 C 104.857 128.445,104.986 128.903,105.143 129.000 C 105.328 129.115,105.429 135.432,105.429 147.017 L 105.429 164.857 110.000 164.857 L 114.571 164.857 114.571 145.143 C 114.571 132.190,114.473 125.429,114.286 125.429 C 114.129 125.429,114.000 124.914,114.000 124.286 C 114.000 123.657,113.871 123.143,113.714 123.143 C 113.557 123.143,113.429 122.893,113.429 122.588 C 113.429 122.283,113.300 121.954,113.143 121.857 C 112.986 121.760,112.857 121.463,112.856 121.197 C 112.856 120.932,112.471 120.264,112.000 119.714 C 111.529 119.164,111.144 118.609,111.144 118.480 C 111.143 118.134,110.377 117.429,110.004 117.429 C 109.826 117.429,109.772 117.280,109.884 117.099 C 110.006 116.901,109.963 116.846,109.777 116.961 C 109.606 117.067,109.142 116.830,108.746 116.434 C 108.350 116.038,107.827 115.714,107.584 115.714 C 107.342 115.714,107.143 115.586,107.143 115.429 C 107.143 115.271,106.886 115.143,106.571 115.143 C 106.257 115.143,106.000 115.014,106.000 114.857 C 106.000 114.700,105.493 114.571,104.874 114.571 C 104.255 114.571,103.669 114.443,103.571 114.286 C 103.464 114.112,101.330 114.000,98.126 114.000 C 94.804 114.000,92.857 114.106,92.857 114.286 C 92.857 114.443,92.471 114.571,92.000 114.571 C 91.529 114.571,91.143 114.700,91.143 114.857 C 91.143 115.014,90.886 115.143,90.571 115.143 C 90.257 115.143,90.000 115.271,90.000 115.429 C 90.000 115.586,89.743 115.714,89.429 115.714 C 89.114 115.714,88.857 115.843,88.857 116.000 C 88.857 116.157,88.649 116.286,88.395 116.286 C 88.140 116.286,86.835 117.403,85.494 118.768 C 83.471 120.828,83.096 121.108,83.296 120.411 C 83.428 119.949,83.579 114.332,83.631 107.929 L 83.727 96.286 78.863 96.286 L 74.000 96.286 74.000 130.571 M33.429 101.714 C 33.429 101.871,32.925 102.000,32.310 102.000 C 31.694 102.000,31.148 102.127,31.095 102.283 C 31.043 102.439,30.656 102.595,30.235 102.630 C 29.814 102.664,29.532 102.794,29.609 102.918 C 29.685 103.042,29.419 103.143,29.017 103.143 C 28.615 103.143,28.286 103.271,28.286 103.429 C 28.286 103.586,28.029 103.714,27.714 103.714 C 27.400 103.714,27.143 103.843,27.143 104.000 C 27.143 104.157,26.914 104.286,26.635 104.286 C 26.355 104.286,25.941 104.543,25.714 104.857 C 25.488 105.171,25.149 105.429,24.961 105.429 C 24.489 105.429,20.857 109.028,20.857 109.495 C 20.857 109.704,20.600 110.059,20.286 110.286 C 19.971 110.512,19.714 110.926,19.714 111.206 C 19.714 111.486,19.586 111.714,19.429 111.714 C 19.271 111.714,19.143 111.971,19.143 112.286 C 19.143 112.600,19.014 112.857,18.857 112.857 C 18.700 112.857,18.571 113.114,18.571 113.429 C 18.571 113.743,18.443 114.000,18.286 114.000 C 18.129 114.000,18.000 114.257,18.000 114.571 C 18.000 114.886,17.871 115.143,17.714 115.143 C 17.557 115.143,17.429 115.529,17.429 116.000 C 17.429 116.471,17.300 116.857,17.143 116.857 C 16.986 116.857,16.857 117.243,16.857 117.714 C 16.857 118.186,16.729 118.571,16.571 118.571 C 16.414 118.571,16.286 119.078,16.286 119.697 C 16.286 120.317,16.157 120.903,16.000 121.000 C 15.843 121.097,15.714 121.869,15.714 122.714 C 15.714 123.560,15.586 124.331,15.429 124.429 C 15.248 124.540,15.143 127.812,15.143 133.303 C 15.143 138.910,15.244 142.000,15.429 142.000 C 15.587 142.000,15.714 142.762,15.714 143.714 C 15.714 144.667,15.841 145.429,16.000 145.429 C 16.157 145.429,16.286 145.943,16.286 146.571 C 16.286 147.200,16.414 147.714,16.571 147.714 C 16.729 147.714,16.857 148.092,16.857 148.555 C 16.857 149.017,16.986 149.474,17.143 149.571 C 17.300 149.669,17.429 150.062,17.429 150.445 C 17.429 150.829,17.557 151.143,17.714 151.143 C 17.871 151.143,18.003 151.432,18.006 151.786 C 18.010 152.139,18.264 152.750,18.571 153.143 C 18.879 153.536,19.133 154.058,19.137 154.303 C 19.140 154.549,19.400 155.025,19.714 155.363 C 20.029 155.700,20.286 156.083,20.286 156.213 C 20.286 156.343,20.796 157.023,21.420 157.725 C 22.045 158.426,22.559 159.097,22.563 159.215 C 22.574 159.500,24.627 161.429,24.919 161.429 C 25.045 161.429,25.552 161.814,26.045 162.286 C 26.538 162.757,27.116 163.143,27.328 163.143 C 27.540 163.143,27.714 163.271,27.714 163.429 C 27.714 163.586,27.971 163.714,28.286 163.714 C 28.600 163.714,28.857 163.843,28.857 164.000 C 28.857 164.157,29.116 164.286,29.432 164.286 C 29.749 164.286,30.263 164.414,30.575 164.571 C 30.887 164.729,31.398 164.986,31.710 165.143 C 32.023 165.300,32.658 165.429,33.122 165.429 C 33.586 165.429,34.046 165.557,34.143 165.714 C 34.251 165.890,36.574 166.000,40.160 166.000 C 43.863 166.000,46.000 165.895,46.000 165.714 C 46.000 165.557,46.442 165.429,46.983 165.429 C 47.524 165.429,48.046 165.300,48.143 165.143 C 48.240 164.986,48.565 164.857,48.865 164.857 C 49.541 164.857,52.194 163.432,53.254 162.500 C 53.566 162.225,53.929 162.000,54.060 162.000 C 54.396 162.000,57.153 159.198,57.996 158.000 C 58.382 157.450,58.927 156.751,59.207 156.446 C 59.486 156.141,59.714 155.724,59.714 155.518 C 59.714 155.311,59.811 155.142,59.929 155.141 C 60.046 155.139,60.284 154.850,60.457 154.498 C 61.302 152.778,62.164 151.276,62.357 151.190 C 62.475 151.138,62.571 150.856,62.571 150.564 C 62.571 150.273,62.700 149.954,62.857 149.857 C 63.613 149.390,62.847 147.714,61.878 147.714 C 61.631 147.714,61.429 147.586,61.429 147.429 C 61.429 147.271,61.043 147.143,60.571 147.143 C 60.100 147.143,59.714 147.014,59.714 146.857 C 59.714 146.700,59.457 146.571,59.143 146.571 C 58.829 146.571,58.571 146.443,58.571 146.286 C 58.571 146.129,58.258 146.000,57.874 146.000 C 57.490 146.000,57.097 145.871,57.000 145.714 C 56.357 144.674,54.028 145.730,54.009 147.071 C 54.004 147.425,53.871 147.714,53.714 147.714 C 53.557 147.714,53.429 147.971,53.429 148.286 C 53.429 148.600,53.300 148.857,53.143 148.857 C 52.986 148.857,52.857 149.026,52.857 149.232 C 52.857 149.438,52.600 149.883,52.286 150.220 C 51.971 150.557,51.714 151.003,51.714 151.211 C 51.714 151.418,51.457 151.773,51.143 152.000 C 50.829 152.227,50.571 152.562,50.571 152.744 C 50.571 152.927,50.282 153.269,49.929 153.505 C 49.575 153.740,48.749 154.462,48.094 155.109 C 47.438 155.756,46.699 156.286,46.451 156.286 C 46.203 156.286,46.000 156.414,46.000 156.571 C 46.000 156.729,45.743 156.857,45.429 156.857 C 45.114 156.857,44.857 156.986,44.857 157.143 C 44.857 157.300,44.471 157.429,44.000 157.429 C 43.529 157.429,43.143 157.557,43.143 157.714 C 43.143 157.886,42.000 158.000,40.286 158.000 C 38.571 158.000,37.429 157.886,37.429 157.714 C 37.429 157.557,37.050 157.429,36.588 157.429 C 36.126 157.429,35.669 157.300,35.571 157.143 C 35.474 156.986,35.081 156.857,34.697 156.857 C 34.314 156.857,34.000 156.750,34.000 156.620 C 34.000 156.489,33.646 156.200,33.214 155.977 C 32.116 155.410,29.429 152.702,29.429 152.161 C 29.429 151.916,29.300 151.714,29.143 151.714 C 28.986 151.714,28.854 151.554,28.851 151.357 C 28.847 151.161,28.593 150.679,28.286 150.286 C 27.978 149.893,27.724 149.282,27.721 148.929 C 27.717 148.575,27.586 148.286,27.429 148.286 C 27.271 148.286,27.143 147.900,27.143 147.429 C 27.143 146.957,27.014 146.571,26.857 146.571 C 26.700 146.571,26.571 146.057,26.571 145.429 C 26.571 144.800,26.455 144.286,26.313 144.286 C 25.860 144.286,25.661 141.490,25.535 133.357 C 25.452 128.026,25.508 125.429,25.706 125.429 C 25.868 125.429,26.000 124.795,26.000 124.017 C 26.000 123.240,26.129 122.526,26.286 122.429 C 26.443 122.331,26.571 121.810,26.571 121.269 C 26.571 120.728,26.700 120.286,26.857 120.286 C 27.014 120.286,27.143 119.900,27.143 119.429 C 27.143 118.957,27.271 118.571,27.429 118.571 C 27.586 118.571,27.717 118.282,27.721 117.929 C 27.724 117.575,27.978 116.964,28.286 116.571 C 28.593 116.179,28.847 115.696,28.851 115.500 C 28.854 115.304,28.964 115.143,29.095 115.143 C 29.225 115.143,29.514 114.789,29.737 114.357 C 30.210 113.441,31.286 112.286,31.666 112.286 C 31.811 112.286,32.088 112.096,32.281 111.863 C 32.697 111.362,34.213 110.571,34.758 110.571 C 34.970 110.571,35.143 110.443,35.143 110.286 C 35.143 110.129,35.585 110.000,36.126 110.000 C 36.667 110.000,37.189 109.871,37.286 109.714 C 37.383 109.557,38.612 109.429,40.017 109.429 C 41.529 109.429,42.571 109.545,42.571 109.714 C 42.571 109.871,42.957 110.000,43.429 110.000 C 43.900 110.000,44.286 110.129,44.286 110.286 C 44.286 110.443,44.543 110.571,44.857 110.571 C 45.171 110.571,45.429 110.700,45.429 110.857 C 45.429 111.014,45.657 111.143,45.937 111.143 C 46.217 111.143,46.631 111.400,46.857 111.714 C 47.084 112.029,47.420 112.286,47.605 112.286 C 47.790 112.286,48.348 112.768,48.845 113.357 C 49.342 113.946,50.063 114.784,50.446 115.219 C 50.829 115.654,51.143 116.201,51.143 116.434 C 51.143 116.667,51.239 116.858,51.357 116.859 C 51.614 116.862,52.286 118.246,52.286 118.771 C 52.286 118.976,52.414 119.143,52.571 119.143 C 52.729 119.143,52.857 119.400,52.857 119.714 C 52.857 120.342,55.207 120.590,55.571 120.000 C 55.669 119.843,55.998 119.714,56.303 119.714 C 56.608 119.714,56.857 119.586,56.857 119.429 C 56.857 119.271,57.116 119.143,57.432 119.143 C 57.749 119.143,58.263 119.014,58.575 118.857 C 58.887 118.700,59.398 118.443,59.710 118.286 C 60.023 118.129,60.482 118.000,60.731 118.000 C 60.980 118.000,61.367 117.816,61.592 117.592 C 62.060 117.124,62.139 116.286,61.714 116.286 C 61.557 116.286,61.426 115.996,61.422 115.643 C 61.419 115.289,61.164 114.679,60.857 114.286 C 60.550 113.893,60.296 113.371,60.292 113.125 C 60.289 112.880,60.029 112.403,59.714 112.066 C 59.400 111.728,59.143 111.283,59.143 111.075 C 59.143 110.867,58.886 110.512,58.571 110.286 C 58.257 110.059,58.000 109.701,58.000 109.489 C 58.000 108.984,53.774 104.857,53.256 104.857 C 53.037 104.857,52.857 104.750,52.857 104.620 C 52.857 104.379,52.679 104.282,50.143 103.148 C 49.357 102.796,48.491 102.394,48.218 102.254 C 47.945 102.115,47.335 102.000,46.861 102.000 C 46.387 102.000,46.000 101.871,46.000 101.714 C 46.000 101.532,43.714 101.429,39.714 101.429 C 35.714 101.429,33.429 101.532,33.429 101.714 M179.602 102.808 C 179.396 103.141,179.730 104.286,180.033 104.286 C 180.172 104.286,180.286 104.454,180.286 104.660 C 180.286 104.866,180.543 105.311,180.857 105.648 C 181.171 105.986,181.429 106.432,181.429 106.639 C 181.429 106.847,181.686 107.202,182.000 107.429 C 182.314 107.655,182.571 108.069,182.571 108.349 C 182.571 108.628,182.700 108.857,182.857 108.857 C 183.014 108.857,183.143 109.018,183.144 109.214 C 183.144 109.411,183.529 110.021,184.000 110.571 C 184.471 111.121,184.856 111.732,184.856 111.929 C 184.857 112.125,184.986 112.286,185.143 112.286 C 185.300 112.286,185.429 112.496,185.429 112.752 C 185.429 113.009,185.656 113.427,185.933 113.681 C 186.211 113.935,186.746 114.754,187.121 115.500 C 187.497 116.246,187.912 116.857,188.045 116.857 C 188.177 116.857,188.286 117.086,188.286 117.365 C 188.286 117.645,188.543 118.059,188.857 118.286 C 189.171 118.512,189.429 118.898,189.429 119.143 C 189.429 119.388,189.686 119.773,190.000 120.000 C 190.314 120.227,190.571 120.641,190.571 120.920 C 190.571 121.200,190.700 121.429,190.857 121.429 C 191.014 121.429,191.143 121.589,191.143 121.786 C 191.143 121.982,191.462 122.513,191.851 122.966 C 192.241 123.418,192.478 123.920,192.378 124.081 C 192.274 124.249,192.338 124.287,192.527 124.170 C 192.723 124.049,192.857 124.148,192.857 124.412 C 192.857 124.657,192.986 124.857,193.143 124.857 C 193.300 124.857,193.429 125.086,193.429 125.365 C 193.429 125.645,193.686 126.059,194.000 126.286 C 194.314 126.512,194.571 126.926,194.571 127.206 C 194.571 127.486,194.700 127.714,194.857 127.714 C 195.014 127.714,195.143 127.883,195.143 128.089 C 195.143 128.295,195.400 128.740,195.714 129.077 C 196.029 129.414,196.286 129.860,196.286 130.068 C 196.286 130.275,196.543 130.631,196.857 130.857 C 197.171 131.084,197.429 131.439,197.429 131.646 C 197.429 131.854,197.686 132.300,198.000 132.637 C 198.314 132.975,198.571 133.419,198.571 133.625 C 198.571 133.831,198.700 134.000,198.857 134.000 C 199.014 134.000,199.143 134.169,199.143 134.375 C 199.143 134.581,199.400 135.025,199.714 135.363 C 200.029 135.700,200.286 136.146,200.286 136.354 C 200.286 136.561,200.543 136.916,200.857 137.143 C 201.415 137.545,201.429 137.882,201.429 151.206 L 201.429 164.857 206.286 164.857 L 211.143 164.857 211.143 151.429 C 211.143 142.667,211.242 138.000,211.429 138.000 C 211.586 138.000,211.714 137.743,211.714 137.429 C 211.714 137.114,211.843 136.857,212.000 136.857 C 212.157 136.857,212.286 136.657,212.286 136.412 C 212.286 136.148,212.420 136.049,212.616 136.170 C 212.805 136.287,212.868 136.249,212.765 136.081 C 212.665 135.920,212.902 135.418,213.292 134.966 C 213.681 134.513,213.999 133.982,214.000 133.786 C 214.000 133.589,214.129 133.429,214.286 133.429 C 214.443 133.429,214.571 133.200,214.571 132.920 C 214.571 132.641,214.829 132.227,215.143 132.000 C 215.457 131.773,215.714 131.388,215.714 131.143 C 215.714 130.898,215.971 130.512,216.286 130.286 C 216.600 130.059,216.857 129.645,216.857 129.365 C 216.857 129.086,216.966 128.857,217.098 128.857 C 217.230 128.857,217.646 128.246,218.022 127.500 C 218.397 126.754,218.932 125.935,219.209 125.681 C 219.487 125.427,219.714 125.009,219.714 124.752 C 219.714 124.496,219.843 124.286,220.000 124.286 C 220.157 124.286,220.286 124.125,220.286 123.929 C 220.287 123.732,220.672 123.121,221.143 122.571 C 221.614 122.021,221.999 121.411,221.999 121.214 C 222.000 121.018,222.129 120.857,222.286 120.857 C 222.443 120.857,222.571 120.628,222.571 120.349 C 222.571 120.069,222.829 119.655,223.143 119.429 C 223.457 119.202,223.714 118.847,223.714 118.639 C 223.714 118.432,223.971 117.986,224.286 117.648 C 224.600 117.311,224.857 116.866,224.857 116.660 C 224.857 116.454,224.986 116.286,225.143 116.286 C 225.300 116.286,225.429 116.117,225.429 115.911 C 225.429 115.705,225.686 115.260,226.000 114.923 C 226.314 114.586,226.571 114.111,226.571 113.869 C 226.571 113.627,226.678 113.429,226.809 113.429 C 226.939 113.429,227.229 113.075,227.452 112.643 C 227.675 112.211,228.082 111.608,228.357 111.303 C 228.632 110.999,228.857 110.581,228.857 110.375 C 228.857 110.169,228.986 110.000,229.143 110.000 C 229.300 110.000,229.429 109.831,229.429 109.625 C 229.429 109.419,229.686 108.975,230.000 108.637 C 230.314 108.300,230.571 107.854,230.571 107.646 C 230.571 107.439,230.829 107.084,231.143 106.857 C 231.457 106.631,231.714 106.275,231.714 106.068 C 231.714 105.860,231.971 105.414,232.286 105.077 C 232.600 104.740,232.857 104.295,232.857 104.089 C 232.857 103.883,232.986 103.714,233.143 103.714 C 233.300 103.714,233.429 103.457,233.429 103.143 C 233.429 102.592,233.238 102.571,228.024 102.571 L 222.619 102.571 222.240 103.429 C 222.031 103.900,221.763 104.286,221.645 104.286 C 221.526 104.286,221.429 104.514,221.429 104.794 C 221.429 105.074,221.171 105.488,220.857 105.714 C 220.543 105.941,220.286 106.355,220.286 106.635 C 220.286 106.914,220.157 107.143,220.000 107.143 C 219.843 107.143,219.714 107.311,219.714 107.518 C 219.714 107.724,219.457 108.168,219.143 108.506 C 218.829 108.843,218.571 109.258,218.571 109.429 C 218.571 109.599,218.314 110.014,218.000 110.352 C 217.686 110.689,217.429 111.134,217.429 111.340 C 217.429 111.546,217.300 111.714,217.143 111.714 C 216.986 111.714,216.857 111.913,216.857 112.155 C 216.857 112.397,216.600 112.871,216.286 113.209 C 215.971 113.546,215.714 113.991,215.714 114.197 C 215.714 114.403,215.586 114.571,215.429 114.571 C 215.271 114.571,215.143 114.800,215.143 115.080 C 215.143 115.359,214.886 115.773,214.571 116.000 C 214.257 116.227,214.000 116.641,214.000 116.920 C 214.000 117.200,213.871 117.429,213.714 117.429 C 213.557 117.429,213.429 117.597,213.429 117.803 C 213.429 118.009,213.171 118.454,212.857 118.791 C 212.543 119.129,212.286 119.544,212.286 119.714 C 212.286 119.885,212.029 120.300,211.714 120.637 C 211.400 120.975,211.143 121.419,211.143 121.625 C 211.143 121.831,211.014 122.000,210.857 122.000 C 210.700 122.000,210.571 122.229,210.571 122.508 C 210.571 122.788,210.314 123.202,210.000 123.429 C 209.686 123.655,209.429 124.069,209.429 124.349 C 209.429 124.628,209.300 124.857,209.143 124.857 C 208.986 124.857,208.857 125.055,208.857 125.298 C 208.857 125.540,208.600 126.014,208.286 126.352 C 207.971 126.689,207.714 127.134,207.714 127.340 C 207.714 127.546,207.586 127.714,207.429 127.714 C 207.271 127.714,207.139 127.875,207.134 128.071 C 207.112 128.934,206.282 129.618,206.100 128.924 C 206.009 128.573,205.820 128.286,205.681 128.286 C 205.542 128.286,205.429 128.029,205.429 127.714 C 205.429 127.400,205.300 127.143,205.143 127.143 C 204.986 127.143,204.857 126.974,204.857 126.768 C 204.857 126.562,204.600 126.117,204.286 125.780 C 203.971 125.443,203.714 124.997,203.714 124.789 C 203.714 124.582,203.457 124.227,203.143 124.000 C 202.829 123.773,202.571 123.418,202.571 123.211 C 202.571 123.003,202.314 122.557,202.000 122.220 C 201.686 121.883,201.429 121.438,201.429 121.232 C 201.429 121.026,201.300 120.857,201.143 120.857 C 200.986 120.857,200.857 120.600,200.857 120.286 C 200.857 119.971,200.729 119.714,200.571 119.714 C 200.414 119.714,200.286 119.546,200.286 119.340 C 200.286 119.134,200.029 118.689,199.714 118.352 C 199.400 118.014,199.143 117.568,199.143 117.361 C 199.143 117.153,198.886 116.798,198.571 116.571 C 198.257 116.345,198.000 115.990,198.000 115.782 C 198.000 115.575,197.743 115.129,197.429 114.791 C 197.114 114.454,196.857 114.009,196.857 113.803 C 196.857 113.597,196.729 113.429,196.571 113.429 C 196.414 113.429,196.286 113.171,196.286 112.857 C 196.286 112.543,196.157 112.286,196.000 112.286 C 195.843 112.286,195.714 112.117,195.714 111.911 C 195.714 111.705,195.457 111.260,195.143 110.923 C 194.829 110.586,194.571 110.140,194.571 109.932 C 194.571 109.725,194.314 109.369,194.000 109.143 C 193.686 108.916,193.429 108.561,193.429 108.354 C 193.429 108.146,193.171 107.700,192.857 107.363 C 192.543 107.025,192.286 106.581,192.286 106.375 C 192.286 106.169,192.157 106.000,192.000 106.000 C 191.843 106.000,191.714 105.743,191.714 105.429 C 191.714 105.114,191.586 104.857,191.429 104.857 C 191.271 104.857,191.143 104.696,191.143 104.500 C 191.142 104.304,190.838 103.789,190.466 103.357 L 189.791 102.571 184.769 102.571 C 182.008 102.571,179.682 102.678,179.602 102.808 M240.286 125.840 C 240.286 141.045,240.385 149.170,240.571 149.286 C 240.729 149.383,240.857 150.026,240.857 150.714 C 240.857 151.403,240.986 152.046,241.143 152.143 C 241.300 152.240,241.429 152.826,241.429 153.445 C 241.429 154.065,241.557 154.571,241.714 154.571 C 241.871 154.571,242.000 154.885,242.000 155.269 C 242.000 155.652,242.129 156.046,242.286 156.143 C 242.443 156.240,242.571 156.569,242.571 156.874 C 242.571 157.179,242.700 157.429,242.857 157.429 C 243.014 157.429,243.143 157.589,243.144 157.786 C 243.144 157.982,243.529 158.593,244.000 159.143 C 244.471 159.693,244.856 160.254,244.856 160.390 C 244.857 160.697,246.880 162.571,247.211 162.571 C 247.344 162.571,247.728 162.829,248.066 163.143 C 248.403 163.457,248.904 163.714,249.180 163.714 C 249.455 163.714,249.760 163.843,249.857 164.000 C 249.954 164.157,250.283 164.286,250.588 164.286 C 250.893 164.286,251.143 164.414,251.143 164.571 C 251.143 164.729,251.529 164.857,252.000 164.857 C 252.471 164.857,252.857 164.986,252.857 165.143 C 252.857 165.300,253.371 165.429,254.000 165.429 C 254.629 165.429,255.143 165.557,255.143 165.714 C 255.143 165.897,257.619 166.000,262.000 166.000 C 266.381 166.000,268.857 165.897,268.857 165.714 C 268.857 165.557,269.364 165.429,269.983 165.429 C 270.602 165.429,271.189 165.300,271.286 165.143 C 271.383 164.986,271.833 164.857,272.286 164.857 C 272.739 164.857,273.189 164.729,273.286 164.571 C 273.383 164.414,273.712 164.286,274.017 164.286 C 274.322 164.286,274.571 164.157,274.571 164.000 C 274.571 163.843,274.829 163.714,275.143 163.714 C 275.457 163.714,275.714 163.586,275.714 163.429 C 275.714 163.271,275.894 163.143,276.114 163.143 C 276.669 163.143,280.857 158.998,280.857 158.448 C 280.857 158.202,280.986 158.000,281.143 158.000 C 281.300 158.000,281.429 157.743,281.429 157.429 C 281.429 157.114,281.557 156.857,281.714 156.857 C 281.871 156.857,282.000 156.600,282.000 156.286 C 282.000 155.971,282.129 155.714,282.286 155.714 C 282.443 155.714,282.571 155.465,282.571 155.160 C 282.571 154.855,282.700 154.526,282.857 154.429 C 283.014 154.331,283.143 153.810,283.143 153.269 C 283.143 152.728,283.271 152.286,283.429 152.286 C 283.586 152.286,283.714 151.643,283.714 150.857 C 283.714 150.071,283.843 149.429,284.000 149.429 C 284.188 149.429,284.286 141.429,284.286 126.000 L 284.286 102.571 279.429 102.571 L 274.571 102.571 274.571 124.857 C 274.571 139.524,274.474 147.143,274.286 147.143 C 274.129 147.143,274.000 147.786,274.000 148.571 C 274.000 149.357,273.871 150.000,273.714 150.000 C 273.557 150.000,273.429 150.386,273.429 150.857 C 273.429 151.329,273.300 151.714,273.143 151.714 C 272.986 151.714,272.857 151.971,272.857 152.286 C 272.857 152.600,272.729 152.857,272.571 152.857 C 272.414 152.857,272.286 153.053,272.286 153.293 C 272.286 153.860,269.860 156.286,269.293 156.286 C 269.053 156.286,268.857 156.414,268.857 156.571 C 268.857 156.729,268.600 156.857,268.286 156.857 C 267.971 156.857,267.714 156.986,267.714 157.143 C 267.714 157.300,267.200 157.429,266.571 157.429 C 265.943 157.429,265.429 157.557,265.429 157.714 C 265.429 157.889,264.095 158.000,262.000 158.000 C 259.905 158.000,258.571 157.889,258.571 157.714 C 258.571 157.557,258.057 157.429,257.429 157.429 C 256.800 157.429,256.286 157.300,256.286 157.143 C 256.286 156.986,256.029 156.857,255.714 156.857 C 255.400 156.857,255.143 156.750,255.143 156.620 C 255.143 156.489,254.789 156.200,254.357 155.977 C 253.353 155.459,252.857 154.988,252.857 154.554 C 252.857 154.365,252.600 153.987,252.286 153.714 C 251.971 153.442,251.687 152.889,251.654 152.487 C 251.620 152.085,251.492 151.818,251.368 151.895 C 251.244 151.971,251.143 151.576,251.143 151.017 C 251.143 150.458,251.014 150.000,250.857 150.000 C 250.696 150.000,250.571 149.196,250.571 148.160 C 250.571 147.148,250.443 146.240,250.286 146.143 C 250.099 146.028,250.000 138.426,250.000 124.269 L 250.000 102.571 245.143 102.571 L 240.286 102.571 240.286 125.840 M143.000 114.286 C 142.903 114.443,142.389 114.571,141.857 114.571 C 141.326 114.571,140.811 114.700,140.714 114.857 C 140.617 115.014,140.224 115.143,139.840 115.143 C 139.457 115.143,139.143 115.271,139.143 115.429 C 139.143 115.586,138.854 115.717,138.500 115.721 C 138.146 115.724,137.536 115.978,137.143 116.286 C 136.750 116.593,136.315 116.847,136.176 116.851 C 136.038 116.854,135.716 117.093,135.462 117.381 C 135.208 117.669,134.646 118.134,134.214 118.414 C 133.782 118.694,133.429 119.054,133.429 119.214 C 133.429 119.374,133.203 119.712,132.927 119.966 C 132.651 120.221,132.243 120.782,132.021 121.214 C 131.799 121.646,131.511 122.000,131.380 122.000 C 131.250 122.000,131.143 122.250,131.143 122.555 C 131.143 122.860,131.014 123.189,130.857 123.286 C 130.700 123.383,130.571 123.769,130.571 124.143 C 130.571 124.517,130.443 124.903,130.286 125.000 C 130.129 125.097,130.000 125.876,130.000 126.731 L 130.000 128.286 131.126 128.286 C 131.745 128.286,132.331 128.414,132.429 128.571 C 132.531 128.737,134.098 128.857,136.160 128.857 L 139.714 128.857 139.714 127.714 C 139.714 127.086,139.843 126.571,140.000 126.571 C 140.157 126.571,140.286 126.314,140.286 126.000 C 140.286 125.686,140.414 125.429,140.571 125.429 C 140.729 125.429,140.857 125.231,140.857 124.990 C 140.857 124.175,143.452 122.000,144.425 122.000 C 144.663 122.000,144.857 121.871,144.857 121.714 C 144.857 121.555,145.620 121.429,146.575 121.429 C 147.520 121.429,148.549 121.269,148.861 121.074 C 149.313 120.792,149.544 120.792,149.996 121.074 C 150.308 121.269,151.208 121.429,151.996 121.429 C 152.784 121.429,153.429 121.557,153.429 121.714 C 153.429 121.871,153.726 122.000,154.089 122.000 C 154.452 122.000,154.999 122.231,155.303 122.514 C 155.608 122.797,156.082 123.115,156.357 123.220 C 156.632 123.325,156.857 123.579,156.857 123.785 C 156.857 123.991,157.114 124.345,157.429 124.571 C 157.743 124.798,158.000 125.204,158.000 125.475 C 158.000 125.745,158.129 126.046,158.286 126.143 C 158.443 126.240,158.571 126.762,158.571 127.303 C 158.571 127.843,158.700 128.286,158.857 128.286 C 159.029 128.286,159.143 129.429,159.143 131.143 L 159.143 134.000 151.357 134.034 C 147.075 134.052,143.465 134.049,143.336 134.027 C 143.206 134.004,143.182 134.118,143.281 134.279 C 143.397 134.465,142.886 134.571,141.874 134.571 C 141.000 134.571,140.286 134.700,140.286 134.857 C 140.286 135.014,139.771 135.143,139.143 135.143 C 138.514 135.143,138.000 135.271,138.000 135.429 C 138.000 135.586,137.686 135.714,137.303 135.714 C 136.919 135.714,136.526 135.843,136.429 136.000 C 136.331 136.157,136.002 136.286,135.697 136.286 C 135.392 136.286,135.143 136.414,135.143 136.571 C 135.143 136.729,134.969 136.857,134.757 136.857 C 134.544 136.857,133.979 137.231,133.501 137.688 C 133.023 138.145,132.297 138.738,131.887 139.006 C 131.478 139.275,131.143 139.609,131.143 139.750 C 131.143 139.890,130.757 140.409,130.286 140.902 C 129.814 141.395,129.429 142.030,129.429 142.311 C 129.429 142.593,129.300 142.903,129.143 143.000 C 128.986 143.097,128.857 143.426,128.857 143.731 C 128.857 144.036,128.729 144.286,128.571 144.286 C 128.414 144.286,128.286 144.664,128.286 145.126 C 128.286 145.588,128.157 146.046,128.000 146.143 C 127.829 146.249,127.714 148.140,127.714 150.857 C 127.714 153.574,127.829 155.466,128.000 155.571 C 128.157 155.669,128.286 156.119,128.286 156.571 C 128.286 157.024,128.414 157.474,128.571 157.571 C 128.729 157.669,128.857 158.062,128.857 158.445 C 128.857 158.829,128.986 159.143,129.143 159.143 C 129.300 159.143,129.429 159.372,129.429 159.651 C 129.429 159.931,129.686 160.345,130.000 160.571 C 130.314 160.798,130.571 161.135,130.571 161.320 C 130.571 161.793,132.544 163.714,133.029 163.714 C 133.249 163.714,133.430 163.811,133.431 163.929 C 133.433 164.185,134.817 164.857,135.343 164.857 C 135.547 164.857,135.714 164.986,135.714 165.143 C 135.714 165.300,136.092 165.429,136.555 165.429 C 137.017 165.429,137.474 165.557,137.571 165.714 C 137.678 165.888,139.759 166.000,142.857 166.000 C 145.955 166.000,148.036 165.888,148.143 165.714 C 148.240 165.557,148.754 165.429,149.286 165.429 C 149.817 165.429,150.331 165.300,150.429 165.143 C 150.526 164.986,150.855 164.857,151.160 164.857 C 151.465 164.857,151.714 164.729,151.714 164.571 C 151.714 164.414,151.971 164.286,152.286 164.286 C 152.600 164.286,152.857 164.179,152.857 164.048 C 152.857 163.918,153.208 163.628,153.637 163.405 C 154.581 162.915,158.571 158.993,158.571 158.556 C 158.571 158.196,159.399 157.304,159.572 157.477 C 159.636 157.541,159.720 158.062,159.758 158.635 C 159.797 159.208,159.931 159.614,160.057 159.536 C 160.183 159.458,160.286 159.852,160.286 160.412 C 160.286 160.971,160.414 161.429,160.571 161.429 C 160.729 161.429,160.857 161.611,160.857 161.835 C 160.857 162.530,163.405 164.857,164.165 164.857 C 164.546 164.857,164.857 164.986,164.857 165.143 C 164.857 165.605,174.596 165.500,175.214 165.031 C 176.124 164.340,175.948 158.571,175.017 158.571 C 174.633 158.571,174.240 158.700,174.143 158.857 C 174.046 159.014,173.460 159.143,172.840 159.143 C 172.221 159.143,171.714 159.014,171.714 158.857 C 171.714 158.700,171.516 158.571,171.273 158.571 C 170.713 158.571,169.429 157.304,169.429 156.751 C 169.429 156.521,169.302 156.290,169.148 156.238 C 168.969 156.178,168.861 151.320,168.851 142.939 C 168.841 134.811,168.730 129.669,168.561 129.565 C 168.409 129.471,168.286 128.510,168.286 127.429 C 168.286 126.347,168.157 125.383,168.000 125.286 C 167.843 125.189,167.714 124.667,167.714 124.126 C 167.714 123.585,167.586 123.143,167.429 123.143 C 167.271 123.143,167.143 122.886,167.143 122.571 C 167.143 122.257,167.014 122.000,166.857 122.000 C 166.700 122.000,166.571 121.771,166.571 121.492 C 166.571 121.212,166.314 120.798,166.000 120.571 C 165.686 120.345,165.429 119.982,165.429 119.766 C 165.429 119.272,162.901 116.857,162.383 116.857 C 162.172 116.857,162.000 116.729,162.000 116.571 C 162.000 116.414,161.743 116.286,161.429 116.286 C 161.114 116.286,160.857 116.157,160.857 116.000 C 160.857 115.843,160.600 115.714,160.286 115.714 C 159.971 115.714,159.714 115.586,159.714 115.429 C 159.714 115.271,159.465 115.143,159.160 115.143 C 158.855 115.143,158.526 115.014,158.429 114.857 C 158.331 114.700,157.817 114.571,157.286 114.571 C 156.754 114.571,156.240 114.443,156.143 114.286 C 156.034 114.109,153.526 114.000,149.571 114.000 C 145.616 114.000,143.109 114.109,143.000 114.286 M159.143 143.714 C 159.143 145.429,159.029 146.571,158.857 146.571 C 158.700 146.571,158.571 147.086,158.571 147.714 C 158.571 148.343,158.443 148.857,158.286 148.857 C 158.129 148.857,158.000 149.110,158.000 149.420 C 158.000 150.075,157.098 151.765,156.281 152.642 C 155.969 152.977,155.714 153.359,155.714 153.492 C 155.714 153.863,153.948 155.522,153.069 155.977 C 152.638 156.200,152.286 156.489,152.286 156.620 C 152.286 156.750,152.125 156.860,151.929 156.863 C 151.732 156.867,151.250 157.121,150.857 157.429 C 150.464 157.736,149.854 157.990,149.500 157.994 C 149.146 157.997,148.857 158.129,148.857 158.286 C 148.857 158.443,148.114 158.571,147.200 158.571 C 146.289 158.571,145.389 158.726,145.200 158.914 C 144.933 159.181,144.781 159.181,144.514 158.914 C 144.326 158.726,143.690 158.571,143.103 158.571 C 142.515 158.571,141.954 158.443,141.857 158.286 C 141.760 158.129,141.463 158.000,141.197 158.000 C 140.578 157.999,139.143 156.773,139.143 156.244 C 139.143 156.022,138.886 155.655,138.571 155.429 C 138.236 155.187,138.000 154.689,138.000 154.223 C 138.000 153.786,137.871 153.429,137.714 153.429 C 137.545 153.429,137.429 152.381,137.429 150.857 C 137.429 149.333,137.545 148.286,137.714 148.286 C 137.871 148.286,138.000 147.963,138.000 147.568 C 138.000 146.291,141.052 142.571,142.100 142.571 C 142.359 142.571,142.571 142.443,142.571 142.286 C 142.571 142.129,142.885 142.000,143.269 142.000 C 143.652 142.000,144.046 141.871,144.143 141.714 C 144.240 141.557,144.826 141.429,145.445 141.429 C 146.065 141.429,146.571 141.300,146.571 141.143 C 146.571 140.961,148.857 140.857,152.857 140.857 L 159.143 140.857 159.143 143.714 " stroke="none" fill="#3ca4f4" fill-rule="evenodd"></path></g>


</symbol>
</svg>
