<svg xmlns="http://www.w3.org/2000/svg"><symbol id="mastodon-svg-logo" viewBox="0 0 300.4144 550.00976">

<g id="svgg"><path id="path0" d="M184.445 56.546 C 184.156 56.893,182.652 57.186,180.296 57.353 C 172.662 57.892,170.984 58.102,170.400 58.592 C 169.825 59.075,168.806 59.386,166.200 59.873 C 165.540 59.996,164.730 60.323,164.400 60.600 C 164.070 60.876,162.849 61.188,161.687 61.293 C 160.272 61.422,159.272 61.768,158.661 62.343 C 157.979 62.984,157.243 63.200,155.744 63.200 C 154.123 63.200,153.560 63.391,152.800 64.200 C 152.034 65.016,151.481 65.200,149.800 65.200 C 148.149 65.200,147.562 65.389,146.848 66.149 C 146.107 66.938,145.452 67.130,142.956 67.290 C 140.728 67.433,139.656 67.704,138.794 68.341 C 138.155 68.814,137.279 69.200,136.847 69.200 C 136.415 69.200,135.527 69.650,134.873 70.200 C 134.219 70.750,133.247 71.200,132.712 71.200 C 132.177 71.200,131.317 71.650,130.800 72.200 C 130.283 72.750,129.456 73.200,128.961 73.200 C 128.466 73.200,127.527 73.650,126.873 74.200 C 126.219 74.750,125.319 75.200,124.873 75.200 C 124.427 75.200,123.527 75.650,122.873 76.200 C 122.219 76.750,121.477 77.200,121.223 77.200 C 120.969 77.200,120.356 77.638,119.860 78.173 C 118.448 79.697,113.062 79.845,112.676 78.370 C 112.557 77.914,112.103 77.447,111.667 77.333 C 111.231 77.219,110.785 76.785,110.676 76.368 C 110.567 75.951,110.010 75.432,109.439 75.215 C 108.867 74.998,108.400 74.626,108.400 74.389 C 108.400 74.153,107.811 73.713,107.092 73.413 C 106.372 73.112,105.445 72.491,105.030 72.033 C 104.615 71.575,103.795 71.200,103.208 71.200 C 102.585 71.200,101.747 70.783,101.200 70.200 C 100.683 69.650,99.835 69.200,99.314 69.200 C 98.794 69.200,97.820 68.795,97.150 68.300 C 95.305 66.936,62.777 66.877,60.933 68.234 C 60.310 68.693,59.260 69.201,58.600 69.364 C 57.940 69.526,57.040 69.985,56.600 70.384 C 56.160 70.782,55.395 71.231,54.900 71.381 C 54.404 71.531,53.813 72.002,53.586 72.427 C 53.358 72.852,52.887 73.200,52.539 73.200 C 52.191 73.200,51.252 73.736,50.453 74.391 C 49.654 75.046,48.483 75.991,47.850 76.491 C 47.218 76.991,46.318 77.780,45.850 78.244 C 45.383 78.709,44.621 79.208,44.158 79.353 C 42.786 79.783,35.570 87.249,35.321 88.496 C 35.199 89.103,34.952 89.600,34.771 89.600 C 33.985 89.600,31.590 93.965,31.348 95.841 C 31.205 96.945,30.743 98.187,30.290 98.687 C 29.783 99.246,29.410 100.355,29.282 101.685 C 29.162 102.933,28.736 104.259,28.240 104.932 C 26.926 106.708,26.936 129.306,28.251 131.084 C 28.719 131.717,29.231 133.169,29.388 134.310 C 29.545 135.451,30.017 136.822,30.436 137.356 C 30.856 137.889,31.200 138.689,31.200 139.132 C 31.200 139.576,31.650 140.473,32.200 141.127 C 32.750 141.781,33.200 142.670,33.200 143.103 C 33.200 143.847,34.579 145.956,36.311 147.862 C 36.742 148.336,37.202 149.154,37.334 149.680 C 37.620 150.819,42.963 156.272,44.162 156.648 C 44.623 156.793,45.383 157.291,45.850 157.756 C 46.318 158.220,47.218 159.009,47.850 159.509 C 48.483 160.009,49.654 160.954,50.453 161.609 C 51.252 162.264,52.197 162.800,52.553 162.800 C 53.711 162.800,53.438 166.687,52.200 167.835 C 51.339 168.633,51.200 169.109,51.200 171.255 C 51.200 173.291,51.035 173.924,50.300 174.705 C 49.482 175.575,49.388 176.123,49.267 180.731 C 49.176 184.214,48.969 185.988,48.604 186.400 C 46.837 188.396,46.828 223.626,48.594 225.600 C 48.956 226.005,49.174 227.673,49.265 230.736 C 49.388 234.872,49.479 235.336,50.300 236.000 C 51.076 236.628,51.200 237.108,51.200 239.494 C 51.200 241.896,51.326 242.379,52.159 243.162 C 52.982 243.934,53.138 244.510,53.261 247.201 C 53.378 249.783,53.562 250.508,54.302 251.295 C 54.796 251.821,55.200 252.631,55.200 253.095 C 55.200 253.559,55.625 254.447,56.144 255.069 C 56.885 255.957,57.131 256.830,57.293 259.133 C 57.435 261.170,57.738 262.391,58.283 263.133 C 58.715 263.720,59.201 264.740,59.364 265.400 C 59.526 266.060,59.982 266.960,60.377 267.400 C 60.772 267.840,61.222 268.740,61.377 269.400 C 61.532 270.060,61.982 270.960,62.377 271.400 C 62.772 271.840,63.220 272.725,63.372 273.366 C 63.644 274.514,64.583 275.960,66.248 277.797 C 66.715 278.312,67.205 279.164,67.337 279.690 C 67.469 280.217,68.383 281.442,69.367 282.412 C 70.352 283.382,71.259 284.581,71.383 285.076 C 71.508 285.572,71.967 286.168,72.405 286.403 C 72.842 286.637,73.200 287.086,73.200 287.400 C 73.200 288.275,75.588 290.800,76.414 290.800 C 76.817 290.800,77.257 291.151,77.394 291.580 C 77.530 292.008,78.012 292.477,78.465 292.621 C 78.918 292.765,79.764 293.419,80.345 294.075 C 80.925 294.731,81.895 295.799,82.500 296.448 C 83.105 297.097,83.600 297.789,83.600 297.987 C 83.600 298.184,83.941 298.454,84.357 298.586 C 84.773 298.718,85.210 299.194,85.327 299.643 C 85.445 300.092,85.897 300.553,86.333 300.667 C 86.769 300.781,87.219 301.231,87.333 301.667 C 87.447 302.103,87.914 302.557,88.370 302.676 C 88.827 302.796,89.200 303.214,89.200 303.605 C 89.200 304.342,91.703 306.800,92.454 306.800 C 92.688 306.800,93.743 307.655,94.798 308.700 C 95.853 309.745,97.230 311.009,97.858 311.509 C 98.486 312.009,99.654 312.954,100.453 313.609 C 101.252 314.264,102.190 314.800,102.539 314.800 C 102.887 314.800,103.583 315.176,104.086 315.636 C 106.542 317.884,108.147 318.800,109.628 318.800 C 110.805 318.800,111.204 318.983,111.405 319.616 C 111.557 320.095,112.137 320.527,112.804 320.661 C 113.431 320.786,114.348 321.319,114.842 321.844 C 115.350 322.386,116.199 322.800,116.800 322.800 C 117.414 322.800,118.256 323.221,118.800 323.800 C 119.344 324.379,120.186 324.800,120.800 324.800 C 121.414 324.800,122.256 325.221,122.800 325.800 C 123.344 326.379,124.186 326.800,124.800 326.800 C 125.414 326.800,126.256 327.221,126.800 327.800 C 127.318 328.352,128.190 328.800,128.744 328.800 C 129.296 328.800,130.159 329.186,130.661 329.657 C 131.273 330.232,132.271 330.578,133.687 330.705 C 135.052 330.828,136.117 331.185,136.697 331.715 C 137.292 332.258,138.327 332.594,139.772 332.714 C 141.399 332.849,142.176 333.136,142.845 333.847 C 143.337 334.371,144.165 334.800,144.686 334.800 C 145.206 334.800,146.150 335.183,146.784 335.651 C 147.618 336.268,148.742 336.560,150.866 336.712 C 152.906 336.858,154.122 337.162,154.866 337.712 C 155.616 338.267,156.809 338.561,158.867 338.699 C 161.061 338.847,162.023 339.100,162.687 339.706 C 163.255 340.224,164.333 340.584,165.687 340.707 C 166.849 340.812,168.070 341.117,168.400 341.385 C 169.401 342.197,175.054 342.805,181.569 342.803 C 186.879 342.800,187.844 342.897,188.509 343.499 C 189.640 344.522,214.291 344.571,215.460 343.551 C 216.055 343.032,217.570 342.859,223.181 342.668 C 229.202 342.463,230.305 342.325,231.200 341.663 C 231.949 341.110,233.090 340.853,235.294 340.741 C 237.719 340.619,238.540 340.411,239.275 339.734 C 240.013 339.053,240.823 338.851,243.275 338.734 C 245.726 338.617,246.537 338.414,247.275 337.734 C 248.013 337.053,248.823 336.851,251.275 336.734 C 253.713 336.617,254.541 336.412,255.275 335.741 C 255.884 335.184,256.921 334.831,258.313 334.705 C 259.679 334.582,260.740 334.226,261.313 333.699 C 261.836 333.219,263.059 332.769,264.292 332.605 C 265.443 332.452,266.822 331.983,267.356 331.564 C 267.889 331.144,268.689 330.800,269.132 330.800 C 269.576 330.800,270.473 330.350,271.127 329.800 C 271.844 329.196,272.815 328.800,273.576 328.800 C 274.387 328.800,275.193 328.444,275.836 327.800 C 276.459 327.177,277.290 326.800,278.037 326.800 C 278.804 326.800,279.573 326.439,280.165 325.800 C 280.675 325.250,281.405 324.800,281.788 324.800 C 282.171 324.800,282.839 324.350,283.271 323.800 C 283.841 323.076,284.442 322.800,285.447 322.800 C 286.396 322.800,287.154 322.483,287.836 321.800 C 288.386 321.250,289.157 320.800,289.548 320.800 C 289.940 320.800,290.683 320.350,291.200 319.800 C 291.717 319.250,292.578 318.800,293.115 318.800 C 294.022 318.800,295.399 317.896,297.837 315.700 C 298.387 315.205,299.119 314.800,299.465 314.800 C 299.811 314.800,300.748 314.264,301.547 313.609 C 302.346 312.954,303.510 312.009,304.133 311.509 C 305.664 310.280,314.352 301.575,315.600 300.019 C 316.150 299.333,317.544 297.744,318.698 296.486 C 319.852 295.229,320.797 293.906,320.798 293.547 C 320.799 293.187,321.173 292.796,321.630 292.676 C 322.086 292.557,322.553 292.103,322.667 291.667 C 322.781 291.231,323.231 290.781,323.667 290.667 C 324.103 290.553,324.553 290.103,324.667 289.667 C 324.781 289.231,325.231 288.781,325.667 288.667 C 326.103 288.553,326.555 288.092,326.673 287.643 C 326.790 287.194,327.227 286.718,327.643 286.586 C 328.059 286.454,328.400 286.184,328.400 285.987 C 328.400 285.789,328.895 285.097,329.500 284.448 C 332.548 281.181,334.800 278.022,334.800 277.015 C 334.800 276.533,335.250 275.717,335.800 275.200 C 336.379 274.656,336.800 273.814,336.800 273.200 C 336.800 272.586,337.221 271.744,337.800 271.200 C 338.379 270.656,338.800 269.814,338.800 269.200 C 338.800 268.586,339.221 267.744,339.800 267.200 C 340.350 266.683,340.800 265.940,340.800 265.548 C 340.800 265.157,341.250 264.386,341.800 263.836 C 342.471 263.165,342.800 262.393,342.800 261.488 C 342.800 260.567,343.117 259.842,343.800 259.200 C 344.350 258.683,344.800 257.835,344.800 257.314 C 344.800 256.794,345.204 255.821,345.698 255.153 C 346.480 254.095,346.615 253.343,346.742 249.343 C 346.876 245.133,346.968 244.668,347.844 243.792 C 348.682 242.954,348.800 242.466,348.800 239.836 C 348.800 237.170,348.911 236.725,349.800 235.836 L 350.800 234.836 350.800 206.288 L 350.800 177.739 349.800 176.800 C 348.888 175.943,348.800 175.567,348.800 172.512 C 348.800 169.474,348.707 169.071,347.800 168.164 C 346.558 166.922,346.287 162.800,347.447 162.800 C 347.803 162.800,348.748 162.264,349.547 161.609 C 350.346 160.954,351.511 160.009,352.135 159.509 C 352.759 159.009,353.800 158.105,354.448 157.500 C 355.097 156.895,355.789 156.400,355.987 156.400 C 356.184 156.400,356.457 156.049,356.594 155.620 C 356.730 155.192,357.183 154.733,357.600 154.600 C 358.017 154.467,358.473 154.000,358.612 153.561 C 358.878 152.724,359.170 152.358,362.415 148.800 C 363.519 147.590,364.530 146.180,364.663 145.666 C 364.795 145.153,365.330 144.306,365.852 143.785 C 366.373 143.263,366.800 142.386,366.800 141.836 C 366.800 141.286,367.250 140.386,367.800 139.836 C 368.454 139.182,368.800 138.389,368.800 137.544 C 368.800 136.757,369.149 135.880,369.694 135.300 C 370.422 134.525,370.614 133.781,370.734 131.275 C 370.851 128.814,371.052 128.014,371.740 127.269 C 373.314 125.565,373.035 108.378,371.402 106.400 C 371.129 106.070,370.789 104.450,370.646 102.800 C 370.480 100.876,370.126 99.441,369.659 98.800 C 369.259 98.250,368.799 97.260,368.636 96.600 C 368.474 95.940,368.018 95.040,367.623 94.600 C 367.228 94.160,366.780 93.275,366.628 92.634 C 366.263 91.096,363.905 88.106,359.628 83.758 C 359.173 83.295,358.800 82.638,358.800 82.299 C 358.800 81.626,356.242 79.200,355.532 79.200 C 355.290 79.200,354.689 78.795,354.196 78.300 C 353.703 77.805,352.732 76.950,352.037 76.400 C 351.343 75.850,349.926 74.620,348.888 73.667 C 346.835 71.784,345.707 71.200,344.120 71.200 C 343.537 71.200,342.690 70.767,342.165 70.200 C 341.556 69.543,340.808 69.200,339.983 69.200 C 339.164 69.200,338.475 68.887,337.999 68.300 L 337.271 67.400 320.468 67.400 L 303.664 67.400 302.706 68.300 C 302.121 68.850,301.246 69.200,300.456 69.200 C 299.611 69.200,298.818 69.546,298.164 70.200 C 297.614 70.750,296.843 71.200,296.452 71.200 C 296.060 71.200,295.333 71.633,294.836 72.162 C 294.339 72.691,293.362 73.231,292.666 73.362 C 291.939 73.499,290.464 74.449,289.200 75.596 C 287.990 76.693,286.553 77.989,286.007 78.476 C 284.603 79.726,281.321 79.649,279.881 78.332 C 277.911 76.531,276.453 75.591,275.261 75.352 C 274.598 75.220,273.652 74.681,273.158 74.156 C 272.650 73.614,271.801 73.200,271.200 73.200 C 270.586 73.200,269.744 72.779,269.200 72.200 C 268.682 71.648,267.810 71.200,267.256 71.200 C 266.704 71.200,265.846 70.819,265.351 70.354 C 264.811 69.847,263.703 69.423,262.587 69.297 C 261.364 69.160,260.399 68.763,259.780 68.144 C 259.040 67.404,258.405 67.200,256.836 67.200 C 255.236 67.200,254.636 67.000,253.836 66.200 C 252.997 65.360,252.460 65.200,250.488 65.200 C 248.500 65.200,247.995 65.046,247.200 64.200 C 246.444 63.396,245.875 63.200,244.288 63.200 C 242.768 63.200,242.043 62.971,241.127 62.200 C 240.221 61.437,239.483 61.200,238.018 61.200 C 236.864 61.200,235.913 60.978,235.635 60.642 C 235.380 60.335,234.593 59.988,233.886 59.871 C 231.442 59.465,230.198 59.094,229.600 58.592 C 229.016 58.102,227.338 57.892,219.704 57.353 C 217.348 57.186,215.844 56.893,215.555 56.546 C 215.187 56.102,212.268 56.000,200.000 56.000 C 187.732 56.000,184.813 56.102,184.445 56.546 M215.800 75.828 C 217.560 76.159,220.629 76.687,222.619 77.003 C 234.924 78.954,251.418 83.825,260.451 88.175 C 272.783 94.113,275.409 95.797,288.344 106.059 C 296.250 112.330,312.800 130.067,312.800 132.267 C 312.800 132.422,313.143 132.920,313.562 133.374 C 314.434 134.320,318.174 141.300,318.613 142.800 C 318.773 143.350,319.229 144.261,319.626 144.824 C 320.022 145.388,320.473 146.378,320.627 147.024 C 320.781 147.671,321.134 148.470,321.412 148.800 C 322.403 149.980,327.951 161.838,328.429 163.800 C 328.697 164.900,329.160 166.286,329.458 166.880 C 329.951 167.862,330.679 170.257,331.622 174.000 C 331.816 174.770,332.170 176.840,332.408 178.600 C 332.646 180.360,333.104 183.150,333.425 184.800 C 334.670 191.188,334.807 218.511,333.635 226.600 C 332.557 234.044,330.854 241.602,329.625 244.400 C 329.190 245.390,328.304 247.550,327.656 249.200 C 327.008 250.850,325.605 253.672,324.539 255.472 C 323.472 257.271,322.248 259.341,321.818 260.072 C 321.389 260.802,320.805 262.142,320.521 263.049 C 320.238 263.955,319.734 264.922,319.403 265.198 C 319.071 265.473,318.800 265.919,318.800 266.189 C 318.800 267.712,314.314 274.788,309.682 280.572 C 304.716 286.773,302.602 288.795,295.017 294.600 C 293.580 295.700,290.706 297.950,288.631 299.600 C 286.556 301.250,283.990 303.130,282.929 303.777 C 281.868 304.424,279.830 305.704,278.400 306.620 C 274.605 309.052,268.883 312.186,266.104 313.356 C 258.294 316.643,243.661 321.153,237.966 322.028 C 236.335 322.278,234.370 322.746,233.600 323.066 C 227.143 325.753,197.978 327.161,184.200 325.451 C 174.418 324.236,170.359 323.606,169.558 323.177 C 169.129 322.948,167.299 322.420,165.489 322.005 C 146.862 317.724,134.219 312.784,120.679 304.497 C 115.661 301.426,114.277 300.455,109.675 296.785 C 108.424 295.787,105.842 293.851,103.937 292.484 C 97.509 287.871,89.326 278.805,85.028 271.535 C 83.944 269.701,82.452 267.300,81.713 266.200 C 78.058 260.759,77.308 259.523,75.283 255.614 C 67.084 239.784,63.788 215.711,65.998 187.800 C 67.079 174.149,73.497 153.961,79.434 145.535 C 80.157 144.510,82.050 141.289,83.642 138.378 C 90.972 124.974,104.607 110.612,122.277 97.683 C 134.442 88.783,157.608 80.280,179.800 76.569 C 182.000 76.202,184.520 75.766,185.400 75.600 C 188.589 75.002,212.344 75.180,215.800 75.828 M130.200 140.626 C 126.516 141.316,122.178 142.894,121.051 143.952 C 120.554 144.419,119.944 144.800,119.694 144.800 C 119.444 144.800,119.096 145.026,118.920 145.302 C 118.744 145.579,117.927 146.306,117.105 146.919 C 112.308 150.494,106.763 156.683,104.349 161.158 C 101.843 165.803,100.850 167.853,100.826 168.432 C 100.812 168.780,100.355 169.943,99.812 171.016 C 99.268 172.090,98.710 173.785,98.571 174.784 C 98.432 175.783,97.976 178.173,97.559 180.096 C 96.570 184.650,96.569 190.392,97.556 194.600 C 97.969 196.360,98.427 198.520,98.575 199.400 C 99.496 204.891,105.460 215.089,109.718 218.455 C 119.753 226.387,135.398 227.914,147.000 222.093 C 170.781 210.162,180.638 175.739,166.040 155.600 C 163.367 151.913,156.735 144.813,155.954 144.803 C 155.819 144.801,155.196 144.397,154.569 143.904 C 150.236 140.496,138.975 138.981,130.200 140.626 M253.800 140.570 C 252.480 140.829,250.760 141.335,249.978 141.694 C 249.196 142.052,248.026 142.475,247.378 142.633 C 245.926 142.988,242.597 145.756,237.571 150.788 C 233.385 154.980,232.192 156.997,230.059 163.486 C 227.464 171.386,227.400 171.757,227.400 179.000 C 227.400 186.126,227.393 186.082,229.834 194.224 C 230.365 195.997,230.800 197.741,230.800 198.100 C 230.800 198.459,230.966 198.856,231.169 198.981 C 231.373 199.107,231.849 200.142,232.227 201.282 C 233.176 204.140,234.696 206.450,238.097 210.207 C 244.725 217.530,248.590 220.249,257.800 224.069 L 261.000 225.397 268.800 225.374 C 275.219 225.355,276.954 225.225,278.600 224.640 C 293.037 219.505,300.479 208.984,302.396 191.000 C 302.953 185.773,301.855 175.115,300.460 172.200 C 300.039 171.320,299.562 169.986,299.401 169.235 C 298.970 167.229,295.844 160.817,294.427 159.034 C 293.752 158.185,293.200 157.363,293.200 157.207 C 293.200 156.340,282.764 146.474,279.065 143.845 C 274.693 140.737,261.588 139.038,253.800 140.570 M149.200 154.014 C 154.008 156.570,155.569 158.640,157.396 164.884 C 158.245 167.786,158.306 173.693,157.506 175.609 C 157.187 176.374,156.792 177.720,156.630 178.600 C 156.121 181.351,150.952 188.800,149.552 188.800 C 149.340 188.800,148.680 189.151,148.084 189.581 C 140.699 194.901,129.358 191.496,124.984 182.647 C 116.749 165.984,133.797 145.826,149.200 154.014 M263.506 153.140 C 282.663 159.102,280.875 190.902,261.326 191.911 C 253.497 192.315,248.152 188.587,243.901 179.759 L 241.802 175.400 241.801 170.800 C 241.798 157.756,251.907 149.530,263.506 153.140 M186.756 228.574 C 182.349 229.541,180.628 231.677,180.611 236.200 C 180.593 240.769,180.879 241.094,190.348 247.292 C 196.725 251.466,196.400 250.643,196.400 262.607 C 196.400 275.085,196.044 275.774,190.403 274.216 C 188.972 273.821,186.858 273.241,185.707 272.929 C 184.556 272.616,182.486 271.648,181.107 270.777 C 179.728 269.907,178.330 269.073,178.000 268.923 C 176.631 268.304,172.793 265.489,170.227 263.224 C 167.217 260.567,164.461 259.881,163.149 261.461 C 162.483 262.264,162.410 266.309,163.054 266.715 C 163.511 267.002,164.158 267.484,168.579 270.833 C 184.766 283.092,207.718 284.663,225.200 274.708 C 236.934 268.026,239.556 264.978,236.440 261.642 C 234.931 260.027,233.262 259.977,231.696 261.500 C 228.899 264.221,225.796 266.800,225.320 266.800 C 225.034 266.800,224.800 266.951,224.800 267.136 C 224.800 267.321,223.945 267.959,222.900 268.553 C 221.855 269.148,220.123 270.195,219.050 270.881 C 217.978 271.567,215.908 272.473,214.450 272.895 C 212.993 273.316,210.900 273.922,209.800 274.241 C 203.816 275.978,202.400 273.731,202.400 262.498 C 202.400 252.084,202.799 251.427,212.900 245.202 C 218.977 241.458,219.973 240.208,219.991 236.308 C 220.010 232.166,217.810 229.615,213.304 228.555 C 210.264 227.839,190.038 227.854,186.756 228.574 " stroke="none" fill="#080808" fill-rule="evenodd"></path><path id="path1" d="M182.995 79.357 C 182.332 79.645,179.858 80.085,177.497 80.334 C 175.136 80.583,172.552 81.060,171.754 81.394 C 170.955 81.727,169.634 82.000,168.817 82.000 C 168.000 82.000,166.267 82.348,164.966 82.772 C 163.665 83.197,161.250 83.908,159.600 84.352 C 157.950 84.795,155.160 85.680,153.400 86.317 C 151.640 86.955,149.210 87.806,148.000 88.210 C 146.790 88.613,144.964 89.361,143.942 89.872 C 142.920 90.382,141.908 90.800,141.694 90.800 C 141.270 90.800,136.252 93.378,134.000 94.753 C 133.230 95.223,131.816 95.983,130.857 96.441 C 129.208 97.230,125.351 99.487,123.408 100.800 C 120.721 102.615,119.999 103.149,117.879 104.892 C 116.603 105.941,115.414 106.800,115.237 106.800 C 114.821 106.800,101.467 120.073,97.716 124.215 C 93.877 128.454,89.683 133.896,87.324 137.700 C 86.267 139.405,85.266 140.800,85.101 140.800 C 84.935 140.800,84.800 141.135,84.800 141.544 C 84.800 141.953,84.350 142.951,83.800 143.762 C 83.250 144.572,82.800 145.293,82.800 145.362 C 82.800 145.432,82.106 146.752,81.257 148.296 C 78.069 154.096,74.122 165.198,71.835 174.800 C 69.284 185.510,69.422 183.784,69.424 204.800 C 69.425 225.757,69.548 227.224,72.023 235.880 C 72.450 237.375,72.800 238.954,72.800 239.389 C 72.800 240.681,75.500 247.617,78.410 253.800 C 79.238 255.560,80.205 257.630,80.558 258.400 C 81.440 260.322,83.102 263.223,83.754 263.976 C 84.051 264.319,84.543 265.083,84.847 265.673 C 85.665 267.261,88.671 271.476,90.870 274.121 C 91.932 275.397,92.802 276.567,92.804 276.721 C 92.815 277.592,107.757 292.038,110.227 293.565 C 111.240 294.192,115.319 297.235,116.644 298.352 C 116.888 298.558,117.788 299.105,118.644 299.567 C 119.500 300.030,120.470 300.574,120.800 300.777 C 131.865 307.580,142.920 312.227,160.800 317.591 C 162.890 318.218,165.619 318.917,166.865 319.145 C 168.110 319.373,169.767 319.826,170.546 320.151 C 171.324 320.477,174.085 320.943,176.681 321.187 C 179.276 321.432,182.930 321.913,184.800 322.258 C 189.756 323.171,215.790 323.165,219.683 322.250 C 221.159 321.903,224.257 321.440,226.568 321.221 C 228.879 321.002,231.443 320.542,232.264 320.199 C 233.086 319.856,234.973 319.402,236.458 319.192 C 240.189 318.663,248.323 316.227,255.800 313.401 C 257.340 312.819,259.500 312.012,260.600 311.606 C 265.950 309.635,270.782 307.303,276.052 304.148 C 277.291 303.407,278.410 302.800,278.540 302.800 C 279.049 302.800,286.698 297.548,290.864 294.337 C 298.671 288.321,315.600 269.075,315.600 266.216 C 315.600 266.111,316.410 264.773,317.400 263.242 C 318.390 261.712,319.200 260.292,319.200 260.086 C 319.200 259.880,319.628 259.081,320.151 258.310 C 320.674 257.539,321.327 256.209,321.602 255.354 C 321.876 254.499,322.325 253.530,322.599 253.200 C 322.873 252.870,323.461 251.610,323.906 250.400 C 324.351 249.190,325.348 246.579,326.122 244.598 C 326.897 242.617,327.920 238.927,328.397 236.398 C 328.874 233.869,329.654 230.360,330.131 228.600 C 330.961 225.536,330.998 224.620,330.999 207.000 L 331.000 188.600 329.881 182.600 C 326.057 162.105,318.958 145.351,308.102 131.200 C 306.498 129.110,304.785 126.865,304.293 126.211 C 303.182 124.732,297.094 118.345,291.800 113.104 C 288.172 109.513,282.623 104.944,278.848 102.439 C 278.052 101.911,277.340 101.326,277.267 101.139 C 277.193 100.953,276.956 100.800,276.740 100.800 C 276.524 100.800,275.774 100.368,275.073 99.841 C 274.373 99.314,272.455 98.201,270.810 97.368 C 269.166 96.535,267.267 95.482,266.590 95.027 C 261.667 91.718,246.445 85.661,239.819 84.375 C 238.729 84.163,236.718 83.542,235.351 82.995 C 233.983 82.448,232.242 82.000,231.482 82.000 C 230.722 82.000,229.318 81.724,228.362 81.387 C 227.406 81.049,224.868 80.593,222.723 80.373 C 220.578 80.153,218.075 79.709,217.161 79.386 C 214.856 78.573,184.853 78.547,182.995 79.357 M149.600 138.747 C 169.875 146.327,180.311 169.471,173.793 192.400 C 173.449 193.610,173.019 195.161,172.838 195.847 C 172.030 198.904,165.887 210.800,165.117 210.800 C 164.943 210.800,164.800 211.047,164.800 211.348 C 164.800 212.243,157.595 219.323,155.000 220.976 C 153.680 221.818,152.150 222.844,151.600 223.257 C 144.889 228.293,128.713 230.447,120.200 227.437 C 116.304 226.059,114.045 224.877,108.529 221.328 C 105.275 219.234,100.296 212.861,98.430 208.400 C 97.924 207.190,97.183 205.473,96.783 204.584 C 93.250 196.727,92.992 175.161,96.383 171.015 C 96.569 170.787,97.080 169.505,97.518 168.166 C 102.305 153.522,116.479 140.710,131.335 137.598 C 135.496 136.726,145.954 137.384,149.600 138.747 M273.000 138.686 C 277.014 140.033,281.327 142.032,282.578 143.125 C 283.030 143.520,284.187 144.346,285.149 144.960 C 292.539 149.676,300.305 160.659,303.563 171.000 C 304.256 173.200,305.029 175.630,305.281 176.400 C 306.009 178.623,305.865 195.243,305.095 198.000 C 299.302 218.720,287.710 228.542,269.000 228.583 L 261.400 228.600 257.400 227.226 C 249.961 224.672,243.976 220.879,238.626 215.328 C 233.890 210.415,228.404 201.090,227.013 195.587 C 226.653 194.164,225.978 191.920,225.512 190.600 C 224.751 188.444,224.662 187.306,224.642 179.400 L 224.619 170.600 226.159 165.600 C 230.482 151.561,238.438 142.886,250.738 138.797 C 257.090 136.686,266.896 136.637,273.000 138.686 M137.800 155.933 C 130.945 159.106,127.696 162.857,126.411 169.083 C 123.636 182.518,133.911 192.452,145.252 187.299 C 148.782 185.695,152.488 181.961,153.436 179.055 C 153.804 177.925,154.270 176.792,154.470 176.538 C 156.073 174.507,155.909 167.929,154.161 164.088 C 153.633 162.927,153.200 161.810,153.200 161.607 C 153.200 160.688,149.059 157.210,146.590 156.054 C 143.173 154.455,141.057 154.426,137.800 155.933 M254.184 155.911 C 249.876 157.853,248.467 159.209,245.911 163.871 C 244.228 166.942,243.959 174.092,245.448 176.200 C 245.914 176.860,246.432 177.850,246.599 178.400 C 249.991 189.576,266.031 192.135,271.924 182.440 C 276.582 174.776,272.983 160.016,265.909 157.771 C 265.519 157.647,265.200 157.378,265.200 157.173 C 265.200 156.968,264.948 156.800,264.641 156.800 C 264.333 156.800,263.298 156.352,262.341 155.805 C 259.968 154.448,257.355 154.482,254.184 155.911 M213.991 225.422 C 221.150 227.110,225.376 233.382,223.226 239.130 C 221.933 242.588,215.591 248.800,213.355 248.800 C 213.050 248.800,212.800 248.947,212.800 249.126 C 212.800 249.306,212.035 249.879,211.100 250.399 C 208.828 251.664,207.069 252.893,206.691 253.480 C 206.521 253.744,206.071 254.271,205.691 254.651 C 204.508 255.832,204.436 268.629,205.604 270.115 C 207.813 272.923,219.159 268.419,227.954 261.243 C 232.974 257.147,235.662 256.873,239.082 260.109 C 241.642 262.531,241.185 266.287,237.929 269.596 C 236.152 271.401,231.925 274.800,231.457 274.800 C 231.360 274.800,230.317 275.449,229.140 276.243 C 215.352 285.537,196.177 287.355,179.800 280.920 C 177.392 279.974,171.001 276.600,169.603 275.537 C 161.395 269.296,159.999 267.608,160.001 263.926 C 160.006 257.520,166.513 256.017,172.083 261.135 C 174.104 262.991,182.064 268.131,184.200 268.958 C 194.388 272.905,195.206 272.418,195.181 262.438 L 195.162 255.000 193.081 253.368 C 191.936 252.470,189.830 250.956,188.400 250.003 C 186.970 249.050,185.312 247.940,184.716 247.535 C 184.120 247.131,183.484 246.800,183.304 246.800 C 183.123 246.800,182.024 245.893,180.862 244.785 C 173.530 237.791,176.439 227.595,186.400 225.373 C 189.851 224.603,210.673 224.640,213.991 225.422 " stroke="none" fill="#b3c2ca" fill-rule="evenodd"></path><path id="path2" d="M189.000 77.188 C 184.620 77.454,177.672 78.475,173.600 79.451 C 172.170 79.794,169.650 80.320,168.000 80.620 C 153.584 83.242,131.467 92.755,120.900 100.878 C 119.525 101.935,117.185 103.729,115.700 104.866 C 104.829 113.182,91.166 128.187,85.774 137.732 C 84.688 139.654,82.518 143.454,80.951 146.176 C 75.387 155.844,71.246 167.846,68.456 182.400 C 67.232 188.781,67.007 210.916,68.038 223.400 C 69.059 235.766,74.991 253.033,81.777 263.400 C 82.930 265.160,84.636 267.860,85.569 269.400 C 99.169 291.839,130.369 312.188,162.865 319.815 C 165.359 320.400,168.481 321.221,169.802 321.639 C 171.123 322.058,174.543 322.669,177.402 322.998 C 180.261 323.327,183.950 323.807,185.600 324.066 C 195.772 325.660,223.502 324.234,233.400 321.607 C 234.940 321.198,237.645 320.579,239.412 320.231 C 255.579 317.049,275.417 307.804,290.000 296.657 C 306.724 283.873,312.596 276.270,324.878 251.493 C 326.875 247.465,329.539 239.048,330.605 233.400 C 330.937 231.640,331.503 229.030,331.862 227.600 C 333.001 223.060,332.880 189.567,331.705 184.200 C 331.224 182.000,330.547 178.520,330.201 176.466 C 327.992 163.346,317.402 140.683,307.462 127.800 C 301.904 120.595,289.182 108.039,283.734 104.381 C 283.258 104.062,281.462 102.720,279.742 101.400 C 275.968 98.504,273.991 97.222,270.471 95.392 C 269.002 94.628,266.720 93.367,265.400 92.589 C 264.080 91.811,262.640 91.018,262.200 90.825 C 261.760 90.633,259.809 89.740,257.865 88.840 C 254.209 87.148,243.360 83.416,238.800 82.281 C 232.385 80.685,231.180 80.401,227.600 79.641 C 215.657 77.109,203.264 76.321,189.000 77.188 M217.161 79.386 C 218.075 79.709,220.578 80.153,222.723 80.373 C 224.868 80.593,227.406 81.049,228.362 81.387 C 229.318 81.724,230.722 82.000,231.482 82.000 C 232.242 82.000,233.983 82.448,235.351 82.995 C 236.718 83.542,238.729 84.163,239.819 84.375 C 246.445 85.661,261.667 91.718,266.590 95.027 C 267.267 95.482,269.166 96.535,270.810 97.368 C 272.455 98.201,274.373 99.314,275.073 99.841 C 275.774 100.368,276.524 100.800,276.740 100.800 C 276.956 100.800,277.193 100.953,277.267 101.139 C 277.340 101.326,278.052 101.911,278.848 102.439 C 282.623 104.944,288.172 109.513,291.800 113.104 C 297.094 118.345,303.182 124.732,304.293 126.211 C 304.785 126.865,306.498 129.110,308.102 131.200 C 318.958 145.351,326.057 162.105,329.881 182.600 L 331.000 188.600 330.999 207.000 C 330.998 224.620,330.961 225.536,330.131 228.600 C 329.654 230.360,328.874 233.869,328.397 236.398 C 327.920 238.927,326.897 242.617,326.122 244.598 C 325.348 246.579,324.351 249.190,323.906 250.400 C 323.461 251.610,322.873 252.870,322.599 253.200 C 322.325 253.530,321.876 254.499,321.602 255.354 C 321.327 256.209,320.674 257.539,320.151 258.310 C 319.628 259.081,319.200 259.880,319.200 260.086 C 319.200 260.292,318.390 261.712,317.400 263.242 C 316.410 264.773,315.600 266.111,315.600 266.216 C 315.600 269.075,298.671 288.321,290.864 294.337 C 286.698 297.548,279.049 302.800,278.540 302.800 C 278.410 302.800,277.291 303.407,276.052 304.148 C 270.782 307.303,265.950 309.635,260.600 311.606 C 259.500 312.012,257.340 312.819,255.800 313.401 C 248.323 316.227,240.189 318.663,236.458 319.192 C 234.973 319.402,233.086 319.856,232.264 320.199 C 231.443 320.542,228.879 321.002,226.568 321.221 C 224.257 321.440,221.159 321.903,219.683 322.250 C 215.790 323.165,189.756 323.171,184.800 322.258 C 182.930 321.913,179.276 321.432,176.681 321.187 C 174.085 320.943,171.324 320.477,170.546 320.151 C 169.767 319.826,168.110 319.373,166.865 319.145 C 163.248 318.483,152.972 315.329,146.200 312.802 C 134.950 308.604,128.778 305.682,120.800 300.777 C 120.470 300.574,119.500 300.030,118.644 299.567 C 117.788 299.105,116.888 298.558,116.644 298.352 C 115.319 297.235,111.240 294.192,110.227 293.565 C 107.757 292.038,92.815 277.592,92.804 276.721 C 92.802 276.567,91.932 275.397,90.870 274.121 C 88.671 271.476,85.665 267.261,84.847 265.673 C 84.543 265.083,84.051 264.319,83.754 263.976 C 83.102 263.223,81.440 260.322,80.558 258.400 C 80.205 257.630,79.238 255.560,78.410 253.800 C 75.500 247.617,72.800 240.681,72.800 239.389 C 72.800 238.954,72.450 237.375,72.023 235.880 C 69.548 227.224,69.425 225.757,69.424 204.800 C 69.422 183.784,69.284 185.510,71.835 174.800 C 74.122 165.198,78.069 154.096,81.257 148.296 C 82.106 146.752,82.800 145.432,82.800 145.362 C 82.800 145.293,83.250 144.572,83.800 143.762 C 84.350 142.951,84.800 141.953,84.800 141.544 C 84.800 141.135,84.935 140.800,85.101 140.800 C 85.266 140.800,86.267 139.405,87.324 137.700 C 89.683 133.896,93.877 128.454,97.716 124.215 C 101.467 120.073,114.821 106.800,115.237 106.800 C 115.414 106.800,116.603 105.941,117.879 104.892 C 119.999 103.149,120.721 102.615,123.408 100.800 C 125.351 99.487,129.208 97.230,130.857 96.441 C 131.816 95.983,133.230 95.223,134.000 94.753 C 136.252 93.378,141.270 90.800,141.694 90.800 C 141.908 90.800,142.920 90.382,143.942 89.872 C 144.964 89.361,146.790 88.613,148.000 88.210 C 149.210 87.806,151.640 86.955,153.400 86.317 C 155.160 85.680,157.950 84.795,159.600 84.352 C 161.250 83.908,163.665 83.197,164.966 82.772 C 166.267 82.348,168.000 82.000,168.817 82.000 C 169.634 82.000,170.955 81.727,171.754 81.394 C 172.552 81.060,175.136 80.583,177.497 80.334 C 179.858 80.085,182.332 79.645,182.995 79.357 C 184.853 78.547,214.856 78.573,217.161 79.386 M131.335 137.598 C 116.479 140.710,102.305 153.522,97.518 168.166 C 97.080 169.505,96.569 170.787,96.383 171.015 C 92.992 175.161,93.250 196.727,96.783 204.584 C 97.183 205.473,97.924 207.190,98.430 208.400 C 100.296 212.861,105.275 219.234,108.529 221.328 C 114.045 224.877,116.304 226.059,120.200 227.437 C 128.713 230.447,144.889 228.293,151.600 223.257 C 152.150 222.844,153.680 221.818,155.000 220.976 C 157.595 219.323,164.800 212.243,164.800 211.348 C 164.800 211.047,164.943 210.800,165.117 210.800 C 165.887 210.800,172.030 198.904,172.838 195.847 C 173.019 195.161,173.449 193.610,173.793 192.400 C 179.626 171.878,171.447 149.921,154.600 140.877 C 148.767 137.746,137.923 136.218,131.335 137.598 M255.200 137.456 C 241.355 140.100,230.888 150.244,226.159 165.600 L 224.619 170.600 224.642 179.400 C 224.662 187.306,224.751 188.444,225.512 190.600 C 225.978 191.920,226.653 194.164,227.013 195.587 C 228.404 201.090,233.890 210.415,238.626 215.328 C 243.976 220.879,249.961 224.672,257.400 227.226 L 261.400 228.600 269.000 228.583 C 287.710 228.542,299.302 218.720,305.095 198.000 C 305.865 195.243,306.009 178.623,305.281 176.400 C 305.029 175.630,304.256 173.200,303.563 171.000 C 300.305 160.659,292.539 149.676,285.149 144.960 C 284.187 144.346,283.030 143.520,282.578 143.125 C 277.918 139.054,263.005 135.965,255.200 137.456 M148.485 139.778 C 155.825 141.905,161.551 146.265,166.900 153.800 C 171.699 160.561,174.205 169.221,174.192 179.000 C 174.187 183.363,174.006 185.600,173.532 187.200 C 173.173 188.410,172.759 190.300,172.611 191.400 C 170.440 207.600,152.317 225.405,136.192 227.179 C 121.512 228.794,109.665 223.420,102.106 211.717 C 88.246 190.258,96.282 158.210,119.200 143.549 C 126.825 138.672,139.177 137.081,148.485 139.778 M271.469 139.593 C 292.644 144.656,308.392 172.558,303.644 196.600 C 297.886 225.760,268.760 236.819,244.794 218.943 C 216.719 198.002,220.849 148.714,251.426 139.808 C 256.725 138.265,265.519 138.171,271.469 139.593 M138.975 154.053 C 125.555 156.602,119.614 176.075,129.232 185.986 C 135.424 192.366,146.094 191.392,152.048 183.904 C 162.734 170.465,154.274 151.147,138.975 154.053 M255.189 154.143 C 251.396 154.960,248.961 156.660,246.374 160.296 C 238.191 171.796,247.059 190.157,260.800 190.165 C 272.650 190.171,279.384 176.320,273.424 164.200 C 269.638 156.500,262.506 152.567,255.189 154.143 M146.590 156.054 C 149.059 157.210,153.200 160.688,153.200 161.607 C 153.200 161.810,153.633 162.927,154.161 164.088 C 155.909 167.929,156.073 174.507,154.470 176.538 C 154.270 176.792,153.804 177.925,153.436 179.055 C 152.488 181.961,148.782 185.695,145.252 187.299 C 133.911 192.452,123.636 182.518,126.411 169.083 C 128.465 159.134,138.847 152.431,146.590 156.054 M262.341 155.805 C 263.298 156.352,264.333 156.800,264.641 156.800 C 264.948 156.800,265.200 156.968,265.200 157.173 C 265.200 157.378,265.519 157.647,265.909 157.771 C 272.983 160.016,276.582 174.776,271.924 182.440 C 266.031 192.135,249.991 189.576,246.599 178.400 C 246.432 177.850,245.914 176.860,245.448 176.200 C 243.230 173.060,244.510 165.129,247.987 160.471 C 251.490 155.778,258.378 153.539,262.341 155.805 M186.400 225.373 C 176.439 227.595,173.530 237.791,180.862 244.785 C 182.024 245.893,183.123 246.800,183.304 246.800 C 183.484 246.800,184.120 247.131,184.716 247.535 C 185.312 247.940,186.970 249.050,188.400 250.003 C 189.830 250.956,191.936 252.470,193.081 253.368 L 195.162 255.000 195.181 262.438 C 195.206 272.418,194.388 272.905,184.200 268.958 C 182.064 268.131,174.104 262.991,172.083 261.135 C 166.513 256.017,160.006 257.520,160.001 263.926 C 159.999 267.608,161.395 269.296,169.603 275.537 C 171.001 276.600,177.392 279.974,179.800 280.920 C 196.177 287.355,215.352 285.537,229.140 276.243 C 230.317 275.449,231.360 274.800,231.457 274.800 C 231.925 274.800,236.152 271.401,237.929 269.596 C 241.185 266.287,241.642 262.531,239.082 260.109 C 235.662 256.873,232.974 257.147,227.954 261.243 C 219.159 268.419,207.813 272.923,205.604 270.115 C 204.436 268.629,204.508 255.832,205.691 254.651 C 206.071 254.271,206.521 253.744,206.691 253.480 C 207.069 252.893,208.828 251.664,211.100 250.399 C 212.035 249.879,212.800 249.306,212.800 249.126 C 212.800 248.947,213.050 248.800,213.355 248.800 C 215.591 248.800,221.933 242.588,223.226 239.130 C 225.376 233.382,221.150 227.110,213.991 225.422 C 210.673 224.640,189.851 224.603,186.400 225.373 M211.723 226.442 C 217.856 227.384,221.299 230.375,221.881 235.267 C 222.403 239.649,220.201 242.672,213.331 247.005 C 203.859 252.979,204.003 252.741,204.001 262.481 C 204.000 271.502,204.456 272.800,207.631 272.800 C 209.212 272.800,216.549 270.372,218.551 269.187 C 223.390 266.321,225.855 264.659,227.959 262.840 C 234.193 257.452,239.940 258.470,239.089 264.812 C 238.329 270.478,220.321 280.980,209.000 282.359 C 191.239 284.523,174.913 279.687,163.464 268.873 C 159.772 265.385,160.672 259.916,165.035 259.331 C 167.069 259.059,168.452 259.733,172.054 262.758 C 179.435 268.954,191.845 274.284,194.686 272.479 C 195.934 271.686,196.537 256.060,195.418 253.495 C 195.062 252.678,189.751 248.765,186.076 246.612 C 175.087 240.174,176.017 228.716,187.700 226.598 C 191.347 225.937,207.742 225.830,211.723 226.442 " stroke="none" fill="#747678" fill-rule="evenodd"></path><path id="path3" d="M185.400 75.600 C 184.520 75.766,182.000 76.202,179.800 76.569 C 157.608 80.280,134.442 88.783,122.277 97.683 C 104.607 110.612,90.972 124.974,83.642 138.378 C 82.050 141.289,80.157 144.510,79.434 145.535 C 73.497 153.961,67.079 174.149,65.998 187.800 C 63.788 215.711,67.084 239.784,75.283 255.614 C 77.308 259.523,78.058 260.759,81.713 266.200 C 82.452 267.300,83.944 269.701,85.028 271.535 C 89.326 278.805,97.509 287.871,103.937 292.484 C 105.842 293.851,108.424 295.787,109.675 296.785 C 114.277 300.455,115.661 301.426,120.679 304.497 C 134.219 312.784,146.862 317.724,165.489 322.005 C 167.299 322.420,169.129 322.948,169.558 323.177 C 170.359 323.606,174.418 324.236,184.200 325.451 C 197.978 327.161,227.143 325.753,233.600 323.066 C 234.370 322.746,236.335 322.278,237.966 322.028 C 242.562 321.322,252.918 318.284,262.141 314.935 C 267.053 313.152,272.768 310.229,278.400 306.620 C 279.830 305.704,281.868 304.424,282.929 303.777 C 283.990 303.130,286.556 301.250,288.631 299.600 C 290.706 297.950,293.580 295.700,295.017 294.600 C 302.602 288.795,304.716 286.773,309.682 280.572 C 314.314 274.788,318.800 267.712,318.800 266.189 C 318.800 265.919,319.071 265.473,319.403 265.198 C 319.734 264.922,320.238 263.955,320.521 263.049 C 320.805 262.142,321.389 260.802,321.818 260.072 C 322.248 259.341,323.472 257.271,324.539 255.472 C 325.605 253.672,327.008 250.850,327.656 249.200 C 328.304 247.550,329.190 245.390,329.625 244.400 C 330.854 241.602,332.557 234.044,333.635 226.600 C 334.807 218.511,334.670 191.188,333.425 184.800 C 333.104 183.150,332.646 180.360,332.408 178.600 C 332.170 176.840,331.816 174.770,331.622 174.000 C 330.679 170.257,329.951 167.862,329.458 166.880 C 329.160 166.286,328.697 164.900,328.429 163.800 C 327.951 161.838,322.403 149.980,321.412 148.800 C 321.134 148.470,320.781 147.671,320.627 147.024 C 320.473 146.378,320.022 145.388,319.626 144.824 C 319.229 144.261,318.773 143.350,318.613 142.800 C 318.174 141.300,314.434 134.320,313.562 133.374 C 313.143 132.920,312.800 132.422,312.800 132.267 C 312.800 131.144,304.486 121.272,298.812 115.659 C 292.487 109.402,290.181 107.423,279.944 99.469 C 266.958 89.379,244.047 80.400,222.619 77.003 C 220.629 76.687,217.560 76.159,215.800 75.828 C 212.344 75.180,188.589 75.002,185.400 75.600 M217.800 77.405 C 231.296 79.936,234.394 80.559,235.800 81.022 C 236.680 81.312,238.652 81.837,240.183 82.188 C 253.074 85.147,269.496 93.140,281.996 102.539 C 298.856 115.218,311.379 129.688,318.399 144.600 C 319.745 147.460,321.017 150.070,321.226 150.400 C 321.598 150.989,322.373 152.620,323.413 155.000 C 323.701 155.660,324.416 157.190,325.003 158.400 C 326.752 162.010,330.347 173.490,330.817 176.965 C 331.057 178.744,331.606 181.792,332.037 183.739 C 333.628 190.935,333.483 225.109,331.841 230.000 C 331.509 230.990,330.959 233.460,330.620 235.489 C 330.281 237.518,329.575 240.398,329.050 241.889 C 326.854 248.131,325.668 251.102,324.696 252.800 C 324.130 253.790,322.583 256.760,321.258 259.400 C 319.084 263.735,316.733 268.134,315.176 270.778 C 312.038 276.109,304.121 285.598,299.615 289.430 C 291.102 296.669,284.081 301.758,276.200 306.404 C 274.220 307.571,271.775 309.011,270.767 309.605 C 269.759 310.198,266.339 311.715,263.167 312.975 C 259.995 314.235,256.590 315.590,255.600 315.987 C 252.259 317.325,241.276 320.426,237.926 320.977 C 236.097 321.278,234.060 321.736,233.400 321.995 C 223.155 326.016,182.302 325.912,168.600 321.831 C 166.840 321.306,164.410 320.653,163.200 320.380 C 147.475 316.822,125.270 307.166,115.200 299.507 C 113.401 298.138,108.266 294.287,105.000 291.856 C 98.963 287.364,89.396 276.741,85.526 270.233 C 84.599 268.675,82.869 265.890,81.682 264.044 C 74.731 253.241,68.997 237.482,67.582 225.292 C 66.404 215.148,66.789 187.069,68.189 181.033 C 68.499 179.695,69.234 176.530,69.822 174.000 C 71.203 168.057,73.802 159.675,75.241 156.519 C 75.864 155.155,76.644 153.391,76.975 152.599 C 77.306 151.806,78.904 148.873,80.527 146.079 C 82.149 143.286,84.360 139.419,85.438 137.487 C 91.898 125.920,107.085 110.253,123.042 98.696 C 124.783 97.435,131.945 93.470,138.400 90.193 C 148.451 85.091,164.946 80.092,178.000 78.191 C 180.310 77.854,182.470 77.468,182.800 77.333 C 185.267 76.320,212.313 76.376,217.800 77.405 M131.600 139.389 C 123.939 140.834,120.580 142.441,114.400 147.619 C 98.780 160.705,91.484 184.983,97.997 202.200 C 102.424 213.902,107.461 219.646,117.272 224.179 C 131.875 230.926,151.229 225.382,162.400 211.252 C 187.792 179.133,167.829 132.554,131.600 139.389 M254.694 139.405 C 243.897 141.455,234.266 149.604,230.116 160.200 C 226.426 169.622,225.019 181.000,226.753 187.400 C 226.992 188.280,227.623 190.620,228.156 192.600 C 230.921 202.866,233.635 207.639,240.709 214.674 C 253.769 227.662,272.288 230.756,286.482 222.324 C 305.801 210.847,309.799 178.767,294.599 157.199 C 292.484 154.197,284.706 146.308,282.525 144.952 C 281.906 144.567,281.040 143.956,280.600 143.594 C 276.347 140.095,262.690 137.887,254.694 139.405 M146.400 140.573 C 149.457 141.213,152.968 142.645,154.569 143.904 C 155.196 144.397,155.819 144.801,155.954 144.803 C 156.735 144.813,163.367 151.913,166.040 155.600 C 180.638 175.739,170.781 210.162,147.000 222.093 C 137.473 226.873,125.957 226.916,116.188 222.209 C 107.363 217.956,100.112 208.566,98.575 199.400 C 98.427 198.520,97.969 196.360,97.556 194.600 C 96.569 190.392,96.570 184.650,97.559 180.096 C 97.976 178.173,98.432 175.783,98.571 174.784 C 98.710 173.785,99.268 172.090,99.812 171.016 C 100.355 169.943,100.812 168.780,100.826 168.432 C 100.850 167.853,101.843 165.803,104.349 161.158 C 106.763 156.683,112.308 150.494,117.105 146.919 C 117.927 146.306,118.744 145.579,118.920 145.302 C 119.096 145.026,119.444 144.800,119.694 144.800 C 119.944 144.800,120.554 144.419,121.051 143.952 C 124.327 140.875,138.690 138.960,146.400 140.573 M269.600 140.593 C 273.093 141.235,277.544 142.764,279.065 143.845 C 282.764 146.474,293.200 156.340,293.200 157.207 C 293.200 157.363,293.752 158.185,294.427 159.034 C 295.844 160.817,298.970 167.229,299.401 169.235 C 299.562 169.986,300.039 171.320,300.460 172.200 C 301.855 175.115,302.953 185.773,302.396 191.000 C 300.479 208.984,293.037 219.505,278.600 224.640 C 276.954 225.225,275.219 225.355,268.800 225.374 L 261.000 225.397 257.800 224.069 C 248.590 220.249,244.725 217.530,238.097 210.207 C 234.696 206.450,233.176 204.140,232.227 201.282 C 231.849 200.142,231.373 199.107,231.169 198.981 C 230.966 198.856,230.800 198.459,230.800 198.100 C 230.800 197.741,230.365 195.997,229.834 194.224 C 227.393 186.082,227.400 186.126,227.400 179.000 C 227.400 171.757,227.464 171.386,230.059 163.486 C 232.192 156.997,233.385 154.980,237.571 150.788 C 242.597 145.756,245.926 142.988,247.378 142.633 C 248.026 142.475,249.196 142.052,249.978 141.694 C 253.514 140.072,263.663 139.503,269.600 140.593 M137.696 152.770 C 117.523 157.890,118.328 190.829,138.652 191.921 C 142.159 192.109,145.843 191.195,148.084 189.581 C 148.680 189.151,149.340 188.800,149.552 188.800 C 150.952 188.800,156.121 181.351,156.630 178.600 C 156.792 177.720,157.187 176.374,157.506 175.609 C 158.746 172.639,158.184 166.729,156.099 160.816 C 154.067 155.055,144.746 150.980,137.696 152.770 M253.188 153.014 C 246.280 155.144,241.799 162.143,241.801 170.800 L 241.802 175.400 243.901 179.759 C 254.497 201.765,281.433 192.019,276.438 167.986 C 274.167 157.058,263.128 149.950,253.188 153.014 M148.295 154.881 C 161.215 161.267,159.790 182.581,146.004 189.165 C 132.727 195.506,120.146 181.779,125.171 166.434 C 128.579 156.028,139.538 150.553,148.295 154.881 M265.049 155.020 C 278.599 161.553,279.795 182.596,267.000 189.332 C 256.618 194.797,242.800 184.155,242.800 170.694 C 242.800 157.747,254.139 149.759,265.049 155.020 M185.200 227.659 C 176.506 230.972,176.810 240.549,185.777 245.800 C 191.327 249.050,195.192 252.107,195.597 253.567 C 196.145 255.537,196.115 269.952,195.560 271.543 C 194.095 275.745,180.183 270.689,171.684 262.866 C 166.524 258.116,161.600 258.790,161.600 264.246 C 161.600 267.331,166.321 271.556,175.375 276.573 C 189.947 284.648,210.235 284.444,225.398 276.069 C 236.506 269.934,240.189 265.886,238.345 261.838 C 236.842 258.541,233.025 258.937,228.600 262.848 C 227.500 263.821,225.880 265.086,225.000 265.661 C 218.411 269.962,216.796 270.800,212.848 271.970 C 204.176 274.539,203.600 273.954,203.600 262.570 C 203.600 252.751,203.757 252.465,211.933 247.377 C 216.406 244.593,219.199 242.420,220.002 241.101 C 222.956 236.242,221.195 230.474,216.014 228.040 L 213.800 227.000 200.600 226.910 C 188.047 226.825,187.292 226.862,185.200 227.659 M213.304 228.555 C 217.810 229.615,220.010 232.166,219.991 236.308 C 219.973 240.208,218.977 241.458,212.900 245.202 C 202.799 251.427,202.400 252.084,202.400 262.498 C 202.400 273.731,203.816 275.978,209.800 274.241 C 210.900 273.922,212.993 273.316,214.450 272.895 C 215.908 272.473,217.978 271.567,219.050 270.881 C 220.123 270.195,221.855 269.148,222.900 268.553 C 223.945 267.959,224.800 267.321,224.800 267.136 C 224.800 266.951,225.034 266.800,225.320 266.800 C 225.796 266.800,228.899 264.221,231.696 261.500 C 234.796 258.486,239.134 262.480,236.843 266.237 C 234.520 270.046,222.477 276.995,213.600 279.647 C 208.045 281.307,192.723 281.421,186.800 279.846 C 181.661 278.479,173.053 274.221,168.579 270.833 C 164.158 267.484,163.511 267.002,163.054 266.715 C 162.410 266.309,162.483 262.264,163.149 261.461 C 164.461 259.881,167.217 260.567,170.227 263.224 C 172.793 265.489,176.631 268.304,178.000 268.923 C 178.330 269.073,179.728 269.907,181.107 270.777 C 182.486 271.648,184.556 272.616,185.707 272.929 C 186.858 273.241,188.972 273.821,190.403 274.216 C 196.044 275.774,196.400 275.085,196.400 262.607 C 196.400 250.643,196.725 251.466,190.348 247.292 C 180.879 241.094,180.593 240.769,180.611 236.200 C 180.628 231.677,182.349 229.541,186.756 228.574 C 190.038 227.854,210.264 227.839,213.304 228.555 " stroke="none" fill="#545454" fill-rule="evenodd"></path><path id="path4" d="M203.800 76.826 C 209.495 77.036,215.039 77.448,216.678 77.784 C 218.261 78.108,220.781 78.463,222.278 78.572 L 225.000 78.770 222.800 78.381 C 221.590 78.167,219.313 77.729,217.740 77.407 C 215.841 77.019,211.336 76.761,204.340 76.640 L 193.800 76.457 203.800 76.826 M183.600 77.228 C 182.830 77.418,180.580 77.802,178.600 78.080 C 176.620 78.358,175.486 78.645,176.080 78.718 C 176.675 78.790,178.835 78.540,180.880 78.161 C 182.926 77.782,186.490 77.352,188.800 77.204 L 193.000 76.936 189.000 76.909 C 186.800 76.894,184.370 77.038,183.600 77.228 M172.200 79.174 C 171.760 79.352,170.083 79.718,168.474 79.989 C 166.865 80.260,165.636 80.569,165.743 80.676 C 166.020 80.953,171.060 80.123,173.200 79.447 C 174.483 79.042,174.713 78.875,174.000 78.865 C 173.450 78.857,172.640 78.996,172.200 79.174 M226.200 79.250 C 226.860 79.459,229.149 79.974,231.286 80.394 C 233.423 80.814,235.493 81.326,235.886 81.533 C 236.279 81.739,237.680 82.134,239.000 82.411 C 242.674 83.180,253.905 87.008,257.865 88.840 C 259.809 89.740,261.760 90.633,262.200 90.825 C 262.640 91.018,264.080 91.811,265.400 92.589 C 266.720 93.367,269.002 94.628,270.471 95.392 C 273.991 97.222,275.968 98.504,279.742 101.400 C 281.462 102.720,283.258 104.062,283.734 104.381 C 294.312 111.484,310.128 129.456,316.665 141.800 C 319.169 146.530,319.516 146.607,317.154 141.908 C 310.570 128.814,297.554 114.239,281.996 102.539 C 269.387 93.058,251.521 84.441,239.400 81.995 C 238.080 81.728,236.730 81.368,236.400 81.195 C 235.778 80.867,225.980 78.774,225.354 78.834 C 225.159 78.853,225.540 79.040,226.200 79.250 M160.200 82.001 C 152.713 84.059,144.134 87.283,138.400 90.193 C 131.945 93.470,124.783 97.435,123.042 98.696 C 107.085 110.253,91.898 125.920,85.438 137.487 C 84.360 139.419,82.149 143.286,80.527 146.079 C 78.904 148.873,77.306 151.806,76.975 152.599 C 76.644 153.391,75.864 155.155,75.241 156.519 C 73.802 159.675,71.203 168.057,69.822 174.000 C 69.234 176.530,68.499 179.695,68.189 181.033 C 66.789 187.069,66.404 215.148,67.582 225.292 C 68.997 237.482,74.731 253.241,81.682 264.044 C 82.869 265.890,84.599 268.675,85.526 270.233 C 89.396 276.741,98.963 287.364,105.000 291.856 C 108.266 294.287,113.401 298.138,115.200 299.507 C 125.270 307.166,147.475 316.822,163.200 320.380 C 164.410 320.653,166.840 321.306,168.600 321.831 C 182.297 325.911,223.064 326.017,233.400 322.000 C 234.060 321.743,235.320 321.388,236.200 321.211 C 237.377 320.973,237.522 320.876,236.750 320.844 C 236.173 320.820,234.913 321.080,233.950 321.421 C 226.677 324.002,195.901 325.687,185.600 324.067 C 183.950 323.808,180.261 323.327,177.402 322.998 C 174.543 322.669,171.123 322.058,169.802 321.639 C 168.481 321.221,165.359 320.400,162.865 319.815 C 130.369 312.188,99.169 291.839,85.569 269.400 C 84.636 267.860,82.930 265.160,81.777 263.400 C 74.991 253.033,69.059 235.766,68.038 223.400 C 67.007 210.916,67.232 188.781,68.456 182.400 C 71.246 167.846,75.387 155.844,80.951 146.176 C 82.518 143.454,84.688 139.654,85.774 137.732 C 91.189 128.147,104.816 113.195,115.800 104.788 C 117.340 103.609,119.680 101.815,121.000 100.801 C 129.637 94.163,149.059 85.181,160.875 82.359 C 163.960 81.622,166.185 80.774,164.800 80.863 C 164.470 80.884,162.400 81.396,160.200 82.001 M136.912 138.695 C 137.964 138.777,139.584 138.776,140.512 138.692 C 141.440 138.608,140.580 138.541,138.600 138.542 C 136.620 138.543,135.860 138.612,136.912 138.695 M260.100 138.691 C 260.925 138.778,262.275 138.778,263.100 138.691 C 263.925 138.605,263.250 138.534,261.600 138.534 C 259.950 138.534,259.275 138.605,260.100 138.691 M129.600 139.400 C 127.271 140.075,128.256 140.078,131.800 139.407 C 134.006 138.989,134.261 138.877,133.000 138.878 C 132.120 138.878,130.590 139.113,129.600 139.400 M145.760 139.457 C 148.377 140.018,150.295 140.670,153.700 142.156 C 156.027 143.172,155.467 142.511,153.073 141.416 C 150.507 140.243,145.402 138.788,144.008 138.833 C 143.454 138.851,144.242 139.131,145.760 139.457 M253.264 139.273 C 250.455 139.901,251.561 140.001,254.810 139.413 C 256.499 139.108,257.191 138.875,256.400 138.879 C 255.630 138.883,254.219 139.060,253.264 139.273 M267.800 139.246 C 269.914 139.552,273.840 140.545,276.200 141.371 C 276.640 141.525,276.516 141.369,275.924 141.025 C 274.513 140.205,268.584 138.793,266.800 138.852 C 265.804 138.885,266.092 138.999,267.800 139.246 M125.800 140.400 C 125.296 140.617,125.222 140.744,125.600 140.744 C 125.930 140.744,126.560 140.589,127.000 140.400 C 127.504 140.183,127.578 140.056,127.200 140.056 C 126.870 140.056,126.240 140.211,125.800 140.400 M248.600 140.778 C 246.492 141.776,246.896 141.796,249.400 140.818 C 250.500 140.389,251.130 140.034,250.800 140.029 C 250.470 140.025,249.480 140.362,248.600 140.778 M245.000 142.278 C 232.537 148.987,224.440 166.551,225.960 183.577 C 226.305 187.433,228.456 196.516,228.706 195.171 C 228.765 194.857,228.441 193.340,227.986 191.800 C 226.408 186.453,226.320 185.762,226.312 178.743 C 226.297 163.123,234.074 148.569,245.800 142.276 C 246.460 141.922,246.820 141.632,246.600 141.632 C 246.380 141.632,245.660 141.923,245.000 142.278 M278.000 142.200 C 278.550 142.514,279.180 142.772,279.400 142.772 C 279.620 142.772,279.350 142.514,278.800 142.200 C 278.250 141.886,277.620 141.628,277.400 141.628 C 277.180 141.628,277.450 141.886,278.000 142.200 M118.448 144.002 C 101.043 155.796,91.977 177.762,96.326 197.600 C 100.770 217.870,116.271 229.371,136.192 227.179 C 152.309 225.405,170.751 207.269,172.573 191.400 C 172.768 189.706,172.685 189.861,172.031 192.411 C 165.409 218.258,138.387 233.935,117.272 224.179 C 107.461 219.646,102.424 213.902,97.997 202.200 C 90.883 183.393,99.727 158.012,117.979 144.854 C 120.068 143.348,120.716 142.777,120.300 142.807 C 120.245 142.811,119.411 143.349,118.448 144.002 M156.570 143.678 C 163.908 149.461,170.331 158.584,172.207 165.888 C 172.735 167.946,172.777 168.006,172.584 166.427 C 171.733 159.465,162.378 146.172,156.200 143.148 C 155.760 142.932,155.926 143.171,156.570 143.678 M280.367 143.345 C 280.900 144.001,282.400 144.993,282.400 144.689 C 282.400 144.613,281.815 144.122,281.100 143.599 C 280.296 143.010,280.016 142.913,280.367 143.345 M287.502 149.347 C 304.393 165.669,308.771 188.960,298.715 209.000 C 286.600 233.146,253.389 232.928,235.221 208.584 C 233.075 205.708,232.398 204.979,233.380 206.600 C 243.488 223.301,265.208 231.760,281.400 225.301 C 310.570 213.667,312.426 167.746,284.600 146.162 C 283.500 145.308,284.806 146.742,287.502 149.347 M318.800 146.125 C 318.800 146.408,320.760 150.179,320.779 149.933 C 320.814 149.494,319.246 146.000,319.014 146.000 C 318.896 146.000,318.800 146.056,318.800 146.125 M321.705 152.103 C 322.197 153.063,322.656 153.714,322.724 153.551 C 322.884 153.170,321.730 150.927,321.208 150.605 C 320.989 150.470,321.213 151.144,321.705 152.103 M139.160 153.592 C 135.258 154.280,130.226 157.569,127.747 161.049 C 126.524 162.767,124.522 167.455,124.865 167.799 C 124.961 167.894,125.480 166.789,126.019 165.343 C 131.561 150.494,151.109 149.935,155.822 164.491 C 156.340 166.091,156.772 167.113,156.782 166.763 C 156.806 165.902,155.492 162.141,154.461 160.119 C 152.176 155.641,144.970 152.566,139.160 153.592 M255.595 153.587 C 246.332 155.228,240.159 166.911,243.639 176.213 C 244.710 179.076,244.987 178.902,243.984 175.996 C 241.951 170.106,243.582 163.237,248.319 157.744 C 255.213 149.748,269.418 154.182,274.204 165.823 C 274.741 167.130,275.185 167.982,275.191 167.715 C 275.196 167.448,274.826 166.278,274.369 165.115 C 271.295 157.292,263.097 152.258,255.595 153.587 M322.818 154.700 C 322.845 155.144,324.761 158.652,324.782 158.296 C 324.805 157.905,323.162 154.400,322.956 154.400 C 322.870 154.400,322.808 154.535,322.818 154.700 M325.032 159.400 C 327.292 165.493,329.682 173.378,330.185 176.400 C 330.533 178.490,331.123 181.550,331.497 183.200 C 331.871 184.850,332.285 188.360,332.417 191.000 L 332.658 195.800 332.729 191.496 C 332.779 188.490,332.567 186.137,332.028 183.696 C 331.604 181.773,331.061 178.760,330.821 177.000 C 330.357 173.588,326.271 160.464,325.309 159.297 C 324.774 158.647,324.755 158.654,325.032 159.400 M156.893 168.800 C 156.893 169.570,156.975 169.885,157.076 169.500 C 157.176 169.115,157.176 168.485,157.076 168.100 C 156.975 167.715,156.893 168.030,156.893 168.800 M124.176 170.657 C 121.834 189.399,141.940 197.961,153.217 183.024 C 154.767 180.971,157.221 174.599,157.178 172.741 C 157.166 172.223,156.808 173.130,156.382 174.755 C 150.746 196.278,124.586 195.097,124.604 173.320 C 124.609 167.747,124.570 167.503,124.176 170.657 M172.840 169.000 C 172.818 169.220,173.067 170.660,173.393 172.200 C 174.167 175.853,174.159 181.664,173.375 185.459 C 172.652 188.959,172.850 189.853,173.655 186.722 C 174.432 183.696,174.328 172.809,173.499 170.400 C 173.158 169.410,172.861 168.780,172.840 169.000 M275.673 173.000 C 275.628 174.320,275.506 176.120,275.402 177.000 L 275.212 178.600 275.622 177.000 C 275.847 176.120,275.969 174.320,275.893 173.000 L 275.754 170.600 275.673 173.000 M244.800 179.022 C 244.800 179.144,245.361 180.269,246.046 181.522 C 251.446 191.395,263.877 193.786,271.075 186.334 C 272.819 184.529,275.214 180.403,275.181 179.259 C 275.171 178.897,274.824 179.465,274.411 180.523 C 269.530 193.015,252.555 193.393,246.374 181.148 C 245.317 179.055,244.800 178.356,244.800 179.022 M228.800 196.257 C 228.800 197.068,232.277 205.200,232.624 205.200 C 232.727 205.200,232.515 204.525,232.154 203.700 C 231.792 202.875,230.961 200.850,230.306 199.200 C 229.091 196.136,228.800 195.567,228.800 196.257 M332.716 210.400 C 332.505 221.260,332.275 225.666,331.820 227.600 C 331.484 229.030,330.937 231.640,330.605 233.400 C 329.574 238.864,328.245 243.130,324.996 251.400 C 324.751 252.024,324.791 252.100,325.178 251.743 C 325.634 251.323,326.556 248.977,329.050 241.889 C 329.575 240.398,330.281 237.518,330.620 235.489 C 330.959 233.460,331.509 230.990,331.842 230.000 C 332.696 227.460,333.250 216.748,333.114 205.400 L 333.000 195.800 332.716 210.400 M189.000 226.390 C 188.120 226.541,193.340 226.741,200.600 226.833 L 213.800 227.000 216.014 228.040 C 221.195 230.474,222.956 236.242,220.002 241.101 C 219.199 242.420,216.406 244.593,211.933 247.377 C 203.757 252.465,203.600 252.751,203.600 262.570 C 203.600 273.954,204.176 274.539,212.848 271.970 C 216.796 270.800,218.411 269.962,225.000 265.661 C 225.880 265.086,227.500 263.821,228.600 262.848 C 233.025 258.937,236.842 258.541,238.345 261.838 C 240.189 265.886,236.506 269.934,225.398 276.069 C 208.502 285.401,187.853 284.645,171.200 274.084 C 164.377 269.757,161.600 266.911,161.600 264.246 C 161.600 258.790,166.524 258.116,171.684 262.866 C 178.506 269.145,191.315 274.743,194.624 272.891 C 195.179 272.580,194.925 272.529,193.574 272.682 C 189.140 273.181,178.779 268.403,172.054 262.758 C 168.452 259.733,167.069 259.059,165.035 259.331 C 160.672 259.916,159.772 265.385,163.464 268.873 C 178.519 283.094,203.057 287.082,221.910 278.371 C 236.383 271.685,242.959 263.683,237.006 260.004 C 234.426 258.409,232.322 259.069,227.959 262.840 C 225.855 264.659,223.390 266.321,218.551 269.187 C 216.549 270.372,209.212 272.800,207.631 272.800 C 204.456 272.800,204.000 271.502,204.001 262.481 C 204.003 252.741,203.859 252.979,213.331 247.005 C 223.622 240.514,225.135 232.016,216.729 227.921 C 213.169 226.187,195.751 225.225,189.000 226.390 M183.692 227.829 C 175.684 231.819,176.878 241.224,186.076 246.612 C 189.361 248.537,195.080 252.670,195.336 253.304 C 195.447 253.577,195.551 253.609,195.568 253.376 C 195.639 252.426,190.930 248.789,185.600 245.677 C 176.794 240.536,176.580 230.913,185.200 227.670 C 186.410 227.214,187.030 226.832,186.579 226.821 C 186.127 226.809,184.828 227.263,183.692 227.829 M323.633 253.833 C 323.157 254.640,322.824 255.357,322.893 255.426 C 322.962 255.495,323.445 254.928,323.967 254.167 C 324.488 253.405,324.822 252.688,324.707 252.574 C 324.593 252.459,324.110 253.026,323.633 253.833 M321.297 258.402 C 320.584 259.690,320.003 260.891,320.006 261.072 C 320.010 261.252,320.657 260.262,321.445 258.872 C 322.233 257.482,322.814 256.281,322.736 256.203 C 322.658 256.125,322.010 257.114,321.297 258.402 M318.027 264.922 C 304.298 290.626,276.763 310.368,241.400 319.861 C 239.381 320.404,238.506 320.756,239.407 320.664 C 241.151 320.487,252.678 317.157,255.600 315.987 C 256.590 315.590,259.995 314.235,263.167 312.975 C 266.339 311.715,269.759 310.198,270.767 309.605 C 271.775 309.011,274.220 307.571,276.200 306.404 C 284.081 301.758,291.102 296.669,299.615 289.430 C 304.121 285.599,312.024 276.127,315.177 270.778 C 317.084 267.543,320.057 261.924,319.929 261.796 C 319.846 261.713,318.990 263.120,318.027 264.922 " stroke="none" fill="#5c5c5c" fill-rule="evenodd"></path></g>








</symbol></svg>
