<svg id="svg" version="1.1" xmlns="http://www.w3.org/2000/svg" xmlns:xlink="http://www.w3.org/1999/xlink" width="400" height="400" viewBox="0, 0, 400,400"><g id="svgg"><path id="path0" d="M176.945 38.600 C 176.760 39.082,175.862 39.200,172.361 39.200 C 168.440 39.200,167.957 39.280,167.507 40.000 C 167.067 40.705,166.574 40.800,163.347 40.800 C 160.461 40.800,159.637 40.927,159.455 41.400 C 159.286 41.842,158.587 42.000,156.800 42.000 C 155.013 42.000,154.314 42.158,154.145 42.600 C 153.984 43.018,153.332 43.200,151.990 43.200 C 149.691 43.200,148.800 43.491,148.800 44.243 C 148.800 44.662,148.154 44.800,146.187 44.800 C 144.234 44.800,143.517 44.951,143.345 45.400 C 143.188 45.807,142.550 46.000,141.357 46.000 C 140.062 46.000,139.600 46.158,139.600 46.600 C 139.600 47.011,139.188 47.200,138.296 47.200 C 137.426 47.200,136.826 47.466,136.493 48.000 C 136.129 48.583,135.560 48.800,134.397 48.800 C 133.244 48.800,132.800 48.967,132.800 49.400 C 132.800 49.845,132.332 50.000,130.987 50.000 C 129.745 50.000,129.102 50.189,128.945 50.600 C 128.811 50.948,128.213 51.200,127.520 51.200 C 126.662 51.200,126.266 51.425,126.116 52.000 C 125.959 52.601,125.570 52.800,124.553 52.800 C 123.617 52.800,123.200 52.985,123.200 53.400 C 123.200 53.795,122.805 54.000,122.043 54.000 C 121.383 54.000,120.787 54.258,120.655 54.600 C 120.529 54.930,120.014 55.202,119.513 55.205 C 117.974 55.215,116.800 55.665,116.800 56.247 C 116.800 56.612,116.325 56.800,115.400 56.800 C 114.422 56.800,114.000 56.981,114.000 57.400 C 114.000 57.775,113.621 58.000,112.987 58.000 C 112.431 58.000,111.871 58.270,111.745 58.600 C 111.618 58.930,111.174 59.200,110.757 59.200 C 110.267 59.200,110.000 59.482,110.000 60.000 C 110.000 60.648,109.733 60.800,108.600 60.800 C 107.622 60.800,107.200 60.981,107.200 61.400 C 107.200 61.800,106.800 62.000,106.000 62.000 C 105.200 62.000,104.800 62.200,104.800 62.600 C 104.800 62.933,104.444 63.200,104.000 63.200 C 103.560 63.200,102.840 63.560,102.400 64.000 C 101.960 64.440,101.420 64.800,101.200 64.800 C 100.980 64.800,100.800 65.070,100.800 65.400 C 100.800 65.819,100.378 66.000,99.400 66.000 C 98.422 66.000,98.000 65.819,98.000 65.400 C 98.000 65.070,97.751 64.800,97.447 64.800 C 97.142 64.800,96.799 64.440,96.684 64.000 C 96.569 63.560,96.188 63.200,95.837 63.200 C 95.487 63.200,95.200 62.930,95.200 62.600 C 95.200 62.270,94.930 62.000,94.600 62.000 C 94.270 62.000,94.000 61.730,94.000 61.400 C 94.000 61.070,93.770 60.800,93.489 60.800 C 93.208 60.800,92.670 60.440,92.293 60.000 C 91.916 59.560,91.246 59.200,90.804 59.200 C 90.356 59.200,90.000 58.934,90.000 58.600 C 90.000 58.270,89.749 58.000,89.443 58.000 C 89.136 58.000,88.782 57.730,88.655 57.400 C 88.521 57.049,87.921 56.800,87.213 56.800 C 86.267 56.800,86.000 56.624,86.000 56.000 C 86.000 55.539,85.733 55.200,85.371 55.200 C 85.026 55.200,84.473 54.930,84.143 54.600 C 83.813 54.270,82.926 54.000,82.171 54.000 C 81.219 54.000,80.800 53.817,80.800 53.400 C 80.800 52.985,80.383 52.800,79.447 52.800 C 78.430 52.800,78.041 52.601,77.884 52.000 C 77.732 51.417,77.338 51.200,76.437 51.200 C 75.604 51.200,75.200 51.004,75.200 50.600 C 75.200 50.128,74.644 50.000,72.600 50.000 C 70.556 50.000,70.000 49.872,70.000 49.400 C 70.000 48.879,68.333 48.800,57.400 48.800 C 46.467 48.800,44.800 48.879,44.800 49.400 C 44.800 49.872,44.243 50.000,42.187 50.000 C 40.234 50.000,39.517 50.151,39.345 50.600 C 39.213 50.942,38.617 51.200,37.957 51.200 C 37.321 51.200,36.440 51.560,36.000 52.000 C 35.556 52.444,34.667 52.800,34.000 52.800 C 33.200 52.800,32.800 53.000,32.800 53.400 C 32.800 53.801,32.399 54.000,31.587 54.000 C 30.879 54.000,30.279 54.249,30.145 54.600 C 30.018 54.930,29.707 55.200,29.453 55.200 C 29.200 55.200,28.768 55.560,28.493 56.000 C 28.210 56.452,27.560 56.800,26.997 56.800 C 26.377 56.800,26.000 57.027,26.000 57.400 C 26.000 57.730,25.653 58.000,25.229 58.000 C 24.804 58.000,24.219 58.235,23.929 58.522 C 23.638 58.810,23.085 59.164,22.700 59.310 C 22.315 59.456,22.000 59.851,22.000 60.187 C 22.000 60.524,21.730 60.800,21.400 60.800 C 21.070 60.800,20.800 61.070,20.800 61.400 C 20.800 61.733,20.444 62.000,20.000 62.000 C 19.556 62.000,19.200 62.267,19.200 62.600 C 19.200 62.930,18.930 63.200,18.600 63.200 C 18.267 63.200,18.000 63.556,18.000 64.000 C 18.000 64.444,17.733 64.800,17.400 64.800 C 17.070 64.800,16.800 65.070,16.800 65.400 C 16.800 65.733,16.444 66.000,16.000 66.000 C 15.556 66.000,15.200 66.267,15.200 66.600 C 15.200 66.930,14.930 67.200,14.600 67.200 C 14.267 67.200,14.000 67.556,14.000 68.000 C 14.000 68.444,13.733 68.800,13.400 68.800 C 13.029 68.800,12.800 69.176,12.800 69.786 C 12.800 70.362,12.468 70.950,12.000 71.200 C 11.560 71.435,11.200 71.892,11.200 72.214 C 11.200 72.536,10.930 72.800,10.600 72.800 C 10.225 72.800,10.000 73.179,10.000 73.813 C 10.000 74.369,9.730 74.929,9.400 75.055 C 9.070 75.182,8.800 75.626,8.800 76.043 C 8.800 76.459,8.549 76.800,8.243 76.800 C 7.665 76.800,7.200 77.629,7.200 78.661 C 7.200 78.989,6.930 79.527,6.600 79.857 C 6.270 80.187,6.000 81.055,6.000 81.786 C 6.000 82.598,5.767 83.204,5.400 83.345 C 4.992 83.501,4.800 84.140,4.800 85.341 C 4.800 86.770,4.648 87.147,4.000 87.316 C 3.302 87.498,3.200 87.862,3.200 90.163 C 3.200 92.240,3.073 92.800,2.600 92.800 C 1.713 92.800,1.701 113.451,2.587 114.624 C 2.910 115.051,3.180 116.255,3.187 117.300 C 3.198 118.929,3.314 119.200,4.000 119.200 C 4.702 119.200,4.800 119.467,4.800 121.371 C 4.800 122.768,5.014 123.757,5.400 124.143 C 5.730 124.473,6.000 125.296,6.000 125.971 C 6.000 126.797,6.197 127.200,6.600 127.200 C 7.004 127.200,7.200 127.604,7.200 128.437 C 7.200 129.338,7.417 129.732,8.000 129.884 C 8.569 130.033,8.800 130.430,8.800 131.259 C 8.800 131.927,9.057 132.524,9.400 132.655 C 9.730 132.782,10.000 133.136,10.000 133.443 C 10.000 133.749,10.270 134.000,10.600 134.000 C 11.004 134.000,11.200 134.404,11.200 135.237 C 11.200 136.138,11.417 136.532,12.000 136.684 C 12.440 136.799,12.800 137.142,12.800 137.447 C 12.800 137.751,13.070 138.000,13.400 138.000 C 13.771 138.000,14.000 138.376,14.000 138.986 C 14.000 139.562,14.332 140.150,14.800 140.400 C 15.240 140.635,15.600 141.092,15.600 141.414 C 15.600 141.736,15.870 142.000,16.200 142.000 C 16.530 142.000,16.800 142.270,16.800 142.600 C 16.800 142.930,17.070 143.200,17.400 143.200 C 17.730 143.200,18.000 143.458,18.000 143.773 C 18.000 144.088,18.360 144.460,18.800 144.600 C 19.240 144.740,19.600 145.112,19.600 145.427 C 19.600 145.742,19.870 146.000,20.200 146.000 C 20.530 146.000,20.800 146.270,20.800 146.600 C 20.800 146.995,21.195 147.200,21.953 147.200 C 22.770 147.200,23.168 147.433,23.316 148.000 C 23.431 148.440,23.812 148.800,24.163 148.800 C 24.513 148.800,24.800 149.070,24.800 149.400 C 24.800 149.800,25.200 150.000,26.000 150.000 C 26.800 150.000,27.200 150.200,27.200 150.600 C 27.200 150.933,27.556 151.200,28.000 151.200 C 28.440 151.200,28.800 151.456,28.800 151.768 C 28.800 152.081,29.340 152.455,30.000 152.600 C 31.395 152.906,31.961 158.000,30.600 158.000 C 30.133 158.000,30.000 158.535,30.000 160.413 C 30.000 162.188,29.842 162.886,29.400 163.055 C 28.972 163.219,28.800 163.887,28.800 165.381 C 28.800 166.968,28.606 167.652,28.000 168.200 C 27.303 168.831,27.200 169.432,27.200 172.862 C 27.200 176.096,27.093 176.800,26.600 176.800 C 26.093 176.800,26.000 177.737,26.000 182.829 C 26.000 187.654,25.880 188.977,25.400 189.457 C 24.496 190.361,24.496 223.908,25.400 224.255 C 25.886 224.442,26.000 225.378,26.000 229.194 C 26.000 232.891,26.129 234.009,26.600 234.400 C 27.033 234.759,27.200 235.710,27.200 237.816 C 27.200 241.085,27.428 242.000,28.243 242.000 C 28.662 242.000,28.800 242.644,28.800 244.600 C 28.800 246.644,28.928 247.200,29.400 247.200 C 29.867 247.200,30.000 247.735,30.000 249.613 C 30.000 251.388,30.158 252.086,30.600 252.255 C 30.930 252.382,31.202 252.961,31.205 253.543 C 31.214 255.216,31.646 256.400,32.247 256.400 C 32.624 256.400,32.800 256.900,32.800 257.971 C 32.800 258.836,33.070 259.813,33.400 260.143 C 33.730 260.473,34.000 261.296,34.000 261.971 C 34.000 262.797,34.197 263.200,34.600 263.200 C 35.011 263.200,35.200 263.612,35.200 264.504 C 35.200 265.374,35.466 265.974,36.000 266.307 C 36.554 266.653,36.800 267.240,36.800 268.216 C 36.800 269.100,37.024 269.711,37.400 269.855 C 37.735 269.984,38.000 270.578,38.000 271.200 C 38.000 271.813,38.253 272.412,38.562 272.530 C 38.872 272.649,39.246 273.298,39.394 273.973 C 39.542 274.648,39.919 275.200,40.232 275.200 C 40.573 275.200,40.800 275.604,40.800 276.213 C 40.800 276.769,41.070 277.329,41.400 277.455 C 41.730 277.582,42.000 278.026,42.000 278.443 C 42.000 278.859,42.270 279.200,42.600 279.200 C 43.004 279.200,43.200 279.604,43.200 280.437 C 43.200 281.338,43.417 281.732,44.000 281.884 C 44.558 282.030,44.800 282.430,44.800 283.204 C 44.800 283.822,45.066 284.416,45.400 284.545 C 45.730 284.671,46.000 285.051,46.000 285.387 C 46.000 285.724,46.270 286.000,46.600 286.000 C 46.973 286.000,47.200 286.377,47.200 286.997 C 47.200 287.560,47.548 288.210,48.000 288.493 C 48.440 288.768,48.800 289.219,48.800 289.496 C 48.800 289.773,49.070 290.000,49.400 290.000 C 49.770 290.000,50.000 290.375,50.000 290.979 C 50.000 291.998,51.555 294.000,52.346 294.000 C 52.596 294.000,52.800 294.248,52.800 294.551 C 52.800 294.854,53.070 295.326,53.400 295.600 C 53.730 295.874,54.000 296.526,54.000 297.049 C 54.000 297.628,54.235 298.000,54.600 298.000 C 54.930 298.000,55.200 298.270,55.200 298.600 C 55.200 298.933,55.556 299.200,56.000 299.200 C 56.533 299.200,56.800 299.467,56.800 300.000 C 56.800 300.444,57.067 300.800,57.400 300.800 C 57.730 300.800,58.000 300.980,58.000 301.200 C 58.000 301.420,58.360 301.960,58.800 302.400 C 59.240 302.840,59.600 303.470,59.600 303.800 C 59.600 304.130,59.870 304.400,60.200 304.400 C 60.533 304.400,60.800 304.756,60.800 305.200 C 60.800 305.644,61.067 306.000,61.400 306.000 C 61.730 306.000,62.000 306.270,62.000 306.600 C 62.000 306.930,62.249 307.200,62.553 307.200 C 62.858 307.200,63.201 307.560,63.316 308.000 C 63.431 308.440,63.812 308.800,64.163 308.800 C 64.513 308.800,64.800 309.070,64.800 309.400 C 64.800 309.730,65.070 310.000,65.400 310.000 C 65.730 310.000,66.000 310.270,66.000 310.600 C 66.000 310.930,66.249 311.200,66.553 311.200 C 66.858 311.200,67.201 311.560,67.316 312.000 C 67.431 312.440,67.812 312.800,68.163 312.800 C 68.513 312.800,68.800 313.070,68.800 313.400 C 68.800 313.730,69.070 314.000,69.400 314.000 C 69.730 314.000,70.000 314.270,70.000 314.600 C 70.000 314.930,70.207 315.200,70.460 315.200 C 70.712 315.200,71.531 315.830,72.279 316.600 C 73.027 317.370,73.990 318.000,74.419 318.000 C 74.849 318.000,75.200 318.270,75.200 318.600 C 75.200 318.933,75.556 319.200,76.000 319.200 C 76.533 319.200,76.800 319.467,76.800 320.000 C 76.800 320.444,77.067 320.800,77.400 320.800 C 77.730 320.800,78.000 321.070,78.000 321.400 C 78.000 321.730,78.276 322.000,78.613 322.000 C 78.949 322.000,79.329 322.270,79.455 322.600 C 79.587 322.942,80.183 323.200,80.843 323.200 C 81.733 323.200,82.000 323.384,82.000 324.000 C 82.000 324.440,82.251 324.800,82.557 324.800 C 82.864 324.800,83.218 325.070,83.345 325.400 C 83.471 325.730,83.851 326.000,84.187 326.000 C 84.524 326.000,84.800 326.270,84.800 326.600 C 84.800 327.000,85.200 327.200,86.000 327.200 C 86.811 327.200,87.200 327.399,87.200 327.813 C 87.200 328.149,87.515 328.541,87.900 328.682 C 88.285 328.824,88.744 329.178,88.920 329.470 C 89.096 329.761,89.681 330.000,90.220 330.000 C 90.824 330.000,91.200 330.230,91.200 330.600 C 91.200 330.933,91.556 331.200,92.000 331.200 C 92.440 331.200,92.800 331.456,92.800 331.768 C 92.800 332.081,93.325 332.452,93.967 332.593 C 94.608 332.734,95.233 333.108,95.354 333.424 C 95.479 333.750,96.102 334.000,96.787 334.000 C 97.599 334.000,98.000 334.199,98.000 334.600 C 98.000 335.019,98.422 335.200,99.400 335.200 C 100.533 335.200,100.800 335.352,100.800 336.000 C 100.800 336.622,101.067 336.800,102.000 336.800 C 102.800 336.800,103.200 337.000,103.200 337.400 C 103.200 337.740,103.559 338.000,104.029 338.000 C 104.484 338.000,105.127 338.270,105.457 338.600 C 105.787 338.930,106.493 339.200,107.025 339.200 C 107.560 339.200,108.217 339.558,108.493 340.000 C 108.796 340.486,109.426 340.800,110.096 340.800 C 110.811 340.800,111.200 341.012,111.200 341.400 C 111.200 341.819,111.622 342.000,112.600 342.000 C 113.578 342.000,114.000 342.181,114.000 342.600 C 114.000 343.015,114.417 343.200,115.353 343.200 C 116.370 343.200,116.759 343.399,116.916 344.000 C 117.062 344.559,117.468 344.804,118.263 344.813 C 118.888 344.820,119.749 345.090,120.176 345.413 C 120.604 345.736,121.439 346.000,122.034 346.000 C 122.628 346.000,123.218 346.270,123.345 346.600 C 123.501 347.008,124.140 347.200,125.341 347.200 C 126.770 347.200,127.147 347.352,127.316 348.000 C 127.470 348.587,127.862 348.800,128.791 348.800 C 129.487 348.800,130.327 349.070,130.657 349.400 C 130.987 349.730,131.874 350.000,132.629 350.000 C 133.581 350.000,134.000 350.183,134.000 350.600 C 134.000 351.051,134.484 351.200,135.953 351.200 C 137.570 351.200,137.943 351.338,138.116 352.000 C 138.296 352.688,138.662 352.800,140.720 352.800 C 142.479 352.800,143.175 352.959,143.345 353.400 C 143.517 353.849,144.234 354.000,146.187 354.000 C 148.243 354.000,148.800 354.128,148.800 354.600 C 148.800 355.053,149.289 355.200,150.800 355.200 C 152.267 355.200,153.013 355.413,153.600 356.000 C 154.181 356.581,154.933 356.800,156.351 356.800 C 157.597 356.800,158.482 357.017,158.800 357.400 C 159.182 357.860,160.228 358.000,163.278 358.000 C 166.282 358.000,167.404 358.147,167.857 358.600 C 168.323 359.066,169.521 359.200,173.229 359.200 C 177.024 359.200,178.000 359.313,178.000 359.753 C 178.000 360.720,179.404 360.789,199.337 360.795 C 218.541 360.800,218.878 360.786,219.084 360.000 C 219.278 359.260,219.630 359.200,223.804 359.200 C 227.444 359.200,228.359 359.084,228.545 358.600 C 228.726 358.128,229.547 358.000,232.400 358.000 C 235.253 358.000,236.074 357.872,236.255 357.400 C 236.432 356.940,237.198 356.799,239.543 356.795 C 243.128 356.788,244.400 356.516,244.400 355.753 C 244.400 355.349,244.994 355.200,246.600 355.200 C 248.289 355.200,248.800 355.061,248.800 354.600 C 248.800 354.133,249.335 354.000,251.213 354.000 C 252.988 354.000,253.686 353.842,253.855 353.400 C 254.017 352.980,254.672 352.800,256.043 352.800 C 257.467 352.800,258.218 352.582,258.800 352.000 C 259.363 351.437,260.133 351.200,261.400 351.200 C 262.733 351.200,263.200 351.044,263.200 350.600 C 263.200 350.147,263.689 350.000,265.200 350.000 C 266.711 350.000,267.200 349.853,267.200 349.400 C 267.200 348.996,267.604 348.800,268.437 348.800 C 269.338 348.800,269.732 348.583,269.884 348.000 C 270.057 347.338,270.430 347.200,272.047 347.200 C 273.516 347.200,274.000 347.051,274.000 346.600 C 274.000 346.183,274.419 346.000,275.371 346.000 C 276.126 346.000,277.013 345.730,277.343 345.400 C 277.673 345.070,278.513 344.800,279.209 344.800 C 280.138 344.800,280.530 344.587,280.684 344.000 C 280.832 343.433,281.230 343.200,282.047 343.200 C 282.805 343.200,283.200 342.995,283.200 342.600 C 283.200 342.181,283.622 342.000,284.600 342.000 C 285.578 342.000,286.000 341.819,286.000 341.400 C 286.000 340.981,286.423 340.800,287.404 340.800 C 288.313 340.800,289.049 340.518,289.493 340.000 C 289.873 339.556,290.673 339.200,291.289 339.200 C 292.010 339.200,292.400 338.989,292.400 338.600 C 292.400 338.267,292.756 338.000,293.200 338.000 C 293.644 338.000,294.000 337.733,294.000 337.400 C 294.000 336.996,294.404 336.800,295.237 336.800 C 296.138 336.800,296.532 336.583,296.684 336.000 C 296.832 335.433,297.230 335.200,298.047 335.200 C 298.805 335.200,299.200 334.995,299.200 334.600 C 299.200 334.199,299.601 334.000,300.413 334.000 C 301.121 334.000,301.721 333.751,301.855 333.400 C 301.982 333.070,302.336 332.800,302.643 332.800 C 302.949 332.800,303.200 332.440,303.200 332.000 C 303.200 331.384,303.467 331.200,304.357 331.200 C 305.017 331.200,305.613 330.942,305.745 330.600 C 305.871 330.270,306.251 330.000,306.587 330.000 C 306.924 330.000,307.200 329.730,307.200 329.400 C 307.200 329.070,307.470 328.800,307.800 328.800 C 308.130 328.800,308.760 328.440,309.200 328.000 C 309.640 327.560,310.270 327.200,310.600 327.200 C 310.930 327.200,311.200 326.930,311.200 326.600 C 311.200 326.267,311.556 326.000,312.000 326.000 C 312.444 326.000,312.800 325.733,312.800 325.400 C 312.800 325.070,313.070 324.800,313.400 324.800 C 313.733 324.800,314.000 324.444,314.000 324.000 C 314.000 323.376,314.267 323.200,315.213 323.200 C 315.921 323.200,316.521 322.951,316.655 322.600 C 316.782 322.270,317.136 322.000,317.443 322.000 C 317.749 322.000,318.000 321.730,318.000 321.400 C 318.000 321.070,318.270 320.800,318.600 320.800 C 318.933 320.800,319.200 320.444,319.200 320.000 C 319.200 319.467,319.467 319.200,320.000 319.200 C 320.444 319.200,320.800 318.933,320.800 318.600 C 320.800 318.270,321.042 318.000,321.338 318.000 C 321.634 318.000,322.202 317.640,322.600 317.200 C 322.998 316.760,323.566 316.400,323.862 316.400 C 324.158 316.400,324.400 316.130,324.400 315.800 C 324.400 315.467,324.756 315.200,325.200 315.200 C 325.644 315.200,326.000 314.933,326.000 314.600 C 326.000 314.270,326.270 314.000,326.600 314.000 C 326.930 314.000,327.200 313.793,327.200 313.540 C 327.200 313.287,328.100 312.217,329.200 311.163 C 330.300 310.108,331.200 309.155,331.200 309.045 C 331.200 308.935,331.829 308.160,332.598 307.322 C 333.367 306.485,333.997 305.575,333.998 305.300 C 333.999 305.025,334.270 304.800,334.600 304.800 C 334.933 304.800,335.200 304.444,335.200 304.000 C 335.200 303.467,335.467 303.200,336.000 303.200 C 336.444 303.200,336.800 302.933,336.800 302.600 C 336.800 302.270,337.070 302.000,337.400 302.000 C 337.730 302.000,338.000 301.724,338.000 301.387 C 338.000 301.051,338.270 300.671,338.600 300.545 C 338.930 300.418,339.200 299.975,339.200 299.561 C 339.200 299.146,339.560 298.582,340.000 298.307 C 340.440 298.032,340.800 297.600,340.800 297.347 C 340.800 297.093,341.070 296.782,341.400 296.655 C 341.730 296.529,342.000 296.149,342.000 295.813 C 342.000 295.476,342.270 295.200,342.600 295.200 C 343.000 295.200,343.200 294.800,343.200 294.000 C 343.200 293.169,343.396 292.800,343.837 292.800 C 344.188 292.800,344.569 292.440,344.684 292.000 C 344.799 291.560,345.142 291.200,345.447 291.200 C 345.795 291.200,346.000 290.755,346.000 290.000 C 346.000 289.200,346.200 288.800,346.600 288.800 C 346.930 288.800,347.200 288.461,347.200 288.047 C 347.200 287.630,347.557 287.200,348.000 287.084 C 348.541 286.943,348.800 286.538,348.800 285.837 C 348.800 285.182,349.021 284.800,349.400 284.800 C 349.733 284.800,350.000 284.444,350.000 284.000 C 350.000 283.556,350.267 283.200,350.600 283.200 C 350.988 283.200,351.200 282.811,351.200 282.096 C 351.200 281.426,351.514 280.796,352.000 280.493 C 352.452 280.210,352.800 279.560,352.800 278.997 C 352.800 278.377,353.027 278.000,353.400 278.000 C 353.819 278.000,354.000 277.578,354.000 276.600 C 354.000 275.622,354.181 275.200,354.600 275.200 C 354.995 275.200,355.200 274.805,355.200 274.047 C 355.200 273.230,355.433 272.832,356.000 272.684 C 356.575 272.534,356.800 272.138,356.800 271.280 C 356.800 270.587,357.052 269.989,357.400 269.855 C 357.744 269.723,358.000 269.126,358.000 268.455 C 358.000 267.785,358.256 267.187,358.600 267.055 C 359.011 266.898,359.200 266.255,359.200 265.013 C 359.200 263.467,359.318 263.200,360.000 263.200 C 360.633 263.200,360.803 262.929,360.813 261.900 C 360.820 261.185,361.090 260.251,361.413 259.824 C 361.736 259.396,362.000 258.451,362.000 257.724 C 362.000 256.814,362.188 256.400,362.600 256.400 C 363.072 256.400,363.200 255.844,363.200 253.800 C 363.200 251.467,363.282 251.200,364.000 251.200 C 364.691 251.200,364.800 250.933,364.800 249.243 C 364.800 247.872,364.980 247.217,365.400 247.055 C 365.864 246.877,366.000 246.099,366.000 243.613 C 366.000 241.024,366.116 240.400,366.600 240.400 C 367.091 240.400,367.200 239.711,367.200 236.600 C 367.200 233.333,367.312 232.688,368.000 232.000 C 368.783 231.217,368.800 230.667,368.800 206.163 C 368.800 181.462,368.789 181.122,368.000 180.916 C 367.265 180.724,367.200 180.370,367.200 176.582 C 367.200 173.449,367.056 172.313,366.600 171.857 C 366.166 171.423,366.000 170.365,366.000 168.029 C 366.000 165.425,365.884 164.800,365.400 164.800 C 364.939 164.800,364.800 164.288,364.800 162.596 C 364.800 160.887,364.620 160.238,364.000 159.707 C 363.412 159.204,363.200 158.527,363.200 157.154 C 363.200 155.862,363.015 155.215,362.600 155.055 C 361.368 154.583,361.872 152.800,363.237 152.800 C 364.138 152.800,364.532 152.583,364.684 152.000 C 364.820 151.479,365.230 151.200,365.859 151.200 C 366.390 151.200,366.929 150.930,367.055 150.600 C 367.182 150.270,367.626 150.000,368.043 150.000 C 368.459 150.000,368.800 149.730,368.800 149.400 C 368.800 149.070,369.070 148.800,369.400 148.800 C 369.730 148.800,370.329 148.471,370.731 148.069 C 371.132 147.668,371.762 147.223,372.131 147.082 C 372.499 146.941,372.800 146.639,372.800 146.413 C 372.800 146.186,373.070 146.000,373.400 146.000 C 373.730 146.000,374.000 145.730,374.000 145.400 C 374.000 145.070,374.270 144.800,374.600 144.800 C 374.933 144.800,375.200 144.444,375.200 144.000 C 375.200 143.467,375.467 143.200,376.000 143.200 C 376.444 143.200,376.800 142.933,376.800 142.600 C 376.800 142.270,377.070 142.000,377.400 142.000 C 377.730 142.000,378.000 141.730,378.000 141.400 C 378.000 141.070,378.270 140.800,378.600 140.800 C 378.930 140.800,379.200 140.461,379.200 140.047 C 379.200 139.630,379.557 139.200,380.000 139.084 C 380.483 138.958,380.800 138.538,380.800 138.025 C 380.800 137.557,381.070 137.071,381.400 136.945 C 381.730 136.818,382.000 136.374,382.000 135.957 C 382.000 135.541,382.270 135.200,382.600 135.200 C 382.971 135.200,383.200 134.824,383.200 134.214 C 383.200 133.638,383.532 133.050,384.000 132.800 C 384.440 132.565,384.800 132.108,384.800 131.786 C 384.800 131.464,385.070 131.200,385.400 131.200 C 385.801 131.200,386.000 130.799,386.000 129.987 C 386.000 129.279,386.249 128.679,386.600 128.545 C 387.004 128.390,387.200 127.755,387.200 126.604 C 387.200 125.230,387.357 124.852,388.000 124.684 C 388.575 124.534,388.800 124.138,388.800 123.280 C 388.800 122.587,389.052 121.989,389.400 121.855 C 389.834 121.689,390.000 121.009,390.000 119.400 C 390.000 117.791,390.166 117.111,390.600 116.945 C 391.080 116.760,391.200 115.884,391.200 112.557 C 391.200 109.284,391.318 108.400,391.753 108.400 C 393.070 108.400,393.268 101.902,392.000 100.291 C 391.316 99.421,391.200 98.668,391.200 95.086 C 391.200 91.851,391.063 90.785,390.600 90.400 C 390.217 90.082,390.000 89.197,390.000 87.951 C 390.000 86.483,389.851 86.000,389.400 86.000 C 388.984 86.000,388.800 85.581,388.800 84.633 C 388.800 82.871,388.455 82.000,387.757 82.000 C 387.387 82.000,387.200 81.530,387.200 80.600 C 387.200 79.622,387.019 79.200,386.600 79.200 C 386.200 79.200,386.000 78.800,386.000 78.000 C 386.000 77.200,385.800 76.800,385.400 76.800 C 384.996 76.800,384.800 76.396,384.800 75.563 C 384.800 74.723,384.575 74.264,384.100 74.135 C 383.431 73.952,382.000 71.454,382.000 70.469 C 382.000 70.211,381.730 70.000,381.400 70.000 C 381.070 70.000,380.800 69.730,380.800 69.400 C 380.800 69.067,380.444 68.800,380.000 68.800 C 379.560 68.800,379.200 68.547,379.200 68.239 C 379.200 67.699,377.357 65.350,375.900 64.033 C 374.055 62.365,373.570 62.000,373.200 62.000 C 372.980 62.000,372.800 61.730,372.800 61.400 C 372.800 61.067,372.444 60.800,372.000 60.800 C 371.467 60.800,371.200 60.533,371.200 60.000 C 371.200 59.556,370.933 59.200,370.600 59.200 C 370.270 59.200,370.000 58.930,370.000 58.600 C 370.000 58.270,369.789 58.000,369.531 58.000 C 368.665 58.000,366.021 56.605,366.010 56.143 C 365.999 55.620,365.089 55.200,363.967 55.200 C 363.545 55.200,363.200 54.930,363.200 54.600 C 363.200 54.205,362.805 54.000,362.043 54.000 C 361.383 54.000,360.787 53.742,360.655 53.400 C 360.521 53.049,359.921 52.800,359.213 52.800 C 358.443 52.800,358.000 52.597,358.000 52.243 C 358.000 51.545,357.129 51.200,355.367 51.200 C 354.419 51.200,354.000 51.016,354.000 50.600 C 354.000 50.148,353.516 50.000,352.043 50.000 C 350.672 50.000,350.017 49.820,349.855 49.400 C 349.508 48.496,323.802 48.496,323.455 49.400 C 323.293 49.823,322.632 50.000,321.213 50.000 C 319.690 50.000,319.200 50.146,319.200 50.600 C 319.200 51.033,318.756 51.200,317.603 51.200 C 316.440 51.200,315.871 51.417,315.507 52.000 C 315.204 52.486,314.574 52.800,313.904 52.800 C 313.189 52.800,312.800 53.012,312.800 53.400 C 312.800 53.819,312.378 54.000,311.400 54.000 C 310.422 54.000,310.000 54.181,310.000 54.600 C 310.000 54.973,309.623 55.200,309.003 55.200 C 308.440 55.200,307.790 55.548,307.507 56.000 C 307.232 56.440,306.595 56.800,306.091 56.800 C 305.587 56.800,305.071 57.070,304.945 57.400 C 304.818 57.730,304.458 58.000,304.145 58.000 C 303.831 58.000,303.471 58.270,303.345 58.600 C 303.218 58.930,302.864 59.200,302.557 59.200 C 302.251 59.200,302.000 59.560,302.000 60.000 C 302.000 60.444,301.733 60.800,301.400 60.800 C 301.070 60.800,300.800 61.070,300.800 61.400 C 300.800 61.773,300.423 62.000,299.803 62.000 C 299.240 62.000,298.590 62.348,298.307 62.800 C 298.032 63.240,297.581 63.600,297.304 63.600 C 297.027 63.600,296.800 63.870,296.800 64.200 C 296.800 64.530,296.530 64.800,296.200 64.800 C 295.870 64.800,295.600 65.070,295.600 65.400 C 295.600 65.733,295.244 66.000,294.800 66.000 C 294.356 66.000,294.000 65.733,294.000 65.400 C 294.000 64.981,293.578 64.800,292.600 64.800 C 291.467 64.800,291.200 64.648,291.200 64.000 C 291.200 63.411,290.933 63.200,290.187 63.200 C 289.631 63.200,289.071 62.930,288.945 62.600 C 288.818 62.270,288.374 62.000,287.957 62.000 C 287.541 62.000,287.200 61.730,287.200 61.400 C 287.200 61.005,286.805 60.800,286.047 60.800 C 285.230 60.800,284.832 60.567,284.684 60.000 C 284.532 59.417,284.138 59.200,283.237 59.200 C 282.404 59.200,282.000 59.004,282.000 58.600 C 282.000 58.181,281.578 58.000,280.600 58.000 C 279.622 58.000,279.200 57.819,279.200 57.400 C 279.200 57.005,278.805 56.800,278.047 56.800 C 277.230 56.800,276.832 56.567,276.684 56.000 C 276.532 55.417,276.138 55.200,275.237 55.200 C 274.404 55.200,274.000 55.004,274.000 54.600 C 274.000 54.181,273.578 54.000,272.600 54.000 C 271.622 54.000,271.200 53.819,271.200 53.400 C 271.200 53.000,270.800 52.800,270.000 52.800 C 269.333 52.800,268.444 52.444,268.000 52.000 C 267.560 51.560,266.679 51.200,266.043 51.200 C 265.383 51.200,264.787 50.942,264.655 50.600 C 264.523 50.256,263.926 50.000,263.255 50.000 C 262.585 50.000,261.987 49.744,261.855 49.400 C 261.699 48.992,261.060 48.800,259.859 48.800 C 258.430 48.800,258.053 48.648,257.884 48.000 C 257.713 47.346,257.338 47.200,255.837 47.200 C 254.471 47.200,254.000 47.046,254.000 46.600 C 254.000 46.185,253.583 46.000,252.649 46.000 C 251.906 46.000,251.074 45.730,250.800 45.400 C 250.470 45.003,249.575 44.800,248.151 44.800 C 246.533 44.800,245.802 44.602,245.200 44.000 C 244.577 43.377,243.867 43.200,241.987 43.200 C 240.212 43.200,239.514 43.042,239.345 42.600 C 239.173 42.153,238.461 42.000,236.557 42.000 C 234.551 42.000,234.000 41.871,234.000 41.400 C 234.000 40.917,233.378 40.800,230.800 40.800 C 228.133 40.800,227.467 40.667,226.800 40.000 C 226.094 39.294,225.467 39.200,221.443 39.200 C 217.761 39.200,216.841 39.085,216.655 38.600 C 216.455 38.078,213.876 38.000,196.800 38.000 C 179.724 38.000,177.145 38.078,176.945 38.600 M208.600 58.625 C 212.120 58.759,215.810 59.047,216.800 59.266 C 217.790 59.485,220.254 59.824,222.277 60.020 C 226.537 60.431,237.455 62.927,243.200 64.803 C 244.410 65.198,246.570 65.890,248.000 66.341 C 249.430 66.792,251.230 67.374,252.000 67.635 C 252.770 67.896,254.210 68.379,255.200 68.709 C 259.370 70.097,270.107 75.129,274.700 77.849 C 276.405 78.859,279.133 80.405,280.762 81.285 C 282.391 82.165,283.921 83.054,284.162 83.261 C 284.726 83.747,288.417 86.420,289.598 87.200 C 296.763 91.928,311.083 105.456,317.511 113.572 C 319.179 115.677,320.646 117.490,320.772 117.600 C 322.131 118.791,327.440 126.725,331.076 133.000 C 332.959 136.248,337.434 145.408,338.592 148.382 C 339.366 150.372,340.630 153.619,341.400 155.597 C 342.170 157.576,342.800 159.550,342.800 159.984 C 342.800 160.418,343.049 161.364,343.354 162.086 C 343.658 162.809,344.107 164.210,344.352 165.200 C 344.596 166.190,345.148 168.260,345.578 169.800 C 346.008 171.340,346.471 173.590,346.607 174.800 C 346.743 176.010,347.110 178.260,347.423 179.800 C 348.775 186.457,349.677 213.111,348.810 220.800 C 348.550 223.110,348.198 226.818,348.029 229.040 C 347.860 231.261,347.573 233.319,347.392 233.613 C 347.210 233.907,346.839 235.509,346.566 237.173 C 346.057 240.278,345.446 242.883,344.729 245.000 C 344.506 245.660,344.161 246.991,343.963 247.957 C 343.765 248.924,343.461 249.914,343.287 250.157 C 343.114 250.401,342.535 251.950,342.001 253.600 C 341.467 255.250,340.798 256.884,340.515 257.231 C 340.232 257.579,340.000 258.241,340.000 258.703 C 340.000 259.165,339.730 259.813,339.400 260.143 C 339.070 260.473,338.800 260.953,338.800 261.210 C 338.800 261.614,336.224 267.050,335.205 268.800 C 335.012 269.130,333.553 271.650,331.962 274.400 C 330.371 277.150,328.514 280.147,327.835 281.060 C 327.156 281.972,326.251 283.199,325.825 283.785 C 325.399 284.371,324.703 285.244,324.279 285.725 C 323.855 286.206,323.214 287.050,322.854 287.600 C 321.208 290.116,314.451 297.307,307.770 303.651 C 303.963 307.267,294.139 314.800,293.232 314.800 C 293.031 314.800,292.807 314.942,292.733 315.115 C 292.534 315.587,287.480 318.800,286.937 318.800 C 286.678 318.800,286.407 318.952,286.333 319.138 C 286.182 319.522,285.869 319.696,279.342 323.032 C 276.725 324.370,273.687 325.803,272.592 326.216 C 271.496 326.630,270.150 327.200,269.600 327.482 C 269.050 327.764,268.358 327.996,268.062 327.998 C 267.766 327.999,267.046 328.256,266.462 328.570 C 265.878 328.883,264.320 329.539,263.000 330.026 C 261.680 330.513,260.060 331.140,259.400 331.419 C 256.039 332.840,252.145 334.100,249.600 334.591 C 248.830 334.739,247.480 335.095,246.600 335.382 C 243.096 336.522,237.395 337.784,232.200 338.570 C 230.220 338.870,227.610 339.304,226.400 339.535 C 219.209 340.909,216.130 341.255,208.270 341.572 C 198.435 341.970,184.734 341.529,178.600 340.617 C 169.604 339.281,168.489 339.120,165.894 338.791 C 164.406 338.602,162.606 338.261,161.894 338.034 C 161.182 337.806,159.160 337.246,157.400 336.790 C 155.640 336.333,153.300 335.709,152.200 335.402 C 150.046 334.803,147.662 334.197,144.800 333.522 C 143.810 333.289,142.645 332.851,142.211 332.549 C 141.777 332.247,141.090 332.000,140.685 332.000 C 140.279 332.000,139.554 331.785,139.074 331.522 C 138.287 331.092,134.529 329.665,130.200 328.153 C 129.320 327.846,128.287 327.415,127.905 327.197 C 127.523 326.979,127.035 326.800,126.820 326.800 C 126.605 326.800,124.397 325.838,121.915 324.661 C 116.141 321.926,114.533 321.200,114.253 321.200 C 114.005 321.200,104.443 315.615,103.800 315.095 C 103.580 314.917,101.662 313.637,99.537 312.252 C 97.412 310.867,95.072 309.251,94.337 308.661 C 93.602 308.071,92.818 307.444,92.595 307.267 C 92.373 307.091,91.901 306.778,91.547 306.573 C 90.763 306.119,86.013 301.936,82.264 298.400 C 80.748 296.970,78.147 294.180,76.483 292.200 C 74.820 290.220,73.017 288.150,72.478 287.600 C 71.938 287.050,71.211 286.150,70.862 285.600 C 70.513 285.050,69.225 283.250,68.000 281.600 C 65.410 278.113,64.719 277.080,62.082 272.759 C 60.301 269.842,59.994 269.277,57.647 264.600 C 56.764 262.840,55.943 261.130,55.823 260.800 C 55.703 260.470,55.450 259.930,55.261 259.600 C 55.072 259.270,54.648 258.370,54.320 257.600 C 53.991 256.830,53.335 255.340,52.861 254.289 C 52.387 253.238,52.000 251.955,52.000 251.438 C 52.000 250.921,51.730 250.274,51.400 250.000 C 51.070 249.726,50.794 249.029,50.786 248.451 C 50.778 247.873,50.514 246.950,50.200 246.400 C 49.886 245.850,49.621 244.860,49.612 244.200 C 49.603 243.540,49.311 242.460,48.963 241.800 C 48.616 241.140,48.232 239.610,48.110 238.400 C 47.989 237.190,47.644 235.714,47.345 235.120 C 47.045 234.526,46.797 233.176,46.794 232.120 C 46.791 231.064,46.492 229.030,46.131 227.600 C 45.275 224.214,45.088 187.933,45.909 184.600 C 46.180 183.500,46.582 181.160,46.802 179.400 C 47.309 175.342,48.085 171.468,49.204 167.400 C 49.689 165.640,50.330 163.300,50.629 162.200 C 51.871 157.633,52.354 156.139,52.958 155.000 C 53.309 154.340,53.596 153.596,53.598 153.346 C 53.599 153.096,53.869 152.376,54.198 151.746 C 54.526 151.116,54.802 150.330,54.810 150.000 C 54.819 149.670,55.090 149.051,55.413 148.624 C 55.736 148.196,56.000 147.622,56.000 147.347 C 56.000 146.745,58.458 141.686,61.416 136.200 C 62.603 134.000,63.702 131.930,63.858 131.600 C 64.015 131.270,65.011 129.682,66.072 128.071 C 67.132 126.459,68.000 125.063,68.000 124.967 C 68.000 124.746,70.648 120.942,71.762 119.562 C 72.223 118.990,74.036 116.740,75.792 114.562 C 80.643 108.541,88.099 100.747,92.996 96.579 C 94.533 95.271,96.541 93.512,97.457 92.671 C 99.054 91.205,100.486 90.090,102.429 88.800 C 102.925 88.470,103.662 87.885,104.066 87.500 C 104.470 87.115,104.916 86.800,105.059 86.800 C 105.201 86.800,106.086 86.170,107.026 85.400 C 107.966 84.630,108.830 84.000,108.947 84.000 C 109.064 84.000,109.934 83.480,110.880 82.844 C 112.459 81.783,113.672 81.081,118.800 78.259 C 119.790 77.714,121.410 76.813,122.400 76.258 C 124.130 75.287,127.045 73.852,130.000 72.515 C 130.770 72.167,131.688 71.744,132.039 71.576 C 134.554 70.369,140.470 68.000,140.966 68.000 C 141.300 68.000,142.164 67.753,142.886 67.451 C 145.714 66.269,155.873 63.285,161.400 62.013 C 163.380 61.558,165.630 61.018,166.400 60.815 C 167.170 60.612,168.970 60.339,170.400 60.208 C 171.830 60.077,174.620 59.700,176.600 59.370 C 180.728 58.684,193.770 58.016,198.800 58.234 C 200.670 58.315,205.080 58.491,208.600 58.625 M264.800 125.673 C 261.043 125.944,257.660 126.617,255.474 127.530 C 254.855 127.788,254.225 128.006,254.074 128.014 C 253.923 128.021,253.080 128.375,252.200 128.800 C 251.320 129.225,250.445 129.579,250.255 129.586 C 249.479 129.617,241.920 134.999,239.935 136.934 C 236.803 139.988,232.000 146.134,232.000 147.089 C 232.000 147.225,231.762 147.621,231.471 147.969 C 230.222 149.458,227.874 155.528,226.416 161.035 C 224.055 169.956,224.608 184.592,227.630 193.200 C 228.448 195.530,229.615 198.529,230.198 199.800 C 230.501 200.460,230.851 201.270,230.976 201.600 C 232.109 204.598,237.563 212.647,240.866 216.195 C 248.176 224.050,259.101 230.654,267.081 232.043 C 268.225 232.242,269.632 232.584,270.207 232.802 C 271.796 233.407,280.171 233.278,284.000 232.590 C 288.860 231.716,294.979 229.712,296.431 228.519 C 296.779 228.233,297.171 228.000,297.303 228.000 C 298.012 228.000,302.755 224.425,305.147 222.089 C 311.169 216.206,315.686 208.845,317.964 201.200 C 318.456 199.550,319.030 197.660,319.240 197.000 C 320.717 192.350,320.683 176.656,319.182 170.769 C 318.107 166.552,316.132 160.607,315.237 158.895 C 315.037 158.513,314.211 156.859,313.401 155.219 C 307.482 143.244,295.211 132.154,283.200 127.925 C 277.708 125.991,271.293 125.206,264.800 125.673 M118.419 125.966 C 118.100 126.176,116.930 126.470,115.819 126.620 C 114.709 126.771,113.314 127.143,112.720 127.447 C 112.126 127.751,111.300 128.000,110.884 128.000 C 107.212 128.000,94.099 137.159,88.951 143.319 C 87.443 145.124,86.117 146.690,86.004 146.800 C 85.890 146.910,85.259 147.810,84.600 148.800 C 83.941 149.790,83.312 150.690,83.201 150.800 C 83.091 150.910,82.721 151.540,82.379 152.200 C 82.037 152.860,81.376 154.120,80.910 155.000 C 79.391 157.867,77.739 161.742,76.819 164.600 C 76.322 166.140,75.738 167.940,75.520 168.600 C 73.091 175.958,73.067 191.256,75.472 199.600 C 77.207 205.618,80.846 213.253,83.281 215.981 C 83.567 216.301,84.307 217.201,84.928 217.981 C 88.643 222.656,96.463 228.460,101.350 230.169 C 102.698 230.641,103.981 231.139,104.203 231.277 C 104.425 231.415,105.325 231.650,106.203 231.799 C 107.081 231.949,109.167 232.336,110.838 232.660 C 116.095 233.677,128.187 232.785,130.187 231.233 C 130.414 231.057,131.210 230.797,131.956 230.655 C 133.125 230.433,135.978 229.118,139.600 227.131 C 140.680 226.538,145.272 223.531,145.600 223.201 C 145.710 223.091,146.700 222.284,147.800 221.409 C 150.671 219.125,155.340 214.257,156.800 212.025 C 157.130 211.520,157.715 210.695,158.100 210.191 C 158.485 209.686,158.800 209.077,158.800 208.837 C 158.800 208.597,158.957 208.400,159.148 208.400 C 159.583 208.400,165.055 197.430,165.432 195.800 C 165.585 195.140,165.845 194.420,166.009 194.200 C 166.292 193.821,166.649 192.493,167.566 188.400 C 172.812 164.987,165.043 142.980,147.577 131.785 C 144.176 129.606,139.809 127.701,135.200 126.388 C 133.003 125.762,119.256 125.417,118.419 125.966 M136.209 148.841 C 148.136 154.759,148.076 174.192,136.104 182.539 C 134.951 183.342,133.871 184.001,133.704 184.002 C 133.537 184.004,132.860 184.307,132.200 184.677 C 130.126 185.838,123.563 185.652,120.800 184.353 C 115.064 181.656,110.500 173.401,111.320 167.207 C 112.493 158.347,116.280 152.334,122.800 148.978 C 126.086 147.286,132.934 147.216,136.209 148.841 M271.515 148.957 C 282.207 154.375,286.190 169.347,279.562 179.200 C 278.748 180.410,277.681 181.670,277.192 182.000 C 276.702 182.330,276.085 182.807,275.821 183.059 C 270.179 188.438,256.654 184.596,252.537 176.445 C 252.135 175.650,251.597 174.730,251.340 174.400 C 247.342 169.259,248.957 157.101,254.376 151.551 C 258.290 147.542,266.324 146.326,271.515 148.957 M180.125 228.003 C 172.657 229.095,167.583 238.667,170.496 246.170 C 171.074 247.660,174.642 251.967,175.316 251.989 C 175.490 251.995,176.120 252.341,176.716 252.758 C 179.582 254.763,186.055 258.800,186.405 258.800 C 186.622 258.800,186.800 258.968,186.800 259.173 C 186.800 259.378,187.161 259.661,187.602 259.801 C 188.043 259.941,188.943 260.509,189.602 261.063 L 190.800 262.071 190.800 271.387 C 190.800 281.430,190.692 281.950,188.719 281.419 C 179.538 278.950,178.539 278.576,174.400 276.061 C 173.630 275.593,172.558 275.018,172.018 274.784 C 170.639 274.185,167.315 271.752,165.314 269.876 C 164.384 269.005,163.213 268.004,162.712 267.652 C 153.444 261.153,144.659 271.722,152.647 279.760 C 153.846 280.966,160.439 286.236,161.813 287.087 C 167.123 290.372,167.469 290.570,169.300 291.356 C 170.125 291.710,171.385 292.259,172.100 292.576 C 184.627 298.128,200.627 299.070,215.200 295.113 C 216.850 294.664,218.380 294.178,218.600 294.031 C 218.820 293.884,220.080 293.345,221.400 292.832 C 225.063 291.410,227.645 290.172,229.318 289.033 C 230.153 288.465,230.932 288.000,231.050 288.000 C 231.587 288.000,238.873 282.116,241.284 279.735 C 246.247 274.835,245.750 269.085,240.120 266.246 C 236.921 264.632,234.160 265.536,228.800 269.949 C 225.388 272.759,216.222 278.462,214.383 278.920 C 213.842 279.054,212.050 279.544,210.400 280.008 C 202.546 282.215,203.199 282.934,203.206 272.086 C 203.212 262.506,203.316 262.005,205.606 260.519 C 206.373 260.021,207.180 259.465,207.401 259.284 C 207.622 259.102,209.062 258.187,210.601 257.250 C 212.140 256.314,214.480 254.841,215.800 253.976 C 217.120 253.112,218.470 252.283,218.800 252.133 C 220.581 251.324,223.426 247.534,224.188 244.956 C 226.462 237.263,221.525 229.080,213.950 227.985 C 210.936 227.549,183.128 227.564,180.125 228.003 " stroke="none" fill="#050505" fill-rule="evenodd"></path><path id="path1" d="M187.800 58.429 C 183.620 58.617,178.580 59.041,176.600 59.370 C 174.620 59.700,171.830 60.077,170.400 60.208 C 168.970 60.339,167.170 60.612,166.400 60.815 C 165.630 61.018,163.380 61.558,161.400 62.013 C 155.873 63.285,145.714 66.269,142.886 67.451 C 142.164 67.753,141.300 68.000,140.966 68.000 C 140.470 68.000,134.554 70.369,132.039 71.576 C 131.688 71.744,130.770 72.167,130.000 72.515 C 127.045 73.852,124.130 75.287,122.400 76.258 C 121.410 76.813,119.790 77.714,118.800 78.259 C 113.672 81.081,112.459 81.783,110.880 82.844 C 109.934 83.480,109.064 84.000,108.947 84.000 C 108.830 84.000,107.966 84.630,107.026 85.400 C 106.086 86.170,105.201 86.800,105.059 86.800 C 104.916 86.800,104.470 87.115,104.066 87.500 C 103.662 87.885,102.925 88.470,102.429 88.800 C 100.486 90.090,99.054 91.205,97.457 92.671 C 96.541 93.512,94.533 95.271,92.996 96.579 C 88.099 100.747,80.643 108.541,75.792 114.562 C 74.036 116.740,72.223 118.990,71.762 119.562 C 70.648 120.942,68.000 124.746,68.000 124.967 C 68.000 125.063,67.132 126.459,66.072 128.071 C 65.011 129.682,64.015 131.270,63.858 131.600 C 63.702 131.930,62.603 134.000,61.416 136.200 C 58.458 141.686,56.000 146.745,56.000 147.347 C 56.000 147.622,55.736 148.196,55.413 148.624 C 55.090 149.051,54.819 149.670,54.810 150.000 C 54.802 150.330,54.526 151.116,54.198 151.746 C 53.869 152.376,53.599 153.096,53.598 153.346 C 53.596 153.596,53.309 154.340,52.958 155.000 C 52.354 156.139,51.871 157.633,50.629 162.200 C 50.330 163.300,49.689 165.640,49.204 167.400 C 48.085 171.468,47.309 175.342,46.802 179.400 C 46.582 181.160,46.180 183.500,45.909 184.600 C 45.088 187.933,45.275 224.214,46.131 227.600 C 46.492 229.030,46.791 231.064,46.794 232.120 C 46.797 233.176,47.045 234.526,47.345 235.120 C 47.644 235.714,47.989 237.190,48.110 238.400 C 48.232 239.610,48.616 241.140,48.963 241.800 C 49.311 242.460,49.603 243.540,49.612 244.200 C 49.621 244.860,49.886 245.850,50.200 246.400 C 50.514 246.950,50.778 247.873,50.786 248.451 C 50.794 249.029,51.070 249.726,51.400 250.000 C 51.730 250.274,52.000 250.921,52.000 251.438 C 52.000 251.955,52.387 253.238,52.861 254.289 C 53.335 255.340,53.991 256.830,54.320 257.600 C 54.648 258.370,55.072 259.270,55.261 259.600 C 55.450 259.930,55.703 260.470,55.823 260.800 C 55.943 261.130,56.764 262.840,57.647 264.600 C 59.994 269.277,60.301 269.842,62.082 272.759 C 64.719 277.080,65.410 278.113,68.000 281.600 C 69.225 283.250,70.513 285.050,70.862 285.600 C 71.211 286.150,71.938 287.050,72.478 287.600 C 73.017 288.150,74.820 290.220,76.483 292.200 C 78.147 294.180,80.748 296.970,82.264 298.400 C 86.013 301.936,90.763 306.119,91.547 306.573 C 91.901 306.778,92.373 307.091,92.595 307.267 C 92.818 307.444,93.602 308.071,94.337 308.661 C 95.072 309.251,97.412 310.867,99.537 312.252 C 101.662 313.637,103.580 314.917,103.800 315.095 C 104.443 315.615,114.005 321.200,114.253 321.200 C 114.533 321.200,116.141 321.926,121.915 324.661 C 124.397 325.838,126.605 326.800,126.820 326.800 C 127.035 326.800,127.523 326.979,127.905 327.197 C 128.287 327.415,129.320 327.846,130.200 328.153 C 134.529 329.665,138.287 331.092,139.074 331.522 C 139.554 331.785,140.279 332.000,140.685 332.000 C 141.090 332.000,141.777 332.247,142.211 332.549 C 142.645 332.851,143.810 333.289,144.800 333.522 C 147.662 334.197,150.046 334.803,152.200 335.402 C 153.300 335.709,155.640 336.333,157.400 336.790 C 159.160 337.246,161.182 337.806,161.894 338.034 C 162.606 338.261,164.406 338.602,165.894 338.791 C 168.489 339.120,169.604 339.281,178.600 340.617 C 184.734 341.529,198.435 341.970,208.270 341.572 C 216.130 341.255,219.209 340.909,226.400 339.535 C 227.610 339.304,230.220 338.870,232.200 338.570 C 237.395 337.784,243.096 336.522,246.600 335.382 C 247.480 335.095,248.830 334.739,249.600 334.591 C 252.145 334.100,256.039 332.840,259.400 331.419 C 260.060 331.140,261.680 330.513,263.000 330.026 C 264.320 329.539,265.878 328.883,266.462 328.570 C 267.046 328.256,267.766 327.999,268.062 327.998 C 268.358 327.996,269.050 327.764,269.600 327.482 C 270.150 327.200,271.496 326.630,272.592 326.216 C 273.687 325.803,276.725 324.370,279.342 323.032 C 285.869 319.696,286.182 319.522,286.333 319.138 C 286.407 318.952,286.678 318.800,286.937 318.800 C 287.480 318.800,292.534 315.587,292.733 315.115 C 292.807 314.942,293.031 314.800,293.232 314.800 C 294.139 314.800,303.963 307.267,307.770 303.651 C 314.451 297.307,321.208 290.116,322.854 287.600 C 323.214 287.050,323.855 286.206,324.279 285.725 C 324.703 285.244,325.399 284.371,325.825 283.785 C 326.251 283.199,327.156 281.972,327.835 281.060 C 328.514 280.147,330.371 277.150,331.962 274.400 C 333.553 271.650,335.012 269.130,335.205 268.800 C 336.224 267.050,338.800 261.614,338.800 261.210 C 338.800 260.953,339.070 260.473,339.400 260.143 C 339.730 259.813,340.000 259.165,340.000 258.703 C 340.000 258.241,340.232 257.579,340.515 257.231 C 340.798 256.884,341.467 255.250,342.001 253.600 C 342.535 251.950,343.114 250.401,343.287 250.157 C 343.461 249.914,343.765 248.924,343.963 247.957 C 344.161 246.991,344.506 245.660,344.729 245.000 C 345.446 242.883,346.057 240.278,346.566 237.173 C 346.839 235.509,347.210 233.907,347.392 233.613 C 347.573 233.319,347.860 231.261,348.029 229.040 C 348.198 226.818,348.550 223.110,348.810 220.800 C 349.677 213.111,348.775 186.457,347.423 179.800 C 347.110 178.260,346.743 176.010,346.607 174.800 C 346.471 173.590,346.008 171.340,345.578 169.800 C 345.148 168.260,344.596 166.190,344.352 165.200 C 344.107 164.210,343.658 162.809,343.354 162.086 C 343.049 161.364,342.800 160.418,342.800 159.984 C 342.800 159.550,342.170 157.576,341.400 155.597 C 340.630 153.619,339.366 150.372,338.592 148.382 C 337.434 145.408,332.959 136.248,331.076 133.000 C 327.440 126.725,322.131 118.791,320.772 117.600 C 320.646 117.490,319.179 115.677,317.511 113.572 C 311.083 105.456,296.763 91.928,289.598 87.200 C 288.417 86.420,284.726 83.747,284.162 83.261 C 283.921 83.054,282.391 82.165,280.762 81.285 C 279.133 80.405,276.405 78.859,274.700 77.849 C 270.107 75.129,259.370 70.097,255.200 68.709 C 254.210 68.379,252.770 67.896,252.000 67.635 C 251.230 67.374,249.430 66.792,248.000 66.341 C 246.570 65.890,244.410 65.198,243.200 64.803 C 237.455 62.927,226.537 60.431,222.277 60.020 C 220.254 59.824,217.790 59.485,216.800 59.266 C 215.810 59.047,212.120 58.759,208.600 58.625 C 205.080 58.491,200.670 58.315,198.800 58.234 C 196.930 58.153,191.980 58.241,187.800 58.429 M278.400 126.550 C 290.732 129.396,302.076 137.781,310.688 150.419 C 311.370 151.420,312.590 153.580,313.401 155.219 C 314.211 156.859,315.037 158.513,315.237 158.895 C 316.132 160.607,318.107 166.552,319.182 170.769 C 320.683 176.656,320.717 192.350,319.240 197.000 C 319.030 197.660,318.456 199.550,317.964 201.200 C 315.686 208.845,311.169 216.206,305.147 222.089 C 302.755 224.425,298.012 228.000,297.303 228.000 C 297.171 228.000,296.779 228.233,296.431 228.519 C 294.979 229.712,288.860 231.716,284.000 232.590 C 280.171 233.278,271.796 233.407,270.207 232.802 C 269.632 232.584,268.225 232.242,267.081 232.043 C 259.101 230.654,248.176 224.050,240.866 216.195 C 237.563 212.647,232.109 204.598,230.976 201.600 C 230.851 201.270,230.501 200.460,230.198 199.800 C 229.615 198.529,228.448 195.530,227.630 193.200 C 224.608 184.592,224.055 169.956,226.416 161.035 C 227.874 155.528,230.222 149.458,231.471 147.969 C 231.762 147.621,232.000 147.225,232.000 147.089 C 232.000 146.134,236.803 139.988,239.935 136.934 C 241.920 134.999,249.479 129.617,250.255 129.586 C 250.445 129.579,251.320 129.225,252.200 128.800 C 253.080 128.375,253.923 128.021,254.074 128.014 C 254.225 128.006,254.855 127.788,255.474 127.530 C 260.668 125.361,271.282 124.908,278.400 126.550 M135.200 126.388 C 160.714 133.656,174.090 159.284,167.566 188.400 C 166.649 192.493,166.292 193.821,166.009 194.200 C 165.845 194.420,165.585 195.140,165.432 195.800 C 165.055 197.430,159.583 208.400,159.148 208.400 C 158.957 208.400,158.800 208.597,158.800 208.837 C 158.800 209.077,158.485 209.686,158.100 210.191 C 157.715 210.695,157.130 211.520,156.800 212.025 C 155.340 214.257,150.671 219.125,147.800 221.409 C 146.700 222.284,145.710 223.091,145.600 223.201 C 145.272 223.531,140.680 226.538,139.600 227.131 C 135.978 229.118,133.125 230.433,131.956 230.655 C 131.210 230.797,130.414 231.057,130.187 231.233 C 128.187 232.785,116.095 233.677,110.838 232.660 C 109.167 232.336,107.081 231.949,106.203 231.799 C 105.325 231.650,104.425 231.415,104.203 231.277 C 103.981 231.139,102.698 230.641,101.350 230.169 C 96.463 228.460,88.643 222.656,84.928 217.981 C 84.307 217.201,83.567 216.301,83.281 215.981 C 80.846 213.253,77.207 205.618,75.472 199.600 C 73.067 191.256,73.091 175.958,75.520 168.600 C 75.738 167.940,76.322 166.140,76.819 164.600 C 77.739 161.742,79.391 157.867,80.910 155.000 C 81.376 154.120,82.037 152.860,82.379 152.200 C 82.721 151.540,83.091 150.910,83.201 150.800 C 83.312 150.690,83.941 149.790,84.600 148.800 C 85.259 147.810,85.890 146.910,86.004 146.800 C 86.117 146.690,87.443 145.124,88.951 143.319 C 94.099 137.159,107.212 128.000,110.884 128.000 C 111.300 128.000,112.126 127.751,112.720 127.447 C 113.314 127.143,114.709 126.771,115.819 126.620 C 116.930 126.470,118.100 126.176,118.419 125.966 C 119.256 125.417,133.003 125.762,135.200 126.388 M125.600 147.950 C 118.307 149.551,112.647 157.183,111.320 167.207 C 110.500 173.401,115.064 181.656,120.800 184.353 C 123.563 185.652,130.126 185.838,132.200 184.677 C 132.860 184.307,133.537 184.004,133.704 184.002 C 134.940 183.992,139.359 180.149,141.064 177.600 C 151.065 162.653,141.568 144.444,125.600 147.950 M260.400 147.945 C 251.271 149.940,245.477 166.860,251.340 174.400 C 251.597 174.730,252.135 175.650,252.537 176.445 C 256.654 184.596,270.179 188.438,275.821 183.059 C 276.085 182.807,276.702 182.330,277.192 182.000 C 281.495 179.098,284.120 168.860,282.182 162.540 C 278.877 151.765,270.033 145.839,260.400 147.945 M213.950 227.985 C 221.525 229.080,226.462 237.263,224.188 244.956 C 223.426 247.534,220.581 251.324,218.800 252.133 C 218.470 252.283,217.120 253.112,215.800 253.976 C 214.480 254.841,212.140 256.314,210.601 257.250 C 209.062 258.187,207.622 259.102,207.401 259.284 C 207.180 259.465,206.373 260.021,205.606 260.519 C 203.316 262.005,203.212 262.506,203.206 272.086 C 203.199 282.934,202.546 282.215,210.400 280.008 C 212.050 279.544,213.842 279.054,214.383 278.920 C 216.222 278.462,225.388 272.759,228.800 269.949 C 234.160 265.536,236.921 264.632,240.120 266.246 C 245.750 269.085,246.247 274.835,241.284 279.735 C 238.873 282.116,231.587 288.000,231.050 288.000 C 230.932 288.000,230.153 288.465,229.318 289.033 C 227.645 290.172,225.063 291.410,221.400 292.832 C 220.080 293.345,218.820 293.884,218.600 294.031 C 218.380 294.178,216.850 294.664,215.200 295.113 C 200.627 299.070,184.627 298.128,172.100 292.576 C 171.385 292.259,170.125 291.710,169.300 291.356 C 167.469 290.570,167.123 290.372,161.813 287.087 C 160.439 286.236,153.846 280.966,152.647 279.760 C 144.659 271.722,153.444 261.153,162.712 267.652 C 163.213 268.004,164.384 269.005,165.314 269.876 C 167.315 271.752,170.639 274.185,172.018 274.784 C 172.558 275.018,173.630 275.593,174.400 276.061 C 178.539 278.576,179.538 278.950,188.719 281.419 C 190.692 281.950,190.800 281.430,190.800 271.387 L 190.800 262.071 189.602 261.063 C 188.943 260.509,188.043 259.941,187.602 259.801 C 187.161 259.661,186.800 259.378,186.800 259.173 C 186.800 258.968,186.622 258.800,186.405 258.800 C 186.055 258.800,179.582 254.763,176.716 252.758 C 176.120 252.341,175.490 251.995,175.316 251.989 C 174.642 251.967,171.074 247.660,170.496 246.170 C 167.583 238.667,172.657 229.095,180.125 228.003 C 183.128 227.564,210.936 227.549,213.950 227.985 " stroke="none" fill="#fafafa" fill-rule="evenodd"></path></g></svg>