<?xml version="1.0" encoding="UTF-8"?>
<!DOCTYPE svg PUBLIC "-//W3C//DTD SVG 1.1//EN" "http://www.w3.org/Graphics/SVG/1.1/DTD/svg11.dtd">
<svg xmlns="http://www.w3.org/2000/svg" version="1.1" width="512px" height="512px" style="shape-rendering:geometricPrecision; text-rendering:geometricPrecision; image-rendering:optimizeQuality; fill-rule:evenodd; clip-rule:evenodd" xmlns:xlink="http://www.w3.org/1999/xlink">
<g><path style="opacity:1" fill="#394949" d="M 241.5,-0.5 C 250.833,-0.5 260.167,-0.5 269.5,-0.5C 310.349,7.50941 336.849,31.5094 349,71.5C 350.743,88.4864 352.41,105.486 354,122.5C 358.43,138.864 366.596,153.031 378.5,165C 413.391,187.887 440.557,217.72 460,254.5C 472.085,277.42 481.418,301.42 488,326.5C 489.11,338.548 483.61,343.714 471.5,342C 462.367,336.021 453.7,329.521 445.5,322.5C 434.373,279.244 414.54,240.578 386,206.5C 372.3,191.789 357.133,178.956 340.5,168C 321.445,150.385 311.778,128.552 311.5,102.5C 315.192,102.062 317.692,100.062 319,96.5C 321.596,82.3848 317.096,71.3848 305.5,63.5C 292.603,31.2807 269.269,10.614 235.5,1.5C 237.5,0.833333 239.5,0.166667 241.5,-0.5 Z"/></g>
<g><path style="opacity:0.996" fill="#3c5959" d="M 235.5,1.5 C 269.269,10.614 292.603,31.2807 305.5,63.5C 289.248,56.9729 276.748,61.3062 268,76.5C 266.524,81.0759 266.19,85.7426 267,90.5C 269.513,94.2115 273.013,95.3782 277.5,94C 279.049,92.786 280.215,91.286 281,89.5C 282.613,76.8827 289.113,73.3827 300.5,79C 301.211,80.2547 302.044,81.4214 303,82.5C 303.094,88.2778 303.761,93.9445 305,99.5C 306.734,101.451 308.901,102.451 311.5,102.5C 311.778,128.552 321.445,150.385 340.5,168C 357.133,178.956 372.3,191.789 386,206.5C 414.54,240.578 434.373,279.244 445.5,322.5C 437.022,317.091 428.689,311.424 420.5,305.5C 420.5,304.833 420.167,304.5 419.5,304.5C 413.706,299.094 407.04,294.928 399.5,292C 392.676,290.055 387.176,291.888 383,297.5C 381.695,314.075 381.028,330.742 381,347.5C 380.323,354.535 379.489,361.535 378.5,368.5C 378.167,368.5 377.833,368.5 377.5,368.5C 371.848,322.697 352.515,283.864 319.5,252C 285.11,223.971 248.11,219.971 208.5,240C 178.42,260.096 157.253,287.263 145,321.5C 132.932,355.513 128.099,390.513 130.5,426.5C 126.937,427.282 123.603,428.616 120.5,430.5C 119.833,430.5 119.167,430.5 118.5,430.5C 93.2761,392.566 83.7761,350.899 90,305.5C 73.1667,317.667 56.3333,329.833 39.5,342C 24.9784,343.164 19.8117,336.664 24,322.5C 37.9134,269.143 64.7467,223.643 104.5,186C 117.836,177.339 130.003,167.173 141,155.5C 151.521,141.609 157.521,125.942 159,108.5C 156.061,61.8527 175.228,28.0193 216.5,7C 222.582,4.24975 228.916,2.41641 235.5,1.5 Z"/></g>
<g><path style="opacity:1" fill="#fafafa" d="M 212.5,60.5 C 226.263,59.1301 236.429,64.4634 243,76.5C 244.476,81.0759 244.81,85.7426 244,90.5C 241.487,94.2115 237.987,95.3782 233.5,94C 231.951,92.786 230.785,91.286 230,89.5C 229.098,79.265 223.598,75.0984 213.5,77C 211,78.1667 209.167,80 208,82.5C 207.852,88.2488 207.186,93.9155 206,99.5C 200.083,104.181 195.416,103.181 192,96.5C 189.319,78.8418 196.152,66.8418 212.5,60.5 Z"/></g>
<g><path style="opacity:1" fill="#fafafa" d="M 305.5,63.5 C 317.096,71.3848 321.596,82.3848 319,96.5C 317.692,100.062 315.192,102.062 311.5,102.5C 308.901,102.451 306.734,101.451 305,99.5C 303.761,93.9445 303.094,88.2778 303,82.5C 302.044,81.4214 301.211,80.2547 300.5,79C 289.113,73.3827 282.613,76.8827 281,89.5C 280.215,91.286 279.049,92.786 277.5,94C 273.013,95.3782 269.513,94.2115 267,90.5C 266.19,85.7426 266.524,81.0759 268,76.5C 276.748,61.3062 289.248,56.9729 305.5,63.5 Z"/></g>
<g><path style="opacity:1" fill="#f9a515" d="M 247.5,109.5 C 258.117,109.047 268.45,110.547 278.5,114C 286.5,117.333 294.5,120.667 302.5,124C 310.276,130.102 311.443,137.268 306,145.5C 292.195,158.304 278.695,171.471 265.5,185C 258.804,189.598 252.137,189.598 245.5,185C 232.305,171.471 218.805,158.304 205,145.5C 199.557,137.268 200.724,130.102 208.5,124C 221.231,118.039 234.231,113.206 247.5,109.5 Z"/></g>
<g><path style="opacity:1" fill="#fbf4ea" d="M 377.5,368.5 C 372.786,392.25 363.453,413.917 349.5,433.5C 339.982,440.542 332.315,449.208 326.5,459.5C 306.514,475.496 284.18,487.33 259.5,495C 251.24,496.983 242.907,498.483 234.5,499.5C 220.312,498.203 206.645,494.869 193.5,489.5C 194.03,478.585 191.196,468.585 185,459.5C 177.061,445.561 165.895,435.061 151.5,428C 144.622,425.454 137.622,424.954 130.5,426.5C 128.099,390.513 132.932,355.513 145,321.5C 157.253,287.263 178.42,260.096 208.5,240C 248.11,219.971 285.11,223.971 319.5,252C 352.515,283.864 371.848,322.697 377.5,368.5 Z"/></g>
<g><path style="opacity:1" fill="#394949" d="M 419.5,304.5 C 420.167,304.5 420.5,304.833 420.5,305.5C 427.068,350.882 417.734,392.549 392.5,430.5C 388.51,429.174 384.51,427.84 380.5,426.5C 382.068,407.144 381.401,387.811 378.5,368.5C 379.489,361.535 380.323,354.535 381,347.5C 381.028,330.742 381.695,314.075 383,297.5C 387.176,291.888 392.676,290.055 399.5,292C 407.04,294.928 413.706,299.094 419.5,304.5 Z"/></g>
<g><path style="opacity:1" fill="#f7e4c3" d="M 377.5,368.5 C 377.833,368.5 378.167,368.5 378.5,368.5C 381.401,387.811 382.068,407.144 380.5,426.5C 371.302,424.433 362.635,425.766 354.5,430.5C 352.999,431.752 351.332,432.752 349.5,433.5C 363.453,413.917 372.786,392.25 377.5,368.5 Z"/></g>
<g><path style="opacity:1" fill="#f78605" d="M 193.5,489.5 C 187.269,498.869 178.603,505.036 167.5,508C 163.246,509.314 158.913,510.147 154.5,510.5C 154.83,492.621 151.996,475.287 146,458.5C 143.755,453.003 140.755,448.003 137,443.5C 131.844,438.486 126.344,434.153 120.5,430.5C 123.603,428.616 126.937,427.282 130.5,426.5C 137.622,424.954 144.622,425.454 151.5,428C 165.895,435.061 177.061,445.561 185,459.5C 191.196,468.585 194.03,478.585 193.5,489.5 Z"/></g>
<g><path style="opacity:1" fill="#f78604" d="M 380.5,426.5 C 384.51,427.84 388.51,429.174 392.5,430.5C 411.34,443.665 423.34,461.498 428.5,484C 425.337,494.834 418.337,502.167 407.5,506C 402.977,507.797 398.31,508.964 393.5,509.5C 391.833,509.5 390.167,509.5 388.5,509.5C 388.996,491.139 385.829,473.472 379,456.5C 376.394,451.565 373.394,446.898 370,442.5C 365.147,437.855 359.98,433.855 354.5,430.5C 362.635,425.766 371.302,424.433 380.5,426.5 Z"/></g>
<g><path style="opacity:0.989" fill="#fa9701" d="M 118.5,430.5 C 119.167,430.5 119.833,430.5 120.5,430.5C 126.344,434.153 131.844,438.486 137,443.5C 140.755,448.003 143.755,453.003 146,458.5C 151.996,475.287 154.83,492.621 154.5,510.5C 153.833,510.5 153.5,510.833 153.5,511.5C 143.5,511.5 133.5,511.5 123.5,511.5C 108.914,509.958 96.4143,503.958 86,493.5C 84.3351,490.487 83.1684,487.32 82.5,484C 87.6741,461.46 99.6741,443.627 118.5,430.5 Z"/></g>
<g><path style="opacity:0.994" fill="#fa9802" d="M 354.5,430.5 C 359.98,433.855 365.147,437.855 370,442.5C 373.394,446.898 376.394,451.565 379,456.5C 385.829,473.472 388.996,491.139 388.5,509.5C 390.167,509.5 391.833,509.5 393.5,509.5C 391.5,510.167 389.5,510.833 387.5,511.5C 377.5,511.5 367.5,511.5 357.5,511.5C 342.914,509.958 330.414,503.958 320,493.5C 319.209,492.255 318.709,490.922 318.5,489.5C 317.004,478.463 319.67,468.463 326.5,459.5C 332.315,449.208 339.982,440.542 349.5,433.5C 351.332,432.752 352.999,431.752 354.5,430.5 Z"/></g>
<g><path style="opacity:1" fill="#f6e3c3" d="M 326.5,459.5 C 319.67,468.463 317.004,478.463 318.5,489.5C 291.203,500.07 263.203,503.403 234.5,499.5C 242.907,498.483 251.24,496.983 259.5,495C 284.18,487.33 306.514,475.496 326.5,459.5 Z"/></g>
</svg>
